%TF.GenerationSoftware,KiCad,Pcbnew,(5.1.6-0)*%
%TF.CreationDate,2021-01-05T15:22:21+01:00*%
%TF.ProjectId,PID,5049442e-6b69-4636-9164-5f7063625858,rev?*%
%TF.SameCoordinates,PXa381e90PY82ce540*%
%TF.FileFunction,Copper,L1,Top*%
%TF.FilePolarity,Positive*%
%FSLAX46Y46*%
G04 Gerber Fmt 4.6, Leading zero omitted, Abs format (unit mm)*
G04 Created by KiCad (PCBNEW (5.1.6-0)) date 2021-01-05 15:22:21*
%MOMM*%
%LPD*%
G01*
G04 APERTURE LIST*
%TA.AperFunction,NonConductor*%
%ADD10C,0.250000*%
%TD*%
%TA.AperFunction,ComponentPad*%
%ADD11C,1.600000*%
%TD*%
%TA.AperFunction,ComponentPad*%
%ADD12R,1.600000X1.600000*%
%TD*%
%TA.AperFunction,ComponentPad*%
%ADD13O,1.700000X1.700000*%
%TD*%
%TA.AperFunction,ComponentPad*%
%ADD14R,1.700000X1.700000*%
%TD*%
%TA.AperFunction,ComponentPad*%
%ADD15O,1.400000X1.400000*%
%TD*%
%TA.AperFunction,ComponentPad*%
%ADD16C,1.400000*%
%TD*%
%TA.AperFunction,ComponentPad*%
%ADD17R,3.500000X3.500000*%
%TD*%
%TA.AperFunction,ComponentPad*%
%ADD18O,2.400000X1.600000*%
%TD*%
%TA.AperFunction,ComponentPad*%
%ADD19R,2.400000X1.600000*%
%TD*%
%TA.AperFunction,ComponentPad*%
%ADD20O,1.600000X1.600000*%
%TD*%
%TA.AperFunction,ComponentPad*%
%ADD21C,1.700000*%
%TD*%
%TA.AperFunction,ComponentPad*%
%ADD22O,2.000000X1.905000*%
%TD*%
%TA.AperFunction,ComponentPad*%
%ADD23R,2.000000X1.905000*%
%TD*%
%TA.AperFunction,ComponentPad*%
%ADD24C,2.000000*%
%TD*%
%TA.AperFunction,ComponentPad*%
%ADD25C,1.800000*%
%TD*%
%TA.AperFunction,ComponentPad*%
%ADD26R,1.800000X1.800000*%
%TD*%
%TA.AperFunction,Conductor*%
%ADD27C,0.500000*%
%TD*%
%TA.AperFunction,Conductor*%
%ADD28C,0.600000*%
%TD*%
%TA.AperFunction,Conductor*%
%ADD29C,0.800000*%
%TD*%
%TA.AperFunction,Conductor*%
%ADD30C,0.254000*%
%TD*%
G04 APERTURE END LIST*
D10*
X34670952Y45648572D02*
X33909047Y45648572D01*
X34290000Y45267620D02*
X34290000Y46029524D01*
X46053333Y48807620D02*
X45434285Y48807620D01*
X45767619Y48426667D01*
X45624761Y48426667D01*
X45529523Y48379048D01*
X45481904Y48331429D01*
X45434285Y48236191D01*
X45434285Y47998096D01*
X45481904Y47902858D01*
X45529523Y47855239D01*
X45624761Y47807620D01*
X45910476Y47807620D01*
X46005714Y47855239D01*
X46053333Y47902858D01*
X45434285Y37647620D02*
X46005714Y37647620D01*
X45720000Y37647620D02*
X45720000Y38647620D01*
X45815238Y38504762D01*
X45910476Y38409524D01*
X46005714Y38361905D01*
X26931904Y40187620D02*
X26931904Y41187620D01*
X26693809Y41187620D01*
X26550952Y41140000D01*
X26455714Y41044762D01*
X26408095Y40949524D01*
X26360476Y40759048D01*
X26360476Y40616191D01*
X26408095Y40425715D01*
X26455714Y40330477D01*
X26550952Y40235239D01*
X26693809Y40187620D01*
X26931904Y40187620D01*
X29590952Y32948572D02*
X28829047Y32948572D01*
X29210000Y32567620D02*
X29210000Y33329524D01*
X41401904Y3040000D02*
X41497142Y3087620D01*
X41640000Y3087620D01*
X41782857Y3040000D01*
X41878095Y2944762D01*
X41925714Y2849524D01*
X41973333Y2659048D01*
X41973333Y2516191D01*
X41925714Y2325715D01*
X41878095Y2230477D01*
X41782857Y2135239D01*
X41640000Y2087620D01*
X41544761Y2087620D01*
X41401904Y2135239D01*
X41354285Y2182858D01*
X41354285Y2516191D01*
X41544761Y2516191D01*
X40925714Y2087620D02*
X40925714Y3087620D01*
X40354285Y2087620D01*
X40354285Y3087620D01*
X39878095Y2087620D02*
X39878095Y3087620D01*
X39640000Y3087620D01*
X39497142Y3040000D01*
X39401904Y2944762D01*
X39354285Y2849524D01*
X39306666Y2659048D01*
X39306666Y2516191D01*
X39354285Y2325715D01*
X39401904Y2230477D01*
X39497142Y2135239D01*
X39640000Y2087620D01*
X39878095Y2087620D01*
X31146666Y24201429D02*
X30813333Y24201429D01*
X30670476Y23677620D02*
X31146666Y23677620D01*
X31146666Y24677620D01*
X30670476Y24677620D01*
X30241904Y24344286D02*
X30241904Y23677620D01*
X30241904Y24249048D02*
X30194285Y24296667D01*
X30099047Y24344286D01*
X29956190Y24344286D01*
X29860952Y24296667D01*
X29813333Y24201429D01*
X29813333Y23677620D01*
X14954285Y38917620D02*
X15525714Y38917620D01*
X15240000Y38917620D02*
X15240000Y39917620D01*
X15335238Y39774762D01*
X15430476Y39679524D01*
X15525714Y39631905D01*
X4190952Y41838572D02*
X3429047Y41838572D01*
X3810000Y41457620D02*
X3810000Y42219524D01*
X55808571Y11493334D02*
X55856190Y11350477D01*
X55903809Y11302858D01*
X55999047Y11255239D01*
X56141904Y11255239D01*
X56237142Y11302858D01*
X56284761Y11350477D01*
X56332380Y11445715D01*
X56332380Y11826667D01*
X55332380Y11826667D01*
X55332380Y11493334D01*
X55380000Y11398096D01*
X55427619Y11350477D01*
X55522857Y11302858D01*
X55618095Y11302858D01*
X55713333Y11350477D01*
X55760952Y11398096D01*
X55808571Y11493334D01*
X55808571Y11826667D01*
X56332380Y10350477D02*
X56332380Y10826667D01*
X55332380Y10826667D01*
X56332380Y10017143D02*
X55332380Y10017143D01*
X55332380Y9779048D01*
X55380000Y9636191D01*
X55475238Y9540953D01*
X55570476Y9493334D01*
X55760952Y9445715D01*
X55903809Y9445715D01*
X56094285Y9493334D01*
X56189523Y9540953D01*
X56284761Y9636191D01*
X56332380Y9779048D01*
X56332380Y10017143D01*
X56237142Y8445715D02*
X56284761Y8493334D01*
X56332380Y8636191D01*
X56332380Y8731429D01*
X56284761Y8874286D01*
X56189523Y8969524D01*
X56094285Y9017143D01*
X55903809Y9064762D01*
X55760952Y9064762D01*
X55570476Y9017143D01*
X55475238Y8969524D01*
X55380000Y8874286D01*
X55332380Y8731429D01*
X55332380Y8636191D01*
X55380000Y8493334D01*
X55427619Y8445715D01*
D11*
X54610000Y45760000D03*
D12*
X54610000Y48260000D03*
D11*
X54610000Y41870000D03*
D12*
X54610000Y39370000D03*
D13*
X50800000Y20320000D03*
X53340000Y20320000D03*
D14*
X55880000Y20320000D03*
D15*
X30480000Y45720000D03*
D16*
X22860000Y45720000D03*
D15*
X29210000Y50800000D03*
D16*
X36830000Y50800000D03*
D11*
X7580000Y26670000D03*
X5080000Y26670000D03*
X5120000Y11430000D03*
X7620000Y11430000D03*
%TA.AperFunction,ComponentPad*%
G36*
G01*
X51740000Y34785000D02*
X51740000Y33035000D01*
G75*
G02*
X50865000Y32160000I-875000J0D01*
G01*
X49115000Y32160000D01*
G75*
G02*
X48240000Y33035000I0J875000D01*
G01*
X48240000Y34785000D01*
G75*
G02*
X49115000Y35660000I875000J0D01*
G01*
X50865000Y35660000D01*
G75*
G02*
X51740000Y34785000I0J-875000D01*
G01*
G37*
%TD.AperFunction*%
%TA.AperFunction,ComponentPad*%
G36*
G01*
X54490000Y30210000D02*
X54490000Y28210000D01*
G75*
G02*
X53740000Y27460000I-750000J0D01*
G01*
X52240000Y27460000D01*
G75*
G02*
X51490000Y28210000I0J750000D01*
G01*
X51490000Y30210000D01*
G75*
G02*
X52240000Y30960000I750000J0D01*
G01*
X53740000Y30960000D01*
G75*
G02*
X54490000Y30210000I0J-750000D01*
G01*
G37*
%TD.AperFunction*%
D17*
X46990000Y29210000D03*
D18*
X27940000Y6350000D03*
X40640000Y24130000D03*
X27940000Y8890000D03*
X40640000Y21590000D03*
X27940000Y11430000D03*
X40640000Y19050000D03*
X27940000Y13970000D03*
X40640000Y16510000D03*
X27940000Y16510000D03*
X40640000Y13970000D03*
X27940000Y19050000D03*
X40640000Y11430000D03*
X27940000Y21590000D03*
X40640000Y8890000D03*
X27940000Y24130000D03*
D19*
X40640000Y6350000D03*
D20*
X20320000Y39370000D03*
X12700000Y6350000D03*
X20320000Y36830000D03*
X12700000Y8890000D03*
X20320000Y34290000D03*
X12700000Y11430000D03*
X20320000Y31750000D03*
X12700000Y13970000D03*
X20320000Y29210000D03*
X12700000Y16510000D03*
X20320000Y26670000D03*
X12700000Y19050000D03*
X20320000Y24130000D03*
X12700000Y21590000D03*
X20320000Y21590000D03*
X12700000Y24130000D03*
X20320000Y19050000D03*
X12700000Y26670000D03*
X20320000Y16510000D03*
X12700000Y29210000D03*
X20320000Y13970000D03*
X12700000Y31750000D03*
X20320000Y11430000D03*
X12700000Y34290000D03*
X20320000Y8890000D03*
X12700000Y36830000D03*
X20320000Y6350000D03*
D12*
X12700000Y39370000D03*
D11*
X34600000Y31750000D03*
D12*
X38100000Y31750000D03*
D21*
X6350000Y16590000D03*
X6350000Y21590000D03*
D22*
X45720000Y45720000D03*
X45720000Y43180000D03*
D23*
X45720000Y40640000D03*
D24*
X19200000Y50800000D03*
X19200000Y46300000D03*
X12700000Y50800000D03*
X12700000Y46300000D03*
D13*
X26670000Y33020000D03*
X26670000Y35560000D03*
D14*
X26670000Y38100000D03*
D13*
X6350000Y41910000D03*
X6350000Y39370000D03*
X6350000Y36830000D03*
D14*
X6350000Y34290000D03*
D13*
X50800000Y6350000D03*
X50800000Y8890000D03*
X50800000Y11430000D03*
D14*
X50800000Y13970000D03*
D25*
X34290000Y43180000D03*
D26*
X36830000Y43180000D03*
D27*
X27940000Y11430000D02*
X27940000Y13970000D01*
X27940000Y13970000D02*
X27940000Y16510000D01*
X52070000Y39370000D02*
X54610000Y39370000D01*
X50800000Y40640000D02*
X52070000Y39370000D01*
X45720000Y40640000D02*
X50800000Y40640000D01*
D28*
X40640000Y24130000D02*
X43180000Y24130000D01*
X43180000Y24130000D02*
X46990000Y20320000D01*
X46990000Y20320000D02*
X50800000Y20320000D01*
X38100000Y31750000D02*
X38100000Y29210000D01*
X38100000Y29210000D02*
X40640000Y26670000D01*
X40640000Y26670000D02*
X40640000Y24130000D01*
X45720000Y40640000D02*
X44450000Y40640000D01*
X44450000Y40640000D02*
X38100000Y34290000D01*
X38100000Y34290000D02*
X38100000Y31750000D01*
D27*
X33020000Y26670000D02*
X30480000Y29210000D01*
D28*
X17780000Y24130000D02*
X20320000Y21590000D01*
X12700000Y24130000D02*
X17780000Y24130000D01*
X20320000Y21590000D02*
X20320000Y19050000D01*
X26670000Y33020000D02*
X26670000Y29210000D01*
X26670000Y29210000D02*
X22860000Y25400000D01*
X22860000Y25400000D02*
X22860000Y22860000D01*
X22860000Y22860000D02*
X21590000Y21590000D01*
X21590000Y21590000D02*
X20320000Y21590000D01*
X26670000Y29210000D02*
X30480000Y29210000D01*
X33020000Y26670000D02*
X33020000Y13970000D01*
X33020000Y13970000D02*
X38100000Y8890000D01*
X38100000Y8890000D02*
X40640000Y8890000D01*
X54610000Y48260000D02*
X50800000Y48260000D01*
X50800000Y48260000D02*
X48260000Y45720000D01*
X48260000Y45720000D02*
X45720000Y45720000D01*
X45720000Y45720000D02*
X43180000Y45720000D01*
X43180000Y45720000D02*
X38100000Y40640000D01*
X38100000Y40640000D02*
X34290000Y40640000D01*
X34290000Y43180000D02*
X33020000Y43180000D01*
X33020000Y43180000D02*
X30480000Y45720000D01*
X34290000Y43180000D02*
X34290000Y40640000D01*
X34290000Y40640000D02*
X26670000Y33020000D01*
X10160000Y27940000D02*
X10160000Y25400000D01*
X2540000Y30480000D02*
X7620000Y30480000D01*
X10160000Y25400000D02*
X11430000Y24130000D01*
X7620000Y30480000D02*
X10160000Y27940000D01*
X2540000Y38100000D02*
X2540000Y30480000D01*
X11430000Y24130000D02*
X12700000Y24130000D01*
X6350000Y41910000D02*
X2540000Y38100000D01*
D27*
X12620000Y16590000D02*
X12700000Y16510000D01*
D28*
X6350000Y16590000D02*
X5120000Y15360000D01*
X5120000Y11430000D02*
X5120000Y15360000D01*
X6430000Y16510000D02*
X6350000Y16590000D01*
X12700000Y16510000D02*
X6430000Y16510000D01*
X5080000Y22860000D02*
X6350000Y21590000D01*
X5080000Y26670000D02*
X5080000Y22860000D01*
X10160000Y21590000D02*
X12700000Y19050000D01*
X6350000Y21590000D02*
X10160000Y21590000D01*
X36830000Y50800000D02*
X36830000Y43180000D01*
X40640000Y11430000D02*
X45720000Y6350000D01*
X45720000Y6350000D02*
X50800000Y6350000D01*
X50800000Y8890000D02*
X45720000Y8890000D01*
X45720000Y8890000D02*
X40640000Y13970000D01*
X40640000Y16510000D02*
X45720000Y11430000D01*
X45720000Y11430000D02*
X50800000Y11430000D01*
X50800000Y13970000D02*
X45720000Y13970000D01*
X45720000Y13970000D02*
X40640000Y19050000D01*
X12700000Y34290000D02*
X6350000Y34290000D01*
X6350000Y36830000D02*
X12700000Y36830000D01*
X20320000Y34290000D02*
X24130000Y38100000D01*
X24130000Y38100000D02*
X26670000Y38100000D01*
D27*
X12700000Y46300000D02*
X19200000Y46300000D01*
D29*
X12700000Y46300000D02*
X12700000Y39370000D01*
D28*
X22280000Y46300000D02*
X22860000Y45720000D01*
X19200000Y46300000D02*
X22280000Y46300000D01*
X20320000Y16510000D02*
X27940000Y24130000D01*
X27940000Y21590000D02*
X20320000Y13970000D01*
X20320000Y11430000D02*
X27940000Y19050000D01*
X20320000Y8890000D02*
X27940000Y8890000D01*
X27940000Y6350000D02*
X20320000Y6350000D01*
X53340000Y20320000D02*
X53340000Y21590000D01*
X53340000Y21590000D02*
X52070000Y22860000D01*
X52070000Y22860000D02*
X49530000Y22860000D01*
X49530000Y22860000D02*
X46990000Y25400000D01*
X46990000Y25400000D02*
X46990000Y29210000D01*
D30*
G36*
X59563000Y127000D02*
G01*
X127000Y127000D01*
X127000Y3657500D01*
X38656191Y3657500D01*
X38656191Y1237500D01*
X42623810Y1237500D01*
X42623810Y3657500D01*
X38656191Y3657500D01*
X127000Y3657500D01*
X127000Y6461788D01*
X11565000Y6461788D01*
X11565000Y6238212D01*
X11608617Y6018933D01*
X11694176Y5812376D01*
X11818388Y5626480D01*
X11976480Y5468388D01*
X12162376Y5344176D01*
X12368933Y5258617D01*
X12588212Y5215000D01*
X12811788Y5215000D01*
X13031067Y5258617D01*
X13237624Y5344176D01*
X13423520Y5468388D01*
X13581612Y5626480D01*
X13705824Y5812376D01*
X13791383Y6018933D01*
X13835000Y6238212D01*
X13835000Y6461788D01*
X19185000Y6461788D01*
X19185000Y6238212D01*
X19228617Y6018933D01*
X19314176Y5812376D01*
X19438388Y5626480D01*
X19596480Y5468388D01*
X19782376Y5344176D01*
X19988933Y5258617D01*
X20208212Y5215000D01*
X20431788Y5215000D01*
X20651067Y5258617D01*
X20857624Y5344176D01*
X21043520Y5468388D01*
X21201612Y5626480D01*
X21260759Y5715000D01*
X26592846Y5715000D01*
X26733551Y5543551D01*
X26906377Y5401716D01*
X27103553Y5296324D01*
X27317501Y5231423D01*
X27484248Y5215000D01*
X28395752Y5215000D01*
X28562499Y5231423D01*
X28776447Y5296324D01*
X28973623Y5401716D01*
X29146449Y5543551D01*
X29151741Y5550000D01*
X38801928Y5550000D01*
X38814188Y5425518D01*
X38850498Y5305820D01*
X38909463Y5195506D01*
X38988815Y5098815D01*
X39085506Y5019463D01*
X39195820Y4960498D01*
X39315518Y4924188D01*
X39440000Y4911928D01*
X40354250Y4915000D01*
X40513000Y5073750D01*
X40513000Y6223000D01*
X40767000Y6223000D01*
X40767000Y5073750D01*
X40925750Y4915000D01*
X41840000Y4911928D01*
X41964482Y4924188D01*
X42084180Y4960498D01*
X42194494Y5019463D01*
X42291185Y5098815D01*
X42370537Y5195506D01*
X42429502Y5305820D01*
X42465812Y5425518D01*
X42478072Y5550000D01*
X42475000Y6064250D01*
X42316250Y6223000D01*
X40767000Y6223000D01*
X40513000Y6223000D01*
X38963750Y6223000D01*
X38805000Y6064250D01*
X38801928Y5550000D01*
X29151741Y5550000D01*
X29288284Y5716377D01*
X29393676Y5913553D01*
X29458577Y6127501D01*
X29480491Y6350000D01*
X29458577Y6572499D01*
X29393676Y6786447D01*
X29288284Y6983623D01*
X29146449Y7156449D01*
X28973623Y7298284D01*
X28776447Y7403676D01*
X28562499Y7468577D01*
X28395752Y7485000D01*
X27484248Y7485000D01*
X27317501Y7468577D01*
X27103553Y7403676D01*
X26906377Y7298284D01*
X26733551Y7156449D01*
X26592846Y6985000D01*
X21260759Y6985000D01*
X21201612Y7073520D01*
X21043520Y7231612D01*
X20857624Y7355824D01*
X20651067Y7441383D01*
X20431788Y7485000D01*
X20208212Y7485000D01*
X19988933Y7441383D01*
X19782376Y7355824D01*
X19596480Y7231612D01*
X19438388Y7073520D01*
X19314176Y6887624D01*
X19228617Y6681067D01*
X19185000Y6461788D01*
X13835000Y6461788D01*
X13791383Y6681067D01*
X13705824Y6887624D01*
X13581612Y7073520D01*
X13423520Y7231612D01*
X13237624Y7355824D01*
X13031067Y7441383D01*
X12811788Y7485000D01*
X12588212Y7485000D01*
X12368933Y7441383D01*
X12162376Y7355824D01*
X11976480Y7231612D01*
X11818388Y7073520D01*
X11694176Y6887624D01*
X11608617Y6681067D01*
X11565000Y6461788D01*
X127000Y6461788D01*
X127000Y9001788D01*
X11565000Y9001788D01*
X11565000Y8778212D01*
X11608617Y8558933D01*
X11694176Y8352376D01*
X11818388Y8166480D01*
X11976480Y8008388D01*
X12162376Y7884176D01*
X12368933Y7798617D01*
X12588212Y7755000D01*
X12811788Y7755000D01*
X13031067Y7798617D01*
X13237624Y7884176D01*
X13423520Y8008388D01*
X13581612Y8166480D01*
X13705824Y8352376D01*
X13791383Y8558933D01*
X13835000Y8778212D01*
X13835000Y9001788D01*
X19185000Y9001788D01*
X19185000Y8778212D01*
X19228617Y8558933D01*
X19314176Y8352376D01*
X19438388Y8166480D01*
X19596480Y8008388D01*
X19782376Y7884176D01*
X19988933Y7798617D01*
X20208212Y7755000D01*
X20431788Y7755000D01*
X20651067Y7798617D01*
X20857624Y7884176D01*
X21043520Y8008388D01*
X21201612Y8166480D01*
X21260759Y8255000D01*
X26592846Y8255000D01*
X26733551Y8083551D01*
X26906377Y7941716D01*
X27103553Y7836324D01*
X27317501Y7771423D01*
X27484248Y7755000D01*
X28395752Y7755000D01*
X28562499Y7771423D01*
X28776447Y7836324D01*
X28973623Y7941716D01*
X29146449Y8083551D01*
X29288284Y8256377D01*
X29393676Y8453553D01*
X29458577Y8667501D01*
X29480491Y8890000D01*
X29458577Y9112499D01*
X29393676Y9326447D01*
X29288284Y9523623D01*
X29146449Y9696449D01*
X28973623Y9838284D01*
X28776447Y9943676D01*
X28562499Y10008577D01*
X28547043Y10010099D01*
X28744514Y10047350D01*
X29006483Y10152834D01*
X29242839Y10307399D01*
X29444500Y10505105D01*
X29603715Y10738354D01*
X29714367Y10998182D01*
X29731904Y11080961D01*
X29609915Y11303000D01*
X28067000Y11303000D01*
X28067000Y11283000D01*
X27813000Y11283000D01*
X27813000Y11303000D01*
X26270085Y11303000D01*
X26148096Y11080961D01*
X26165633Y10998182D01*
X26276285Y10738354D01*
X26435500Y10505105D01*
X26637161Y10307399D01*
X26873517Y10152834D01*
X27135486Y10047350D01*
X27332957Y10010099D01*
X27317501Y10008577D01*
X27103553Y9943676D01*
X26906377Y9838284D01*
X26733551Y9696449D01*
X26592846Y9525000D01*
X21260759Y9525000D01*
X21201612Y9613520D01*
X21043520Y9771612D01*
X20857624Y9895824D01*
X20651067Y9981383D01*
X20431788Y10025000D01*
X20208212Y10025000D01*
X19988933Y9981383D01*
X19782376Y9895824D01*
X19596480Y9771612D01*
X19438388Y9613520D01*
X19314176Y9427624D01*
X19228617Y9221067D01*
X19185000Y9001788D01*
X13835000Y9001788D01*
X13791383Y9221067D01*
X13705824Y9427624D01*
X13581612Y9613520D01*
X13423520Y9771612D01*
X13237624Y9895824D01*
X13031067Y9981383D01*
X12811788Y10025000D01*
X12588212Y10025000D01*
X12368933Y9981383D01*
X12162376Y9895824D01*
X11976480Y9771612D01*
X11818388Y9613520D01*
X11694176Y9427624D01*
X11608617Y9221067D01*
X11565000Y9001788D01*
X127000Y9001788D01*
X127000Y11541788D01*
X3985000Y11541788D01*
X3985000Y11318212D01*
X4028617Y11098933D01*
X4114176Y10892376D01*
X4238388Y10706480D01*
X4396480Y10548388D01*
X4582376Y10424176D01*
X4788933Y10338617D01*
X5008212Y10295000D01*
X5231788Y10295000D01*
X5451067Y10338617D01*
X5657624Y10424176D01*
X5677262Y10437298D01*
X6806903Y10437298D01*
X6878486Y10193329D01*
X7133996Y10072429D01*
X7408184Y10003700D01*
X7690512Y9989783D01*
X7970130Y10031213D01*
X8236292Y10126397D01*
X8361514Y10193329D01*
X8433097Y10437298D01*
X7620000Y11250395D01*
X6806903Y10437298D01*
X5677262Y10437298D01*
X5843520Y10548388D01*
X6001612Y10706480D01*
X6125824Y10892376D01*
X6211383Y11098933D01*
X6215398Y11119117D01*
X6221213Y11079870D01*
X6316397Y10813708D01*
X6383329Y10688486D01*
X6627298Y10616903D01*
X7440395Y11430000D01*
X7799605Y11430000D01*
X8612702Y10616903D01*
X8856671Y10688486D01*
X8977571Y10943996D01*
X9046300Y11218184D01*
X9060217Y11500512D01*
X9054102Y11541788D01*
X11565000Y11541788D01*
X11565000Y11318212D01*
X11608617Y11098933D01*
X11694176Y10892376D01*
X11818388Y10706480D01*
X11976480Y10548388D01*
X12162376Y10424176D01*
X12368933Y10338617D01*
X12588212Y10295000D01*
X12811788Y10295000D01*
X13031067Y10338617D01*
X13237624Y10424176D01*
X13423520Y10548388D01*
X13581612Y10706480D01*
X13705824Y10892376D01*
X13791383Y11098933D01*
X13835000Y11318212D01*
X13835000Y11541788D01*
X13791383Y11761067D01*
X13705824Y11967624D01*
X13581612Y12153520D01*
X13423520Y12311612D01*
X13237624Y12435824D01*
X13031067Y12521383D01*
X12811788Y12565000D01*
X12588212Y12565000D01*
X12368933Y12521383D01*
X12162376Y12435824D01*
X11976480Y12311612D01*
X11818388Y12153520D01*
X11694176Y11967624D01*
X11608617Y11761067D01*
X11565000Y11541788D01*
X9054102Y11541788D01*
X9018787Y11780130D01*
X8923603Y12046292D01*
X8856671Y12171514D01*
X8612702Y12243097D01*
X7799605Y11430000D01*
X7440395Y11430000D01*
X6627298Y12243097D01*
X6383329Y12171514D01*
X6262429Y11916004D01*
X6216785Y11733910D01*
X6211383Y11761067D01*
X6125824Y11967624D01*
X6001612Y12153520D01*
X5843520Y12311612D01*
X5755000Y12370759D01*
X5755000Y12422702D01*
X6806903Y12422702D01*
X7620000Y11609605D01*
X8433097Y12422702D01*
X8361514Y12666671D01*
X8106004Y12787571D01*
X7831816Y12856300D01*
X7549488Y12870217D01*
X7269870Y12828787D01*
X7003708Y12733603D01*
X6878486Y12666671D01*
X6806903Y12422702D01*
X5755000Y12422702D01*
X5755000Y14081788D01*
X11565000Y14081788D01*
X11565000Y13858212D01*
X11608617Y13638933D01*
X11694176Y13432376D01*
X11818388Y13246480D01*
X11976480Y13088388D01*
X12162376Y12964176D01*
X12368933Y12878617D01*
X12588212Y12835000D01*
X12811788Y12835000D01*
X13031067Y12878617D01*
X13237624Y12964176D01*
X13423520Y13088388D01*
X13581612Y13246480D01*
X13705824Y13432376D01*
X13791383Y13638933D01*
X13835000Y13858212D01*
X13835000Y14081788D01*
X13791383Y14301067D01*
X13705824Y14507624D01*
X13581612Y14693520D01*
X13423520Y14851612D01*
X13237624Y14975824D01*
X13031067Y15061383D01*
X12811788Y15105000D01*
X12588212Y15105000D01*
X12368933Y15061383D01*
X12162376Y14975824D01*
X11976480Y14851612D01*
X11818388Y14693520D01*
X11694176Y14507624D01*
X11608617Y14301067D01*
X11565000Y14081788D01*
X5755000Y14081788D01*
X5755000Y15096976D01*
X6091273Y15433248D01*
X6233288Y15405000D01*
X6466712Y15405000D01*
X6695652Y15450539D01*
X6911308Y15539866D01*
X7105394Y15669550D01*
X7270450Y15834606D01*
X7297440Y15875000D01*
X11759241Y15875000D01*
X11818388Y15786480D01*
X11976480Y15628388D01*
X12162376Y15504176D01*
X12368933Y15418617D01*
X12588212Y15375000D01*
X12811788Y15375000D01*
X13031067Y15418617D01*
X13237624Y15504176D01*
X13423520Y15628388D01*
X13581612Y15786480D01*
X13705824Y15972376D01*
X13791383Y16178933D01*
X13835000Y16398212D01*
X13835000Y16621788D01*
X19185000Y16621788D01*
X19185000Y16398212D01*
X19228617Y16178933D01*
X19314176Y15972376D01*
X19438388Y15786480D01*
X19596480Y15628388D01*
X19782376Y15504176D01*
X19988933Y15418617D01*
X20208212Y15375000D01*
X20431788Y15375000D01*
X20651067Y15418617D01*
X20857624Y15504176D01*
X21043520Y15628388D01*
X21201612Y15786480D01*
X21325824Y15972376D01*
X21411383Y16178933D01*
X21455000Y16398212D01*
X21455000Y16621788D01*
X21434230Y16726206D01*
X26410596Y21702571D01*
X26399509Y21590000D01*
X26421423Y21367501D01*
X26486324Y21153553D01*
X26527846Y21075871D01*
X20536206Y15084230D01*
X20431788Y15105000D01*
X20208212Y15105000D01*
X19988933Y15061383D01*
X19782376Y14975824D01*
X19596480Y14851612D01*
X19438388Y14693520D01*
X19314176Y14507624D01*
X19228617Y14301067D01*
X19185000Y14081788D01*
X19185000Y13858212D01*
X19228617Y13638933D01*
X19314176Y13432376D01*
X19438388Y13246480D01*
X19596480Y13088388D01*
X19782376Y12964176D01*
X19988933Y12878617D01*
X20208212Y12835000D01*
X20431788Y12835000D01*
X20651067Y12878617D01*
X20857624Y12964176D01*
X21043520Y13088388D01*
X21201612Y13246480D01*
X21325824Y13432376D01*
X21411383Y13638933D01*
X21455000Y13858212D01*
X21455000Y14081788D01*
X21434230Y14186206D01*
X26410596Y19162571D01*
X26399509Y19050000D01*
X26421423Y18827501D01*
X26486324Y18613553D01*
X26527846Y18535871D01*
X20536206Y12544230D01*
X20431788Y12565000D01*
X20208212Y12565000D01*
X19988933Y12521383D01*
X19782376Y12435824D01*
X19596480Y12311612D01*
X19438388Y12153520D01*
X19314176Y11967624D01*
X19228617Y11761067D01*
X19185000Y11541788D01*
X19185000Y11318212D01*
X19228617Y11098933D01*
X19314176Y10892376D01*
X19438388Y10706480D01*
X19596480Y10548388D01*
X19782376Y10424176D01*
X19988933Y10338617D01*
X20208212Y10295000D01*
X20431788Y10295000D01*
X20651067Y10338617D01*
X20857624Y10424176D01*
X21043520Y10548388D01*
X21201612Y10706480D01*
X21325824Y10892376D01*
X21411383Y11098933D01*
X21455000Y11318212D01*
X21455000Y11541788D01*
X21434230Y11646206D01*
X23408985Y13620961D01*
X26148096Y13620961D01*
X26165633Y13538182D01*
X26276285Y13278354D01*
X26435500Y13045105D01*
X26637161Y12847399D01*
X26862559Y12700000D01*
X26637161Y12552601D01*
X26435500Y12354895D01*
X26276285Y12121646D01*
X26165633Y11861818D01*
X26148096Y11779039D01*
X26270085Y11557000D01*
X27813000Y11557000D01*
X27813000Y13843000D01*
X28067000Y13843000D01*
X28067000Y11557000D01*
X29609915Y11557000D01*
X29731904Y11779039D01*
X29714367Y11861818D01*
X29603715Y12121646D01*
X29444500Y12354895D01*
X29242839Y12552601D01*
X29017441Y12700000D01*
X29242839Y12847399D01*
X29444500Y13045105D01*
X29603715Y13278354D01*
X29714367Y13538182D01*
X29731904Y13620961D01*
X29609915Y13843000D01*
X28067000Y13843000D01*
X27813000Y13843000D01*
X26270085Y13843000D01*
X26148096Y13620961D01*
X23408985Y13620961D01*
X26171023Y16382998D01*
X26270084Y16382998D01*
X26148096Y16160961D01*
X26165633Y16078182D01*
X26276285Y15818354D01*
X26435500Y15585105D01*
X26637161Y15387399D01*
X26862559Y15240000D01*
X26637161Y15092601D01*
X26435500Y14894895D01*
X26276285Y14661646D01*
X26165633Y14401818D01*
X26148096Y14319039D01*
X26270085Y14097000D01*
X27813000Y14097000D01*
X27813000Y16383000D01*
X28067000Y16383000D01*
X28067000Y14097000D01*
X29609915Y14097000D01*
X29731904Y14319039D01*
X29714367Y14401818D01*
X29603715Y14661646D01*
X29444500Y14894895D01*
X29242839Y15092601D01*
X29017441Y15240000D01*
X29242839Y15387399D01*
X29444500Y15585105D01*
X29603715Y15818354D01*
X29714367Y16078182D01*
X29731904Y16160961D01*
X29609915Y16383000D01*
X28067000Y16383000D01*
X27813000Y16383000D01*
X27793000Y16383000D01*
X27793000Y16637000D01*
X27813000Y16637000D01*
X27813000Y16657000D01*
X28067000Y16657000D01*
X28067000Y16637000D01*
X29609915Y16637000D01*
X29731904Y16859039D01*
X29714367Y16941818D01*
X29603715Y17201646D01*
X29444500Y17434895D01*
X29242839Y17632601D01*
X29006483Y17787166D01*
X28744514Y17892650D01*
X28547043Y17929901D01*
X28562499Y17931423D01*
X28776447Y17996324D01*
X28973623Y18101716D01*
X29146449Y18243551D01*
X29288284Y18416377D01*
X29393676Y18613553D01*
X29458577Y18827501D01*
X29480491Y19050000D01*
X29458577Y19272499D01*
X29393676Y19486447D01*
X29288284Y19683623D01*
X29146449Y19856449D01*
X28973623Y19998284D01*
X28776447Y20103676D01*
X28562499Y20168577D01*
X28395752Y20185000D01*
X27484248Y20185000D01*
X27427429Y20179404D01*
X27703025Y20455000D01*
X28395752Y20455000D01*
X28562499Y20471423D01*
X28776447Y20536324D01*
X28973623Y20641716D01*
X29146449Y20783551D01*
X29288284Y20956377D01*
X29393676Y21153553D01*
X29458577Y21367501D01*
X29480491Y21590000D01*
X29458577Y21812499D01*
X29393676Y22026447D01*
X29288284Y22223623D01*
X29146449Y22396449D01*
X28973623Y22538284D01*
X28776447Y22643676D01*
X28562499Y22708577D01*
X28395752Y22725000D01*
X27484248Y22725000D01*
X27427429Y22719404D01*
X27703025Y22995000D01*
X28395752Y22995000D01*
X28562499Y23011423D01*
X28776447Y23076324D01*
X28973623Y23181716D01*
X29115238Y23297937D01*
X29115238Y22827500D01*
X31844762Y22827500D01*
X31844762Y25247500D01*
X29115238Y25247500D01*
X29115238Y24962063D01*
X28973623Y25078284D01*
X28776447Y25183676D01*
X28562499Y25248577D01*
X28395752Y25265000D01*
X27484248Y25265000D01*
X27317501Y25248577D01*
X27103553Y25183676D01*
X26906377Y25078284D01*
X26733551Y24936449D01*
X26591716Y24763623D01*
X26486324Y24566447D01*
X26421423Y24352499D01*
X26399509Y24130000D01*
X26421423Y23907501D01*
X26486324Y23693553D01*
X26527846Y23615871D01*
X20536206Y17624230D01*
X20431788Y17645000D01*
X20208212Y17645000D01*
X19988933Y17601383D01*
X19782376Y17515824D01*
X19596480Y17391612D01*
X19438388Y17233520D01*
X19314176Y17047624D01*
X19228617Y16841067D01*
X19185000Y16621788D01*
X13835000Y16621788D01*
X13791383Y16841067D01*
X13705824Y17047624D01*
X13581612Y17233520D01*
X13423520Y17391612D01*
X13237624Y17515824D01*
X13031067Y17601383D01*
X12811788Y17645000D01*
X12588212Y17645000D01*
X12368933Y17601383D01*
X12162376Y17515824D01*
X11976480Y17391612D01*
X11818388Y17233520D01*
X11759241Y17145000D01*
X7402747Y17145000D01*
X7400134Y17151308D01*
X7270450Y17345394D01*
X7105394Y17510450D01*
X6911308Y17640134D01*
X6695652Y17729461D01*
X6466712Y17775000D01*
X6233288Y17775000D01*
X6004348Y17729461D01*
X5788692Y17640134D01*
X5594606Y17510450D01*
X5429550Y17345394D01*
X5299866Y17151308D01*
X5210539Y16935652D01*
X5165000Y16706712D01*
X5165000Y16473288D01*
X5193248Y16331273D01*
X4693046Y15831070D01*
X4668816Y15811185D01*
X4648932Y15786956D01*
X4589463Y15714493D01*
X4530498Y15604179D01*
X4494189Y15484481D01*
X4481929Y15360000D01*
X4485001Y15328809D01*
X4485000Y12370759D01*
X4396480Y12311612D01*
X4238388Y12153520D01*
X4114176Y11967624D01*
X4028617Y11761067D01*
X3985000Y11541788D01*
X127000Y11541788D01*
X127000Y26781788D01*
X3945000Y26781788D01*
X3945000Y26558212D01*
X3988617Y26338933D01*
X4074176Y26132376D01*
X4198388Y25946480D01*
X4356480Y25788388D01*
X4445000Y25729241D01*
X4445001Y22891191D01*
X4441929Y22860000D01*
X4445001Y22828809D01*
X4445001Y22828808D01*
X4454189Y22735518D01*
X4465203Y22699209D01*
X4490498Y22615821D01*
X4544445Y22514895D01*
X4549464Y22505506D01*
X4628816Y22408815D01*
X4653044Y22388932D01*
X5193249Y21848727D01*
X5165000Y21706712D01*
X5165000Y21473288D01*
X5210539Y21244348D01*
X5299866Y21028692D01*
X5429550Y20834606D01*
X5594606Y20669550D01*
X5788692Y20539866D01*
X6004348Y20450539D01*
X6233288Y20405000D01*
X6466712Y20405000D01*
X6695652Y20450539D01*
X6911308Y20539866D01*
X7105394Y20669550D01*
X7270450Y20834606D01*
X7350895Y20955000D01*
X9896976Y20955000D01*
X11585770Y19266205D01*
X11565000Y19161788D01*
X11565000Y18938212D01*
X11608617Y18718933D01*
X11694176Y18512376D01*
X11818388Y18326480D01*
X11976480Y18168388D01*
X12162376Y18044176D01*
X12368933Y17958617D01*
X12588212Y17915000D01*
X12811788Y17915000D01*
X13031067Y17958617D01*
X13237624Y18044176D01*
X13423520Y18168388D01*
X13581612Y18326480D01*
X13705824Y18512376D01*
X13791383Y18718933D01*
X13835000Y18938212D01*
X13835000Y19161788D01*
X13791383Y19381067D01*
X13705824Y19587624D01*
X13581612Y19773520D01*
X13423520Y19931612D01*
X13237624Y20055824D01*
X13031067Y20141383D01*
X12827002Y20181974D01*
X12827002Y20319375D01*
X13049040Y20198091D01*
X13313881Y20292930D01*
X13555131Y20437615D01*
X13763519Y20626586D01*
X13931037Y20852580D01*
X14051246Y21106913D01*
X14091904Y21240961D01*
X13969915Y21463000D01*
X12827000Y21463000D01*
X12827000Y21443000D01*
X12573000Y21443000D01*
X12573000Y21463000D01*
X11430085Y21463000D01*
X11343189Y21304836D01*
X10631074Y22016950D01*
X10611185Y22041185D01*
X10514494Y22120537D01*
X10404180Y22179502D01*
X10284482Y22215812D01*
X10191192Y22225000D01*
X10191181Y22225000D01*
X10160000Y22228071D01*
X10128819Y22225000D01*
X7350895Y22225000D01*
X7270450Y22345394D01*
X7105394Y22510450D01*
X6911308Y22640134D01*
X6695652Y22729461D01*
X6466712Y22775000D01*
X6233288Y22775000D01*
X6091273Y22746751D01*
X5715000Y23123024D01*
X5715000Y25677298D01*
X6766903Y25677298D01*
X6838486Y25433329D01*
X7093996Y25312429D01*
X7368184Y25243700D01*
X7650512Y25229783D01*
X7930130Y25271213D01*
X8196292Y25366397D01*
X8321514Y25433329D01*
X8393097Y25677298D01*
X7580000Y26490395D01*
X6766903Y25677298D01*
X5715000Y25677298D01*
X5715000Y25729241D01*
X5803520Y25788388D01*
X5961612Y25946480D01*
X6085824Y26132376D01*
X6171383Y26338933D01*
X6175398Y26359117D01*
X6181213Y26319870D01*
X6276397Y26053708D01*
X6343329Y25928486D01*
X6587298Y25856903D01*
X7400395Y26670000D01*
X7759605Y26670000D01*
X8572702Y25856903D01*
X8816671Y25928486D01*
X8937571Y26183996D01*
X9006300Y26458184D01*
X9020217Y26740512D01*
X8978787Y27020130D01*
X8883603Y27286292D01*
X8816671Y27411514D01*
X8572702Y27483097D01*
X7759605Y26670000D01*
X7400395Y26670000D01*
X6587298Y27483097D01*
X6343329Y27411514D01*
X6222429Y27156004D01*
X6176785Y26973910D01*
X6171383Y27001067D01*
X6085824Y27207624D01*
X5961612Y27393520D01*
X5803520Y27551612D01*
X5637263Y27662702D01*
X6766903Y27662702D01*
X7580000Y26849605D01*
X8393097Y27662702D01*
X8321514Y27906671D01*
X8066004Y28027571D01*
X7791816Y28096300D01*
X7509488Y28110217D01*
X7229870Y28068787D01*
X6963708Y27973603D01*
X6838486Y27906671D01*
X6766903Y27662702D01*
X5637263Y27662702D01*
X5617624Y27675824D01*
X5411067Y27761383D01*
X5191788Y27805000D01*
X4968212Y27805000D01*
X4748933Y27761383D01*
X4542376Y27675824D01*
X4356480Y27551612D01*
X4198388Y27393520D01*
X4074176Y27207624D01*
X3988617Y27001067D01*
X3945000Y26781788D01*
X127000Y26781788D01*
X127000Y30480000D01*
X1901928Y30480000D01*
X1914188Y30355518D01*
X1950498Y30235820D01*
X2009463Y30125506D01*
X2088815Y30028815D01*
X2185506Y29949463D01*
X2295820Y29890498D01*
X2415518Y29854188D01*
X2508808Y29845000D01*
X2508809Y29845000D01*
X2540000Y29841928D01*
X2571192Y29845000D01*
X7356976Y29845000D01*
X9525000Y27676974D01*
X9525001Y25431192D01*
X9521929Y25400000D01*
X9525001Y25368809D01*
X9525001Y25368808D01*
X9534189Y25275518D01*
X9542688Y25247500D01*
X9570498Y25155821D01*
X9629463Y25045507D01*
X9629464Y25045506D01*
X9708816Y24948815D01*
X9733044Y24928932D01*
X10958930Y23703045D01*
X10978815Y23678815D01*
X11003043Y23658932D01*
X11075505Y23599463D01*
X11185820Y23540498D01*
X11305518Y23504188D01*
X11398808Y23495000D01*
X11398818Y23495000D01*
X11429999Y23491929D01*
X11461180Y23495000D01*
X11759241Y23495000D01*
X11818388Y23406480D01*
X11976480Y23248388D01*
X12162376Y23124176D01*
X12368933Y23038617D01*
X12572998Y22998026D01*
X12572998Y22860625D01*
X12350960Y22981909D01*
X12086119Y22887070D01*
X11844869Y22742385D01*
X11636481Y22553414D01*
X11468963Y22327420D01*
X11348754Y22073087D01*
X11308096Y21939039D01*
X11430085Y21717000D01*
X12573000Y21717000D01*
X12573000Y21737000D01*
X12827000Y21737000D01*
X12827000Y21717000D01*
X13969915Y21717000D01*
X14091904Y21939039D01*
X14051246Y22073087D01*
X13931037Y22327420D01*
X13763519Y22553414D01*
X13555131Y22742385D01*
X13313881Y22887070D01*
X13049040Y22981909D01*
X12827002Y22860625D01*
X12827002Y22998026D01*
X13031067Y23038617D01*
X13237624Y23124176D01*
X13423520Y23248388D01*
X13581612Y23406480D01*
X13640759Y23495000D01*
X17516976Y23495000D01*
X19205770Y21806205D01*
X19185000Y21701788D01*
X19185000Y21478212D01*
X19228617Y21258933D01*
X19314176Y21052376D01*
X19438388Y20866480D01*
X19596480Y20708388D01*
X19685000Y20649240D01*
X19685001Y19990760D01*
X19596480Y19931612D01*
X19438388Y19773520D01*
X19314176Y19587624D01*
X19228617Y19381067D01*
X19185000Y19161788D01*
X19185000Y18938212D01*
X19228617Y18718933D01*
X19314176Y18512376D01*
X19438388Y18326480D01*
X19596480Y18168388D01*
X19782376Y18044176D01*
X19988933Y17958617D01*
X20208212Y17915000D01*
X20431788Y17915000D01*
X20651067Y17958617D01*
X20857624Y18044176D01*
X21043520Y18168388D01*
X21201612Y18326480D01*
X21325824Y18512376D01*
X21411383Y18718933D01*
X21455000Y18938212D01*
X21455000Y19161788D01*
X21411383Y19381067D01*
X21325824Y19587624D01*
X21201612Y19773520D01*
X21043520Y19931612D01*
X20955000Y19990759D01*
X20955000Y20649241D01*
X21043520Y20708388D01*
X21201612Y20866480D01*
X21260759Y20955000D01*
X21558819Y20955000D01*
X21590000Y20951929D01*
X21621181Y20955000D01*
X21621192Y20955000D01*
X21714482Y20964188D01*
X21834180Y21000498D01*
X21944494Y21059463D01*
X22041185Y21138815D01*
X22061074Y21163050D01*
X23286957Y22388932D01*
X23311185Y22408815D01*
X23362721Y22471612D01*
X23390537Y22505505D01*
X23449502Y22615820D01*
X23449502Y22615821D01*
X23485812Y22735518D01*
X23495000Y22828808D01*
X23495000Y22828818D01*
X23498071Y22859999D01*
X23495000Y22891180D01*
X23495000Y25136976D01*
X26933026Y28575000D01*
X30287686Y28575000D01*
X32385000Y26477685D01*
X32385001Y14001191D01*
X32381929Y13970000D01*
X32394189Y13845519D01*
X32430498Y13725821D01*
X32486548Y13620961D01*
X32489464Y13615506D01*
X32568816Y13518815D01*
X32593044Y13498932D01*
X37628930Y8463045D01*
X37648815Y8438815D01*
X37673043Y8418932D01*
X37745506Y8359462D01*
X37855820Y8300498D01*
X37975518Y8264188D01*
X38068808Y8255000D01*
X38068811Y8255000D01*
X38100000Y8251928D01*
X38131189Y8255000D01*
X39292846Y8255000D01*
X39433551Y8083551D01*
X39606377Y7941716D01*
X39803553Y7836324D01*
X39968471Y7786296D01*
X39440000Y7788072D01*
X39315518Y7775812D01*
X39195820Y7739502D01*
X39085506Y7680537D01*
X38988815Y7601185D01*
X38909463Y7504494D01*
X38850498Y7394180D01*
X38814188Y7274482D01*
X38801928Y7150000D01*
X38805000Y6635750D01*
X38963750Y6477000D01*
X40513000Y6477000D01*
X40513000Y6497000D01*
X40767000Y6497000D01*
X40767000Y6477000D01*
X42316250Y6477000D01*
X42475000Y6635750D01*
X42478072Y7150000D01*
X42465812Y7274482D01*
X42429502Y7394180D01*
X42370537Y7504494D01*
X42291185Y7601185D01*
X42194494Y7680537D01*
X42084180Y7739502D01*
X41964482Y7775812D01*
X41840000Y7788072D01*
X41311529Y7786296D01*
X41476447Y7836324D01*
X41673623Y7941716D01*
X41846449Y8083551D01*
X41988284Y8256377D01*
X42093676Y8453553D01*
X42158577Y8667501D01*
X42180491Y8890000D01*
X42169404Y9002572D01*
X45248930Y5923045D01*
X45268815Y5898815D01*
X45293043Y5878932D01*
X45365506Y5819462D01*
X45475820Y5760498D01*
X45595518Y5724188D01*
X45688808Y5715000D01*
X45688811Y5715000D01*
X45720000Y5711928D01*
X45751189Y5715000D01*
X49799105Y5715000D01*
X49879550Y5594606D01*
X50044606Y5429550D01*
X50238692Y5299866D01*
X50454348Y5210539D01*
X50683288Y5165000D01*
X50916712Y5165000D01*
X51145652Y5210539D01*
X51361308Y5299866D01*
X51555394Y5429550D01*
X51720450Y5594606D01*
X51850134Y5788692D01*
X51939461Y6004348D01*
X51985000Y6233288D01*
X51985000Y6466712D01*
X51939461Y6695652D01*
X51850134Y6911308D01*
X51720450Y7105394D01*
X51555394Y7270450D01*
X51361308Y7400134D01*
X51145652Y7489461D01*
X50916712Y7535000D01*
X50683288Y7535000D01*
X50454348Y7489461D01*
X50238692Y7400134D01*
X50044606Y7270450D01*
X49879550Y7105394D01*
X49799105Y6985000D01*
X45983025Y6985000D01*
X42052154Y10915870D01*
X42093676Y10993553D01*
X42158577Y11207501D01*
X42180491Y11430000D01*
X42169404Y11542572D01*
X45248930Y8463045D01*
X45268815Y8438815D01*
X45293043Y8418932D01*
X45365506Y8359462D01*
X45475820Y8300498D01*
X45595518Y8264188D01*
X45688808Y8255000D01*
X45688811Y8255000D01*
X45720000Y8251928D01*
X45751189Y8255000D01*
X49799105Y8255000D01*
X49879550Y8134606D01*
X50044606Y7969550D01*
X50238692Y7839866D01*
X50454348Y7750539D01*
X50683288Y7705000D01*
X50916712Y7705000D01*
X51145652Y7750539D01*
X51361308Y7839866D01*
X51555394Y7969550D01*
X51720450Y8134606D01*
X51850134Y8328692D01*
X51939461Y8544348D01*
X51985000Y8773288D01*
X51985000Y9006712D01*
X51939461Y9235652D01*
X51850134Y9451308D01*
X51720450Y9645394D01*
X51555394Y9810450D01*
X51361308Y9940134D01*
X51145652Y10029461D01*
X50916712Y10075000D01*
X50683288Y10075000D01*
X50454348Y10029461D01*
X50238692Y9940134D01*
X50044606Y9810450D01*
X49879550Y9645394D01*
X49799105Y9525000D01*
X45983025Y9525000D01*
X42052154Y13455870D01*
X42093676Y13533553D01*
X42158577Y13747501D01*
X42180491Y13970000D01*
X42169404Y14082572D01*
X45248930Y11003045D01*
X45268815Y10978815D01*
X45293043Y10958932D01*
X45365506Y10899462D01*
X45475820Y10840498D01*
X45595518Y10804188D01*
X45688808Y10795000D01*
X45688811Y10795000D01*
X45720000Y10791928D01*
X45751189Y10795000D01*
X49799105Y10795000D01*
X49879550Y10674606D01*
X50044606Y10509550D01*
X50238692Y10379866D01*
X50454348Y10290539D01*
X50683288Y10245000D01*
X50916712Y10245000D01*
X51145652Y10290539D01*
X51361308Y10379866D01*
X51555394Y10509550D01*
X51720450Y10674606D01*
X51850134Y10868692D01*
X51939461Y11084348D01*
X51985000Y11313288D01*
X51985000Y11546712D01*
X51939461Y11775652D01*
X51850134Y11991308D01*
X51720450Y12185394D01*
X51555394Y12350450D01*
X51361308Y12480134D01*
X51253566Y12524762D01*
X54762500Y12524762D01*
X54762500Y7795238D01*
X57182500Y7795238D01*
X57182500Y12524762D01*
X54762500Y12524762D01*
X51253566Y12524762D01*
X51145652Y12569461D01*
X50916712Y12615000D01*
X50683288Y12615000D01*
X50454348Y12569461D01*
X50238692Y12480134D01*
X50044606Y12350450D01*
X49879550Y12185394D01*
X49799105Y12065000D01*
X45983025Y12065000D01*
X42052154Y15995870D01*
X42093676Y16073553D01*
X42158577Y16287501D01*
X42180491Y16510000D01*
X42169404Y16622572D01*
X45248930Y13543045D01*
X45268815Y13518815D01*
X45293043Y13498932D01*
X45365506Y13439462D01*
X45475820Y13380498D01*
X45595518Y13344188D01*
X45688808Y13335000D01*
X45688811Y13335000D01*
X45720000Y13331928D01*
X45751189Y13335000D01*
X49613380Y13335000D01*
X49613380Y13120000D01*
X49619848Y13054329D01*
X49639004Y12991181D01*
X49670111Y12932984D01*
X49711974Y12881974D01*
X49762984Y12840111D01*
X49821181Y12809004D01*
X49884329Y12789848D01*
X49950000Y12783380D01*
X51650000Y12783380D01*
X51715671Y12789848D01*
X51778819Y12809004D01*
X51837016Y12840111D01*
X51888026Y12881974D01*
X51929889Y12932984D01*
X51960996Y12991181D01*
X51980152Y13054329D01*
X51986620Y13120000D01*
X51986620Y14820000D01*
X51980152Y14885671D01*
X51960996Y14948819D01*
X51929889Y15007016D01*
X51888026Y15058026D01*
X51837016Y15099889D01*
X51778819Y15130996D01*
X51715671Y15150152D01*
X51650000Y15156620D01*
X49950000Y15156620D01*
X49884329Y15150152D01*
X49821181Y15130996D01*
X49762984Y15099889D01*
X49711974Y15058026D01*
X49670111Y15007016D01*
X49639004Y14948819D01*
X49619848Y14885671D01*
X49613380Y14820000D01*
X49613380Y14605000D01*
X45983025Y14605000D01*
X42052154Y18535870D01*
X42093676Y18613553D01*
X42158577Y18827501D01*
X42180491Y19050000D01*
X42158577Y19272499D01*
X42093676Y19486447D01*
X41988284Y19683623D01*
X41846449Y19856449D01*
X41673623Y19998284D01*
X41476447Y20103676D01*
X41262499Y20168577D01*
X41247043Y20170099D01*
X41444514Y20207350D01*
X41706483Y20312834D01*
X41942839Y20467399D01*
X42144500Y20665105D01*
X42303715Y20898354D01*
X42414367Y21158182D01*
X42431904Y21240961D01*
X42309915Y21463000D01*
X40767000Y21463000D01*
X40767000Y21443000D01*
X40513000Y21443000D01*
X40513000Y21463000D01*
X38970085Y21463000D01*
X38848096Y21240961D01*
X38865633Y21158182D01*
X38976285Y20898354D01*
X39135500Y20665105D01*
X39337161Y20467399D01*
X39573517Y20312834D01*
X39835486Y20207350D01*
X40032957Y20170099D01*
X40017501Y20168577D01*
X39803553Y20103676D01*
X39606377Y19998284D01*
X39433551Y19856449D01*
X39291716Y19683623D01*
X39186324Y19486447D01*
X39121423Y19272499D01*
X39099509Y19050000D01*
X39121423Y18827501D01*
X39186324Y18613553D01*
X39291716Y18416377D01*
X39433551Y18243551D01*
X39606377Y18101716D01*
X39803553Y17996324D01*
X40017501Y17931423D01*
X40184248Y17915000D01*
X40876976Y17915000D01*
X41152572Y17639404D01*
X41095752Y17645000D01*
X40184248Y17645000D01*
X40017501Y17628577D01*
X39803553Y17563676D01*
X39606377Y17458284D01*
X39433551Y17316449D01*
X39291716Y17143623D01*
X39186324Y16946447D01*
X39121423Y16732499D01*
X39099509Y16510000D01*
X39121423Y16287501D01*
X39186324Y16073553D01*
X39291716Y15876377D01*
X39433551Y15703551D01*
X39606377Y15561716D01*
X39803553Y15456324D01*
X40017501Y15391423D01*
X40184248Y15375000D01*
X40876976Y15375000D01*
X41152572Y15099404D01*
X41095752Y15105000D01*
X40184248Y15105000D01*
X40017501Y15088577D01*
X39803553Y15023676D01*
X39606377Y14918284D01*
X39433551Y14776449D01*
X39291716Y14603623D01*
X39186324Y14406447D01*
X39121423Y14192499D01*
X39099509Y13970000D01*
X39121423Y13747501D01*
X39186324Y13533553D01*
X39291716Y13336377D01*
X39433551Y13163551D01*
X39606377Y13021716D01*
X39803553Y12916324D01*
X40017501Y12851423D01*
X40184248Y12835000D01*
X40876976Y12835000D01*
X41152572Y12559404D01*
X41095752Y12565000D01*
X40184248Y12565000D01*
X40017501Y12548577D01*
X39803553Y12483676D01*
X39606377Y12378284D01*
X39433551Y12236449D01*
X39291716Y12063623D01*
X39186324Y11866447D01*
X39121423Y11652499D01*
X39099509Y11430000D01*
X39121423Y11207501D01*
X39186324Y10993553D01*
X39291716Y10796377D01*
X39433551Y10623551D01*
X39606377Y10481716D01*
X39803553Y10376324D01*
X40017501Y10311423D01*
X40184248Y10295000D01*
X40876976Y10295000D01*
X41152572Y10019404D01*
X41095752Y10025000D01*
X40184248Y10025000D01*
X40017501Y10008577D01*
X39803553Y9943676D01*
X39606377Y9838284D01*
X39433551Y9696449D01*
X39292846Y9525000D01*
X38363025Y9525000D01*
X33655000Y14233024D01*
X33655000Y26701192D01*
X33645812Y26794482D01*
X33609502Y26914180D01*
X33550537Y27024494D01*
X33471185Y27121185D01*
X33374493Y27200537D01*
X33264179Y27259502D01*
X33255041Y27262274D01*
X31072275Y29445039D01*
X31069502Y29454180D01*
X31010537Y29564494D01*
X30931185Y29661185D01*
X30834494Y29740537D01*
X30724180Y29799502D01*
X30604482Y29835812D01*
X30511192Y29845000D01*
X27305000Y29845000D01*
X27305000Y30757298D01*
X33786903Y30757298D01*
X33858486Y30513329D01*
X34113996Y30392429D01*
X34388184Y30323700D01*
X34670512Y30309783D01*
X34950130Y30351213D01*
X35216292Y30446397D01*
X35341514Y30513329D01*
X35413097Y30757298D01*
X34600000Y31570395D01*
X33786903Y30757298D01*
X27305000Y30757298D01*
X27305000Y31679488D01*
X33159783Y31679488D01*
X33201213Y31399870D01*
X33296397Y31133708D01*
X33363329Y31008486D01*
X33607298Y30936903D01*
X34420395Y31750000D01*
X34779605Y31750000D01*
X35592702Y30936903D01*
X35836671Y31008486D01*
X35957571Y31263996D01*
X36026300Y31538184D01*
X36040217Y31820512D01*
X35998787Y32100130D01*
X35903603Y32366292D01*
X35836671Y32491514D01*
X35637340Y32550000D01*
X36963380Y32550000D01*
X36963380Y30950000D01*
X36969848Y30884329D01*
X36989004Y30821181D01*
X37020111Y30762984D01*
X37061974Y30711974D01*
X37112984Y30670111D01*
X37171181Y30639004D01*
X37234329Y30619848D01*
X37300000Y30613380D01*
X37465000Y30613380D01*
X37465001Y29241192D01*
X37461929Y29210000D01*
X37474189Y29085519D01*
X37510498Y28965821D01*
X37569463Y28855507D01*
X37569464Y28855506D01*
X37648816Y28758815D01*
X37673046Y28738930D01*
X40005000Y26406974D01*
X40005001Y25244785D01*
X39803553Y25183676D01*
X39606377Y25078284D01*
X39433551Y24936449D01*
X39291716Y24763623D01*
X39186324Y24566447D01*
X39121423Y24352499D01*
X39099509Y24130000D01*
X39121423Y23907501D01*
X39186324Y23693553D01*
X39291716Y23496377D01*
X39433551Y23323551D01*
X39606377Y23181716D01*
X39803553Y23076324D01*
X40017501Y23011423D01*
X40032957Y23009901D01*
X39835486Y22972650D01*
X39573517Y22867166D01*
X39337161Y22712601D01*
X39135500Y22514895D01*
X38976285Y22281646D01*
X38865633Y22021818D01*
X38848096Y21939039D01*
X38970085Y21717000D01*
X40513000Y21717000D01*
X40513000Y21737000D01*
X40767000Y21737000D01*
X40767000Y21717000D01*
X42309915Y21717000D01*
X42431904Y21939039D01*
X42414367Y22021818D01*
X42303715Y22281646D01*
X42144500Y22514895D01*
X41942839Y22712601D01*
X41706483Y22867166D01*
X41444514Y22972650D01*
X41247043Y23009901D01*
X41262499Y23011423D01*
X41476447Y23076324D01*
X41673623Y23181716D01*
X41846449Y23323551D01*
X41987154Y23495000D01*
X42916976Y23495000D01*
X46518935Y19893039D01*
X46538815Y19868815D01*
X46563039Y19848935D01*
X46563043Y19848931D01*
X46635506Y19789462D01*
X46745820Y19730498D01*
X46865518Y19694188D01*
X46958808Y19685000D01*
X46958811Y19685000D01*
X46990000Y19681928D01*
X47021189Y19685000D01*
X49799105Y19685000D01*
X49879550Y19564606D01*
X50044606Y19399550D01*
X50238692Y19269866D01*
X50454348Y19180539D01*
X50683288Y19135000D01*
X50916712Y19135000D01*
X51145652Y19180539D01*
X51361308Y19269866D01*
X51555394Y19399550D01*
X51720450Y19564606D01*
X51850134Y19758692D01*
X51939461Y19974348D01*
X51985000Y20203288D01*
X51985000Y20436712D01*
X51939461Y20665652D01*
X51850134Y20881308D01*
X51720450Y21075394D01*
X51555394Y21240450D01*
X51361308Y21370134D01*
X51145652Y21459461D01*
X50916712Y21505000D01*
X50683288Y21505000D01*
X50454348Y21459461D01*
X50238692Y21370134D01*
X50044606Y21240450D01*
X49879550Y21075394D01*
X49799105Y20955000D01*
X47253026Y20955000D01*
X43651074Y24556950D01*
X43631185Y24581185D01*
X43534494Y24660537D01*
X43424180Y24719502D01*
X43304482Y24755812D01*
X43211192Y24765000D01*
X43211181Y24765000D01*
X43180000Y24768071D01*
X43148819Y24765000D01*
X41987154Y24765000D01*
X41846449Y24936449D01*
X41673623Y25078284D01*
X41476447Y25183676D01*
X41275000Y25244785D01*
X41275000Y26638820D01*
X41278071Y26670001D01*
X41275000Y26701182D01*
X41275000Y26701192D01*
X41265812Y26794482D01*
X41229502Y26914180D01*
X41170538Y27024493D01*
X41170537Y27024495D01*
X41111068Y27096958D01*
X41111065Y27096961D01*
X41091185Y27121185D01*
X41066962Y27141064D01*
X38735000Y29473024D01*
X38735000Y30613380D01*
X38900000Y30613380D01*
X38965671Y30619848D01*
X39028819Y30639004D01*
X39087016Y30670111D01*
X39138026Y30711974D01*
X39179889Y30762984D01*
X39210996Y30821181D01*
X39230152Y30884329D01*
X39236620Y30950000D01*
X39236620Y30960000D01*
X44903380Y30960000D01*
X44903380Y27460000D01*
X44909848Y27394329D01*
X44929004Y27331181D01*
X44960111Y27272984D01*
X45001974Y27221974D01*
X45052984Y27180111D01*
X45111181Y27149004D01*
X45174329Y27129848D01*
X45240000Y27123380D01*
X46355000Y27123380D01*
X46355000Y25431181D01*
X46351929Y25400000D01*
X46355000Y25368819D01*
X46355000Y25368809D01*
X46364188Y25275519D01*
X46400498Y25155821D01*
X46459463Y25045507D01*
X46538815Y24948815D01*
X46563050Y24928926D01*
X49058935Y22433040D01*
X49078815Y22408815D01*
X49103039Y22388935D01*
X49103042Y22388932D01*
X49175505Y22329463D01*
X49205333Y22313520D01*
X49285820Y22270498D01*
X49405518Y22234188D01*
X49498808Y22225000D01*
X49498818Y22225000D01*
X49529999Y22221929D01*
X49561180Y22225000D01*
X51806976Y22225000D01*
X52705001Y21326974D01*
X52705001Y21320895D01*
X52584606Y21240450D01*
X52419550Y21075394D01*
X52289866Y20881308D01*
X52200539Y20665652D01*
X52155000Y20436712D01*
X52155000Y20203288D01*
X52200539Y19974348D01*
X52289866Y19758692D01*
X52419550Y19564606D01*
X52584606Y19399550D01*
X52778692Y19269866D01*
X52994348Y19180539D01*
X53223288Y19135000D01*
X53456712Y19135000D01*
X53685652Y19180539D01*
X53901308Y19269866D01*
X54095394Y19399550D01*
X54260450Y19564606D01*
X54390134Y19758692D01*
X54479461Y19974348D01*
X54525000Y20203288D01*
X54525000Y20436712D01*
X54479461Y20665652D01*
X54390134Y20881308D01*
X54260450Y21075394D01*
X54165844Y21170000D01*
X54693380Y21170000D01*
X54693380Y19470000D01*
X54699848Y19404329D01*
X54719004Y19341181D01*
X54750111Y19282984D01*
X54791974Y19231974D01*
X54842984Y19190111D01*
X54901181Y19159004D01*
X54964329Y19139848D01*
X55030000Y19133380D01*
X56730000Y19133380D01*
X56795671Y19139848D01*
X56858819Y19159004D01*
X56917016Y19190111D01*
X56968026Y19231974D01*
X57009889Y19282984D01*
X57040996Y19341181D01*
X57060152Y19404329D01*
X57066620Y19470000D01*
X57066620Y21170000D01*
X57060152Y21235671D01*
X57040996Y21298819D01*
X57009889Y21357016D01*
X56968026Y21408026D01*
X56917016Y21449889D01*
X56858819Y21480996D01*
X56795671Y21500152D01*
X56730000Y21506620D01*
X55030000Y21506620D01*
X54964329Y21500152D01*
X54901181Y21480996D01*
X54842984Y21449889D01*
X54791974Y21408026D01*
X54750111Y21357016D01*
X54719004Y21298819D01*
X54699848Y21235671D01*
X54693380Y21170000D01*
X54165844Y21170000D01*
X54095394Y21240450D01*
X53975000Y21320895D01*
X53975000Y21558820D01*
X53978071Y21590001D01*
X53975000Y21621182D01*
X53975000Y21621192D01*
X53965812Y21714482D01*
X53929502Y21834180D01*
X53870537Y21944495D01*
X53811068Y22016957D01*
X53791185Y22041185D01*
X53766955Y22061070D01*
X52541074Y23286950D01*
X52521185Y23311185D01*
X52424494Y23390537D01*
X52314180Y23449502D01*
X52194482Y23485812D01*
X52101192Y23495000D01*
X52101181Y23495000D01*
X52070000Y23498071D01*
X52038819Y23495000D01*
X49793026Y23495000D01*
X47625000Y25663024D01*
X47625000Y27123380D01*
X48740000Y27123380D01*
X48805671Y27129848D01*
X48868819Y27149004D01*
X48927016Y27180111D01*
X48978026Y27221974D01*
X49019889Y27272984D01*
X49050996Y27331181D01*
X49070152Y27394329D01*
X49076620Y27460000D01*
X50851928Y27460000D01*
X50864188Y27335518D01*
X50900498Y27215820D01*
X50959463Y27105506D01*
X51038815Y27008815D01*
X51135506Y26929463D01*
X51245820Y26870498D01*
X51365518Y26834188D01*
X51490000Y26821928D01*
X52704250Y26825000D01*
X52863000Y26983750D01*
X52863000Y29083000D01*
X53117000Y29083000D01*
X53117000Y26983750D01*
X53275750Y26825000D01*
X54490000Y26821928D01*
X54614482Y26834188D01*
X54734180Y26870498D01*
X54844494Y26929463D01*
X54941185Y27008815D01*
X55020537Y27105506D01*
X55079502Y27215820D01*
X55115812Y27335518D01*
X55128072Y27460000D01*
X55125000Y28924250D01*
X54966250Y29083000D01*
X53117000Y29083000D01*
X52863000Y29083000D01*
X51013750Y29083000D01*
X50855000Y28924250D01*
X50851928Y27460000D01*
X49076620Y27460000D01*
X49076620Y30960000D01*
X50851928Y30960000D01*
X50855000Y29495750D01*
X51013750Y29337000D01*
X52863000Y29337000D01*
X52863000Y31436250D01*
X53117000Y31436250D01*
X53117000Y29337000D01*
X54966250Y29337000D01*
X55125000Y29495750D01*
X55128072Y30960000D01*
X55115812Y31084482D01*
X55079502Y31204180D01*
X55020537Y31314494D01*
X54941185Y31411185D01*
X54844494Y31490537D01*
X54734180Y31549502D01*
X54614482Y31585812D01*
X54490000Y31598072D01*
X53275750Y31595000D01*
X53117000Y31436250D01*
X52863000Y31436250D01*
X52704250Y31595000D01*
X51490000Y31598072D01*
X51365518Y31585812D01*
X51245820Y31549502D01*
X51135506Y31490537D01*
X51038815Y31411185D01*
X50959463Y31314494D01*
X50900498Y31204180D01*
X50864188Y31084482D01*
X50851928Y30960000D01*
X49076620Y30960000D01*
X49070152Y31025671D01*
X49050996Y31088819D01*
X49019889Y31147016D01*
X48978026Y31198026D01*
X48927016Y31239889D01*
X48868819Y31270996D01*
X48805671Y31290152D01*
X48740000Y31296620D01*
X45240000Y31296620D01*
X45174329Y31290152D01*
X45111181Y31270996D01*
X45052984Y31239889D01*
X45001974Y31198026D01*
X44960111Y31147016D01*
X44929004Y31088819D01*
X44909848Y31025671D01*
X44903380Y30960000D01*
X39236620Y30960000D01*
X39236620Y32550000D01*
X39230152Y32615671D01*
X39210996Y32678819D01*
X39179889Y32737016D01*
X39138026Y32788026D01*
X39087016Y32829889D01*
X39028819Y32860996D01*
X38965671Y32880152D01*
X38900000Y32886620D01*
X38735000Y32886620D01*
X38735000Y34026976D01*
X39493024Y34785000D01*
X47903380Y34785000D01*
X47903380Y33035000D01*
X47926661Y32798625D01*
X47995609Y32571333D01*
X48107575Y32361860D01*
X48258255Y32178255D01*
X48441860Y32027575D01*
X48651333Y31915609D01*
X48878625Y31846661D01*
X49115000Y31823380D01*
X50865000Y31823380D01*
X51101375Y31846661D01*
X51328667Y31915609D01*
X51538140Y32027575D01*
X51721745Y32178255D01*
X51872425Y32361860D01*
X51984391Y32571333D01*
X52053339Y32798625D01*
X52076620Y33035000D01*
X52076620Y34785000D01*
X52053339Y35021375D01*
X51984391Y35248667D01*
X51872425Y35458140D01*
X51721745Y35641745D01*
X51538140Y35792425D01*
X51328667Y35904391D01*
X51101375Y35973339D01*
X50865000Y35996620D01*
X49115000Y35996620D01*
X48878625Y35973339D01*
X48651333Y35904391D01*
X48441860Y35792425D01*
X48258255Y35641745D01*
X48107575Y35458140D01*
X47995609Y35248667D01*
X47926661Y35021375D01*
X47903380Y34785000D01*
X39493024Y34785000D01*
X43925524Y39217500D01*
X44783810Y39217500D01*
X44783810Y36797500D01*
X46656191Y36797500D01*
X46656191Y39217500D01*
X44783810Y39217500D01*
X43925524Y39217500D01*
X44384469Y39676444D01*
X44389848Y39621829D01*
X44409004Y39558681D01*
X44440111Y39500484D01*
X44481974Y39449474D01*
X44532984Y39407611D01*
X44591181Y39376504D01*
X44654329Y39357348D01*
X44720000Y39350880D01*
X46720000Y39350880D01*
X46785671Y39357348D01*
X46848819Y39376504D01*
X46907016Y39407611D01*
X46958026Y39449474D01*
X46999889Y39500484D01*
X47030996Y39558681D01*
X47050152Y39621829D01*
X47056620Y39687500D01*
X47056620Y40055000D01*
X50557686Y40055000D01*
X51636021Y38976664D01*
X51654341Y38954341D01*
X51743419Y38881237D01*
X51806047Y38847762D01*
X51845047Y38826916D01*
X51955319Y38793465D01*
X52069999Y38782170D01*
X52098732Y38785000D01*
X53473380Y38785000D01*
X53473380Y38570000D01*
X53479848Y38504329D01*
X53499004Y38441181D01*
X53530111Y38382984D01*
X53571974Y38331974D01*
X53622984Y38290111D01*
X53681181Y38259004D01*
X53744329Y38239848D01*
X53810000Y38233380D01*
X55410000Y38233380D01*
X55475671Y38239848D01*
X55538819Y38259004D01*
X55597016Y38290111D01*
X55648026Y38331974D01*
X55689889Y38382984D01*
X55720996Y38441181D01*
X55740152Y38504329D01*
X55746620Y38570000D01*
X55746620Y40170000D01*
X55740152Y40235671D01*
X55720996Y40298819D01*
X55689889Y40357016D01*
X55648026Y40408026D01*
X55597016Y40449889D01*
X55538819Y40480996D01*
X55475671Y40500152D01*
X55410000Y40506620D01*
X55059138Y40506620D01*
X55226292Y40566397D01*
X55351514Y40633329D01*
X55423097Y40877298D01*
X54610000Y41690395D01*
X53796903Y40877298D01*
X53868486Y40633329D01*
X54123996Y40512429D01*
X54147170Y40506620D01*
X53810000Y40506620D01*
X53744329Y40500152D01*
X53681181Y40480996D01*
X53622984Y40449889D01*
X53571974Y40408026D01*
X53530111Y40357016D01*
X53499004Y40298819D01*
X53479848Y40235671D01*
X53473380Y40170000D01*
X53473380Y39955000D01*
X52312315Y39955000D01*
X51233983Y41033331D01*
X51215659Y41055659D01*
X51126581Y41128763D01*
X51024953Y41183084D01*
X50914680Y41216535D01*
X50828733Y41225000D01*
X50800000Y41227830D01*
X50771267Y41225000D01*
X47056620Y41225000D01*
X47056620Y41592500D01*
X47050152Y41658171D01*
X47030996Y41721319D01*
X46999889Y41779516D01*
X46983499Y41799488D01*
X53169783Y41799488D01*
X53211213Y41519870D01*
X53306397Y41253708D01*
X53373329Y41128486D01*
X53617298Y41056903D01*
X54430395Y41870000D01*
X54789605Y41870000D01*
X55602702Y41056903D01*
X55846671Y41128486D01*
X55967571Y41383996D01*
X56036300Y41658184D01*
X56050217Y41940512D01*
X56008787Y42220130D01*
X55913603Y42486292D01*
X55846671Y42611514D01*
X55602702Y42683097D01*
X54789605Y41870000D01*
X54430395Y41870000D01*
X53617298Y42683097D01*
X53373329Y42611514D01*
X53252429Y42356004D01*
X53183700Y42081816D01*
X53169783Y41799488D01*
X46983499Y41799488D01*
X46958026Y41830526D01*
X46907016Y41872389D01*
X46848819Y41903496D01*
X46785671Y41922652D01*
X46731398Y41927997D01*
X46901315Y42070563D01*
X47095969Y42313077D01*
X47239571Y42588906D01*
X47310563Y42807020D01*
X47283406Y42862702D01*
X53796903Y42862702D01*
X54610000Y42049605D01*
X55423097Y42862702D01*
X55351514Y43106671D01*
X55096004Y43227571D01*
X54821816Y43296300D01*
X54539488Y43310217D01*
X54259870Y43268787D01*
X53993708Y43173603D01*
X53868486Y43106671D01*
X53796903Y42862702D01*
X47283406Y42862702D01*
X47190594Y43053000D01*
X45847000Y43053000D01*
X45847000Y43033000D01*
X45593000Y43033000D01*
X45593000Y43053000D01*
X44249406Y43053000D01*
X44129437Y42807020D01*
X44200429Y42588906D01*
X44344031Y42313077D01*
X44538685Y42070563D01*
X44708602Y41927997D01*
X44654329Y41922652D01*
X44591181Y41903496D01*
X44532984Y41872389D01*
X44481974Y41830526D01*
X44440111Y41779516D01*
X44409004Y41721319D01*
X44389848Y41658171D01*
X44383380Y41592500D01*
X44383380Y41271511D01*
X44325518Y41265812D01*
X44205820Y41229502D01*
X44095506Y41170537D01*
X43998815Y41091185D01*
X43978931Y41066956D01*
X37673050Y34761074D01*
X37648815Y34741185D01*
X37569463Y34644493D01*
X37510498Y34534179D01*
X37474188Y34414481D01*
X37465000Y34321191D01*
X37465000Y34321181D01*
X37461929Y34290000D01*
X37465000Y34258819D01*
X37465001Y32886620D01*
X37300000Y32886620D01*
X37234329Y32880152D01*
X37171181Y32860996D01*
X37112984Y32829889D01*
X37061974Y32788026D01*
X37020111Y32737016D01*
X36989004Y32678819D01*
X36969848Y32615671D01*
X36963380Y32550000D01*
X35637340Y32550000D01*
X35592702Y32563097D01*
X34779605Y31750000D01*
X34420395Y31750000D01*
X33607298Y32563097D01*
X33363329Y32491514D01*
X33242429Y32236004D01*
X33173700Y31961816D01*
X33159783Y31679488D01*
X27305000Y31679488D01*
X27305000Y32019105D01*
X27425394Y32099550D01*
X27590450Y32264606D01*
X27720134Y32458692D01*
X27809461Y32674348D01*
X27855000Y32903288D01*
X27855000Y33136712D01*
X27826751Y33278727D01*
X28130953Y33582929D01*
X28130953Y31717500D01*
X30289048Y31717500D01*
X30289048Y32742702D01*
X33786903Y32742702D01*
X34600000Y31929605D01*
X35413097Y32742702D01*
X35341514Y32986671D01*
X35086004Y33107571D01*
X34811816Y33176300D01*
X34529488Y33190217D01*
X34249870Y33148787D01*
X33983708Y33053603D01*
X33858486Y32986671D01*
X33786903Y32742702D01*
X30289048Y32742702D01*
X30289048Y34137500D01*
X28685524Y34137500D01*
X34553025Y40005000D01*
X38068819Y40005000D01*
X38100000Y40001929D01*
X38131181Y40005000D01*
X38131192Y40005000D01*
X38224482Y40014188D01*
X38344180Y40050498D01*
X38454494Y40109463D01*
X38551185Y40188815D01*
X38571074Y40213050D01*
X43443025Y45085000D01*
X44552035Y45085000D01*
X44596804Y45001243D01*
X44757695Y44805195D01*
X44953743Y44644304D01*
X45007279Y44615688D01*
X44776911Y44489316D01*
X44538685Y44289437D01*
X44344031Y44046923D01*
X44200429Y43771094D01*
X44129437Y43552980D01*
X44249406Y43307000D01*
X45593000Y43307000D01*
X45593000Y43327000D01*
X45847000Y43327000D01*
X45847000Y43307000D01*
X47190594Y43307000D01*
X47310563Y43552980D01*
X47239571Y43771094D01*
X47095969Y44046923D01*
X46901315Y44289437D01*
X46663089Y44489316D01*
X46432721Y44615688D01*
X46486257Y44644304D01*
X46636126Y44767298D01*
X53796903Y44767298D01*
X53868486Y44523329D01*
X54123996Y44402429D01*
X54398184Y44333700D01*
X54680512Y44319783D01*
X54960130Y44361213D01*
X55226292Y44456397D01*
X55351514Y44523329D01*
X55423097Y44767298D01*
X54610000Y45580395D01*
X53796903Y44767298D01*
X46636126Y44767298D01*
X46682305Y44805195D01*
X46843196Y45001243D01*
X46887965Y45085000D01*
X48228819Y45085000D01*
X48260000Y45081929D01*
X48291181Y45085000D01*
X48291192Y45085000D01*
X48384482Y45094188D01*
X48504180Y45130498D01*
X48614494Y45189463D01*
X48711185Y45268815D01*
X48731074Y45293050D01*
X49127512Y45689488D01*
X53169783Y45689488D01*
X53211213Y45409870D01*
X53306397Y45143708D01*
X53373329Y45018486D01*
X53617298Y44946903D01*
X54430395Y45760000D01*
X54789605Y45760000D01*
X55602702Y44946903D01*
X55846671Y45018486D01*
X55967571Y45273996D01*
X56036300Y45548184D01*
X56050217Y45830512D01*
X56008787Y46110130D01*
X55913603Y46376292D01*
X55846671Y46501514D01*
X55602702Y46573097D01*
X54789605Y45760000D01*
X54430395Y45760000D01*
X53617298Y46573097D01*
X53373329Y46501514D01*
X53252429Y46246004D01*
X53183700Y45971816D01*
X53169783Y45689488D01*
X49127512Y45689488D01*
X51063026Y47625000D01*
X53473380Y47625000D01*
X53473380Y47460000D01*
X53479848Y47394329D01*
X53499004Y47331181D01*
X53530111Y47272984D01*
X53571974Y47221974D01*
X53622984Y47180111D01*
X53681181Y47149004D01*
X53744329Y47129848D01*
X53810000Y47123380D01*
X54160862Y47123380D01*
X53993708Y47063603D01*
X53868486Y46996671D01*
X53796903Y46752702D01*
X54610000Y45939605D01*
X55423097Y46752702D01*
X55351514Y46996671D01*
X55096004Y47117571D01*
X55072830Y47123380D01*
X55410000Y47123380D01*
X55475671Y47129848D01*
X55538819Y47149004D01*
X55597016Y47180111D01*
X55648026Y47221974D01*
X55689889Y47272984D01*
X55720996Y47331181D01*
X55740152Y47394329D01*
X55746620Y47460000D01*
X55746620Y49060000D01*
X55740152Y49125671D01*
X55720996Y49188819D01*
X55689889Y49247016D01*
X55648026Y49298026D01*
X55597016Y49339889D01*
X55538819Y49370996D01*
X55475671Y49390152D01*
X55410000Y49396620D01*
X53810000Y49396620D01*
X53744329Y49390152D01*
X53681181Y49370996D01*
X53622984Y49339889D01*
X53571974Y49298026D01*
X53530111Y49247016D01*
X53499004Y49188819D01*
X53479848Y49125671D01*
X53473380Y49060000D01*
X53473380Y48895000D01*
X50831180Y48895000D01*
X50799999Y48898071D01*
X50768818Y48895000D01*
X50768808Y48895000D01*
X50675518Y48885812D01*
X50555820Y48849502D01*
X50483931Y48811076D01*
X50445505Y48790537D01*
X50373042Y48731068D01*
X50373039Y48731065D01*
X50348815Y48711185D01*
X50328935Y48686960D01*
X47996976Y46355000D01*
X46887965Y46355000D01*
X46843196Y46438757D01*
X46682305Y46634805D01*
X46486257Y46795696D01*
X46262589Y46915250D01*
X46123308Y46957500D01*
X46656191Y46957500D01*
X46656191Y49377500D01*
X44783810Y49377500D01*
X44783810Y46957500D01*
X45316692Y46957500D01*
X45177411Y46915250D01*
X44953743Y46795696D01*
X44757695Y46634805D01*
X44596804Y46438757D01*
X44552035Y46355000D01*
X43211189Y46355000D01*
X43180000Y46358072D01*
X43148811Y46355000D01*
X43148808Y46355000D01*
X43055518Y46345812D01*
X42935820Y46309502D01*
X42825506Y46250538D01*
X42782312Y46215089D01*
X42728815Y46171185D01*
X42708932Y46146957D01*
X37836976Y41275000D01*
X34925000Y41275000D01*
X34925000Y42118971D01*
X35077267Y42220713D01*
X35249287Y42392733D01*
X35384443Y42595008D01*
X35477540Y42819764D01*
X35525000Y43058363D01*
X35525000Y43301637D01*
X35477540Y43540236D01*
X35384443Y43764992D01*
X35249287Y43967267D01*
X35136554Y44080000D01*
X35593380Y44080000D01*
X35593380Y42280000D01*
X35599848Y42214329D01*
X35619004Y42151181D01*
X35650111Y42092984D01*
X35691974Y42041974D01*
X35742984Y42000111D01*
X35801181Y41969004D01*
X35864329Y41949848D01*
X35930000Y41943380D01*
X37730000Y41943380D01*
X37795671Y41949848D01*
X37858819Y41969004D01*
X37917016Y42000111D01*
X37968026Y42041974D01*
X38009889Y42092984D01*
X38040996Y42151181D01*
X38060152Y42214329D01*
X38066620Y42280000D01*
X38066620Y44080000D01*
X38060152Y44145671D01*
X38040996Y44208819D01*
X38009889Y44267016D01*
X37968026Y44318026D01*
X37917016Y44359889D01*
X37858819Y44390996D01*
X37795671Y44410152D01*
X37730000Y44416620D01*
X37465000Y44416620D01*
X37465000Y49979510D01*
X37489774Y49996063D01*
X37633937Y50140226D01*
X37747205Y50309744D01*
X37825226Y50498102D01*
X37865000Y50698061D01*
X37865000Y50901939D01*
X37825226Y51101898D01*
X37747205Y51290256D01*
X37633937Y51459774D01*
X37489774Y51603937D01*
X37320256Y51717205D01*
X37131898Y51795226D01*
X36931939Y51835000D01*
X36728061Y51835000D01*
X36528102Y51795226D01*
X36339744Y51717205D01*
X36170226Y51603937D01*
X36026063Y51459774D01*
X35912795Y51290256D01*
X35834774Y51101898D01*
X35795000Y50901939D01*
X35795000Y50698061D01*
X35834774Y50498102D01*
X35912795Y50309744D01*
X36026063Y50140226D01*
X36170226Y49996063D01*
X36195000Y49979510D01*
X36195001Y44416620D01*
X35930000Y44416620D01*
X35864329Y44410152D01*
X35801181Y44390996D01*
X35742984Y44359889D01*
X35691974Y44318026D01*
X35650111Y44267016D01*
X35619004Y44208819D01*
X35599848Y44145671D01*
X35593380Y44080000D01*
X35136554Y44080000D01*
X35077267Y44139287D01*
X34874992Y44274443D01*
X34650236Y44367540D01*
X34411637Y44415000D01*
X34168363Y44415000D01*
X33929764Y44367540D01*
X33705008Y44274443D01*
X33502733Y44139287D01*
X33330713Y43967267D01*
X33250623Y43847403D01*
X31509187Y45588837D01*
X31515000Y45618061D01*
X31515000Y45821939D01*
X31475226Y46021898D01*
X31397205Y46210256D01*
X31283937Y46379774D01*
X31139774Y46523937D01*
X30970256Y46637205D01*
X30781898Y46715226D01*
X30581939Y46755000D01*
X30378061Y46755000D01*
X30178102Y46715226D01*
X29989744Y46637205D01*
X29820226Y46523937D01*
X29676063Y46379774D01*
X29562795Y46210256D01*
X29484774Y46021898D01*
X29445000Y45821939D01*
X29445000Y45618061D01*
X29484774Y45418102D01*
X29562795Y45229744D01*
X29676063Y45060226D01*
X29820226Y44916063D01*
X29989744Y44802795D01*
X30178102Y44724774D01*
X30378061Y44685000D01*
X30581939Y44685000D01*
X30611163Y44690813D01*
X32548935Y42753040D01*
X32568815Y42728815D01*
X32593039Y42708935D01*
X32593042Y42708932D01*
X32665505Y42649463D01*
X32703931Y42628924D01*
X32775820Y42590498D01*
X32895518Y42554188D01*
X32988808Y42545000D01*
X32988818Y42545000D01*
X33019999Y42541929D01*
X33051180Y42545000D01*
X33228971Y42545000D01*
X33330713Y42392733D01*
X33502733Y42220713D01*
X33655000Y42118971D01*
X33655001Y40903026D01*
X28057453Y35305477D01*
X27990155Y35433000D01*
X26797000Y35433000D01*
X26797000Y35413000D01*
X26543000Y35413000D01*
X26543000Y35433000D01*
X25349845Y35433000D01*
X25228524Y35203110D01*
X25273175Y35055901D01*
X25398359Y34793080D01*
X25572412Y34559731D01*
X25788645Y34364822D01*
X26038748Y34215843D01*
X26265918Y34135259D01*
X26108692Y34070134D01*
X25914606Y33940450D01*
X25749550Y33775394D01*
X25619866Y33581308D01*
X25530539Y33365652D01*
X25485000Y33136712D01*
X25485000Y32903288D01*
X25530539Y32674348D01*
X25619866Y32458692D01*
X25749550Y32264606D01*
X25914606Y32099550D01*
X26035000Y32019105D01*
X26035001Y29473027D01*
X22433050Y25871074D01*
X22408815Y25851185D01*
X22329463Y25754493D01*
X22270498Y25644179D01*
X22234188Y25524481D01*
X22225000Y25431191D01*
X22225000Y25431181D01*
X22221929Y25400000D01*
X22225000Y25368819D01*
X22225001Y23123026D01*
X21326976Y22225000D01*
X21260759Y22225000D01*
X21201612Y22313520D01*
X21043520Y22471612D01*
X20857624Y22595824D01*
X20651067Y22681383D01*
X20447002Y22721974D01*
X20447002Y22859375D01*
X20669040Y22738091D01*
X20933881Y22832930D01*
X21175131Y22977615D01*
X21383519Y23166586D01*
X21551037Y23392580D01*
X21671246Y23646913D01*
X21711904Y23780961D01*
X21589915Y24003000D01*
X20447000Y24003000D01*
X20447000Y23983000D01*
X20193000Y23983000D01*
X20193000Y24003000D01*
X19050085Y24003000D01*
X18963189Y23844836D01*
X18328986Y24479039D01*
X18928096Y24479039D01*
X19050085Y24257000D01*
X20193000Y24257000D01*
X20193000Y24277000D01*
X20447000Y24277000D01*
X20447000Y24257000D01*
X21589915Y24257000D01*
X21711904Y24479039D01*
X21671246Y24613087D01*
X21551037Y24867420D01*
X21383519Y25093414D01*
X21175131Y25282385D01*
X20933881Y25427070D01*
X20669040Y25521909D01*
X20447002Y25400625D01*
X20447002Y25538026D01*
X20651067Y25578617D01*
X20857624Y25664176D01*
X21043520Y25788388D01*
X21201612Y25946480D01*
X21325824Y26132376D01*
X21411383Y26338933D01*
X21455000Y26558212D01*
X21455000Y26781788D01*
X21411383Y27001067D01*
X21325824Y27207624D01*
X21201612Y27393520D01*
X21043520Y27551612D01*
X20857624Y27675824D01*
X20651067Y27761383D01*
X20431788Y27805000D01*
X20208212Y27805000D01*
X19988933Y27761383D01*
X19782376Y27675824D01*
X19596480Y27551612D01*
X19438388Y27393520D01*
X19314176Y27207624D01*
X19228617Y27001067D01*
X19185000Y26781788D01*
X19185000Y26558212D01*
X19228617Y26338933D01*
X19314176Y26132376D01*
X19438388Y25946480D01*
X19596480Y25788388D01*
X19782376Y25664176D01*
X19988933Y25578617D01*
X20192998Y25538026D01*
X20192998Y25400625D01*
X19970960Y25521909D01*
X19706119Y25427070D01*
X19464869Y25282385D01*
X19256481Y25093414D01*
X19088963Y24867420D01*
X18968754Y24613087D01*
X18928096Y24479039D01*
X18328986Y24479039D01*
X18251074Y24556950D01*
X18231185Y24581185D01*
X18134494Y24660537D01*
X18024180Y24719502D01*
X17904482Y24755812D01*
X17811192Y24765000D01*
X17811181Y24765000D01*
X17780000Y24768071D01*
X17748819Y24765000D01*
X13640759Y24765000D01*
X13581612Y24853520D01*
X13423520Y25011612D01*
X13237624Y25135824D01*
X13031067Y25221383D01*
X12811788Y25265000D01*
X12588212Y25265000D01*
X12368933Y25221383D01*
X12162376Y25135824D01*
X11976480Y25011612D01*
X11818388Y24853520D01*
X11759241Y24765000D01*
X11693025Y24765000D01*
X10795000Y25663024D01*
X10795000Y26781788D01*
X11565000Y26781788D01*
X11565000Y26558212D01*
X11608617Y26338933D01*
X11694176Y26132376D01*
X11818388Y25946480D01*
X11976480Y25788388D01*
X12162376Y25664176D01*
X12368933Y25578617D01*
X12588212Y25535000D01*
X12811788Y25535000D01*
X13031067Y25578617D01*
X13237624Y25664176D01*
X13423520Y25788388D01*
X13581612Y25946480D01*
X13705824Y26132376D01*
X13791383Y26338933D01*
X13835000Y26558212D01*
X13835000Y26781788D01*
X13791383Y27001067D01*
X13705824Y27207624D01*
X13581612Y27393520D01*
X13423520Y27551612D01*
X13237624Y27675824D01*
X13031067Y27761383D01*
X12811788Y27805000D01*
X12588212Y27805000D01*
X12368933Y27761383D01*
X12162376Y27675824D01*
X11976480Y27551612D01*
X11818388Y27393520D01*
X11694176Y27207624D01*
X11608617Y27001067D01*
X11565000Y26781788D01*
X10795000Y26781788D01*
X10795000Y27908820D01*
X10798071Y27940001D01*
X10795000Y27971182D01*
X10795000Y27971192D01*
X10785812Y28064482D01*
X10749502Y28184180D01*
X10690538Y28294493D01*
X10690537Y28294495D01*
X10631068Y28366958D01*
X10631065Y28366961D01*
X10611185Y28391185D01*
X10586962Y28411064D01*
X9676238Y29321788D01*
X11565000Y29321788D01*
X11565000Y29098212D01*
X11608617Y28878933D01*
X11694176Y28672376D01*
X11818388Y28486480D01*
X11976480Y28328388D01*
X12162376Y28204176D01*
X12368933Y28118617D01*
X12588212Y28075000D01*
X12811788Y28075000D01*
X13031067Y28118617D01*
X13237624Y28204176D01*
X13423520Y28328388D01*
X13581612Y28486480D01*
X13705824Y28672376D01*
X13791383Y28878933D01*
X13835000Y29098212D01*
X13835000Y29321788D01*
X19185000Y29321788D01*
X19185000Y29098212D01*
X19228617Y28878933D01*
X19314176Y28672376D01*
X19438388Y28486480D01*
X19596480Y28328388D01*
X19782376Y28204176D01*
X19988933Y28118617D01*
X20208212Y28075000D01*
X20431788Y28075000D01*
X20651067Y28118617D01*
X20857624Y28204176D01*
X21043520Y28328388D01*
X21201612Y28486480D01*
X21325824Y28672376D01*
X21411383Y28878933D01*
X21455000Y29098212D01*
X21455000Y29321788D01*
X21411383Y29541067D01*
X21325824Y29747624D01*
X21201612Y29933520D01*
X21043520Y30091612D01*
X20857624Y30215824D01*
X20651067Y30301383D01*
X20431788Y30345000D01*
X20208212Y30345000D01*
X19988933Y30301383D01*
X19782376Y30215824D01*
X19596480Y30091612D01*
X19438388Y29933520D01*
X19314176Y29747624D01*
X19228617Y29541067D01*
X19185000Y29321788D01*
X13835000Y29321788D01*
X13791383Y29541067D01*
X13705824Y29747624D01*
X13581612Y29933520D01*
X13423520Y30091612D01*
X13237624Y30215824D01*
X13031067Y30301383D01*
X12811788Y30345000D01*
X12588212Y30345000D01*
X12368933Y30301383D01*
X12162376Y30215824D01*
X11976480Y30091612D01*
X11818388Y29933520D01*
X11694176Y29747624D01*
X11608617Y29541067D01*
X11565000Y29321788D01*
X9676238Y29321788D01*
X8091074Y30906950D01*
X8071185Y30931185D01*
X7974494Y31010537D01*
X7864180Y31069502D01*
X7744482Y31105812D01*
X7651192Y31115000D01*
X7651181Y31115000D01*
X7620000Y31118071D01*
X7588819Y31115000D01*
X3175000Y31115000D01*
X3175000Y31861788D01*
X11565000Y31861788D01*
X11565000Y31638212D01*
X11608617Y31418933D01*
X11694176Y31212376D01*
X11818388Y31026480D01*
X11976480Y30868388D01*
X12162376Y30744176D01*
X12368933Y30658617D01*
X12588212Y30615000D01*
X12811788Y30615000D01*
X13031067Y30658617D01*
X13237624Y30744176D01*
X13423520Y30868388D01*
X13581612Y31026480D01*
X13705824Y31212376D01*
X13791383Y31418933D01*
X13835000Y31638212D01*
X13835000Y31861788D01*
X19185000Y31861788D01*
X19185000Y31638212D01*
X19228617Y31418933D01*
X19314176Y31212376D01*
X19438388Y31026480D01*
X19596480Y30868388D01*
X19782376Y30744176D01*
X19988933Y30658617D01*
X20208212Y30615000D01*
X20431788Y30615000D01*
X20651067Y30658617D01*
X20857624Y30744176D01*
X21043520Y30868388D01*
X21201612Y31026480D01*
X21325824Y31212376D01*
X21411383Y31418933D01*
X21455000Y31638212D01*
X21455000Y31861788D01*
X21411383Y32081067D01*
X21325824Y32287624D01*
X21201612Y32473520D01*
X21043520Y32631612D01*
X20857624Y32755824D01*
X20651067Y32841383D01*
X20431788Y32885000D01*
X20208212Y32885000D01*
X19988933Y32841383D01*
X19782376Y32755824D01*
X19596480Y32631612D01*
X19438388Y32473520D01*
X19314176Y32287624D01*
X19228617Y32081067D01*
X19185000Y31861788D01*
X13835000Y31861788D01*
X13791383Y32081067D01*
X13705824Y32287624D01*
X13581612Y32473520D01*
X13423520Y32631612D01*
X13237624Y32755824D01*
X13031067Y32841383D01*
X12811788Y32885000D01*
X12588212Y32885000D01*
X12368933Y32841383D01*
X12162376Y32755824D01*
X11976480Y32631612D01*
X11818388Y32473520D01*
X11694176Y32287624D01*
X11608617Y32081067D01*
X11565000Y31861788D01*
X3175000Y31861788D01*
X3175000Y35140000D01*
X5163380Y35140000D01*
X5163380Y33440000D01*
X5169848Y33374329D01*
X5189004Y33311181D01*
X5220111Y33252984D01*
X5261974Y33201974D01*
X5312984Y33160111D01*
X5371181Y33129004D01*
X5434329Y33109848D01*
X5500000Y33103380D01*
X7200000Y33103380D01*
X7265671Y33109848D01*
X7328819Y33129004D01*
X7387016Y33160111D01*
X7438026Y33201974D01*
X7479889Y33252984D01*
X7510996Y33311181D01*
X7530152Y33374329D01*
X7536620Y33440000D01*
X7536620Y33655000D01*
X11759241Y33655000D01*
X11818388Y33566480D01*
X11976480Y33408388D01*
X12162376Y33284176D01*
X12368933Y33198617D01*
X12588212Y33155000D01*
X12811788Y33155000D01*
X13031067Y33198617D01*
X13237624Y33284176D01*
X13423520Y33408388D01*
X13581612Y33566480D01*
X13705824Y33752376D01*
X13791383Y33958933D01*
X13835000Y34178212D01*
X13835000Y34401788D01*
X19185000Y34401788D01*
X19185000Y34178212D01*
X19228617Y33958933D01*
X19314176Y33752376D01*
X19438388Y33566480D01*
X19596480Y33408388D01*
X19782376Y33284176D01*
X19988933Y33198617D01*
X20208212Y33155000D01*
X20431788Y33155000D01*
X20651067Y33198617D01*
X20857624Y33284176D01*
X21043520Y33408388D01*
X21201612Y33566480D01*
X21325824Y33752376D01*
X21411383Y33958933D01*
X21455000Y34178212D01*
X21455000Y34401788D01*
X21434230Y34506206D01*
X24393026Y37465000D01*
X25483380Y37465000D01*
X25483380Y37250000D01*
X25489848Y37184329D01*
X25509004Y37121181D01*
X25540111Y37062984D01*
X25581974Y37011974D01*
X25632984Y36970111D01*
X25691181Y36939004D01*
X25754329Y36919848D01*
X25820000Y36913380D01*
X26064748Y36913380D01*
X26038748Y36904157D01*
X25788645Y36755178D01*
X25572412Y36560269D01*
X25398359Y36326920D01*
X25273175Y36064099D01*
X25228524Y35916890D01*
X25349845Y35687000D01*
X26543000Y35687000D01*
X26543000Y35707000D01*
X26797000Y35707000D01*
X26797000Y35687000D01*
X27990155Y35687000D01*
X28111476Y35916890D01*
X28066825Y36064099D01*
X27941641Y36326920D01*
X27767588Y36560269D01*
X27551355Y36755178D01*
X27301252Y36904157D01*
X27275252Y36913380D01*
X27520000Y36913380D01*
X27585671Y36919848D01*
X27648819Y36939004D01*
X27707016Y36970111D01*
X27758026Y37011974D01*
X27799889Y37062984D01*
X27830996Y37121181D01*
X27850152Y37184329D01*
X27856620Y37250000D01*
X27856620Y38950000D01*
X27850152Y39015671D01*
X27830996Y39078819D01*
X27799889Y39137016D01*
X27758026Y39188026D01*
X27707016Y39229889D01*
X27648819Y39260996D01*
X27585671Y39280152D01*
X27520000Y39286620D01*
X25820000Y39286620D01*
X25754329Y39280152D01*
X25691181Y39260996D01*
X25632984Y39229889D01*
X25581974Y39188026D01*
X25540111Y39137016D01*
X25509004Y39078819D01*
X25489848Y39015671D01*
X25483380Y38950000D01*
X25483380Y38735000D01*
X24161189Y38735000D01*
X24130000Y38738072D01*
X24098811Y38735000D01*
X24098808Y38735000D01*
X24005518Y38725812D01*
X23885820Y38689502D01*
X23775506Y38630538D01*
X23703043Y38571069D01*
X23703039Y38571065D01*
X23678815Y38551185D01*
X23658935Y38526961D01*
X20536206Y35404230D01*
X20431788Y35425000D01*
X20208212Y35425000D01*
X19988933Y35381383D01*
X19782376Y35295824D01*
X19596480Y35171612D01*
X19438388Y35013520D01*
X19314176Y34827624D01*
X19228617Y34621067D01*
X19185000Y34401788D01*
X13835000Y34401788D01*
X13791383Y34621067D01*
X13705824Y34827624D01*
X13581612Y35013520D01*
X13423520Y35171612D01*
X13237624Y35295824D01*
X13031067Y35381383D01*
X12811788Y35425000D01*
X12588212Y35425000D01*
X12368933Y35381383D01*
X12162376Y35295824D01*
X11976480Y35171612D01*
X11818388Y35013520D01*
X11759241Y34925000D01*
X7536620Y34925000D01*
X7536620Y35140000D01*
X7530152Y35205671D01*
X7510996Y35268819D01*
X7479889Y35327016D01*
X7438026Y35378026D01*
X7387016Y35419889D01*
X7328819Y35450996D01*
X7265671Y35470152D01*
X7200000Y35476620D01*
X5500000Y35476620D01*
X5434329Y35470152D01*
X5371181Y35450996D01*
X5312984Y35419889D01*
X5261974Y35378026D01*
X5220111Y35327016D01*
X5189004Y35268819D01*
X5169848Y35205671D01*
X5163380Y35140000D01*
X3175000Y35140000D01*
X3175000Y37836976D01*
X4351134Y39013110D01*
X4908524Y39013110D01*
X4953175Y38865901D01*
X5078359Y38603080D01*
X5252412Y38369731D01*
X5468645Y38174822D01*
X5718748Y38025843D01*
X5945918Y37945259D01*
X5788692Y37880134D01*
X5594606Y37750450D01*
X5429550Y37585394D01*
X5299866Y37391308D01*
X5210539Y37175652D01*
X5165000Y36946712D01*
X5165000Y36713288D01*
X5210539Y36484348D01*
X5299866Y36268692D01*
X5429550Y36074606D01*
X5594606Y35909550D01*
X5788692Y35779866D01*
X6004348Y35690539D01*
X6233288Y35645000D01*
X6466712Y35645000D01*
X6695652Y35690539D01*
X6911308Y35779866D01*
X7105394Y35909550D01*
X7270450Y36074606D01*
X7350895Y36195000D01*
X11759241Y36195000D01*
X11818388Y36106480D01*
X11976480Y35948388D01*
X12162376Y35824176D01*
X12368933Y35738617D01*
X12588212Y35695000D01*
X12811788Y35695000D01*
X13031067Y35738617D01*
X13237624Y35824176D01*
X13423520Y35948388D01*
X13581612Y36106480D01*
X13705824Y36292376D01*
X13791383Y36498933D01*
X13835000Y36718212D01*
X13835000Y36941788D01*
X19185000Y36941788D01*
X19185000Y36718212D01*
X19228617Y36498933D01*
X19314176Y36292376D01*
X19438388Y36106480D01*
X19596480Y35948388D01*
X19782376Y35824176D01*
X19988933Y35738617D01*
X20208212Y35695000D01*
X20431788Y35695000D01*
X20651067Y35738617D01*
X20857624Y35824176D01*
X21043520Y35948388D01*
X21201612Y36106480D01*
X21325824Y36292376D01*
X21411383Y36498933D01*
X21455000Y36718212D01*
X21455000Y36941788D01*
X21411383Y37161067D01*
X21325824Y37367624D01*
X21201612Y37553520D01*
X21043520Y37711612D01*
X20857624Y37835824D01*
X20651067Y37921383D01*
X20431788Y37965000D01*
X20208212Y37965000D01*
X19988933Y37921383D01*
X19782376Y37835824D01*
X19596480Y37711612D01*
X19438388Y37553520D01*
X19314176Y37367624D01*
X19228617Y37161067D01*
X19185000Y36941788D01*
X13835000Y36941788D01*
X13791383Y37161067D01*
X13705824Y37367624D01*
X13581612Y37553520D01*
X13423520Y37711612D01*
X13237624Y37835824D01*
X13031067Y37921383D01*
X12811788Y37965000D01*
X12588212Y37965000D01*
X12368933Y37921383D01*
X12162376Y37835824D01*
X11976480Y37711612D01*
X11818388Y37553520D01*
X11759241Y37465000D01*
X7350895Y37465000D01*
X7270450Y37585394D01*
X7105394Y37750450D01*
X6911308Y37880134D01*
X6754082Y37945259D01*
X6981252Y38025843D01*
X7231355Y38174822D01*
X7447588Y38369731D01*
X7621641Y38603080D01*
X7746825Y38865901D01*
X7791476Y39013110D01*
X7670155Y39243000D01*
X6477000Y39243000D01*
X6477000Y39223000D01*
X6223000Y39223000D01*
X6223000Y39243000D01*
X5029845Y39243000D01*
X4908524Y39013110D01*
X4351134Y39013110D01*
X4962547Y39624522D01*
X5029845Y39497000D01*
X6223000Y39497000D01*
X6223000Y39517000D01*
X6477000Y39517000D01*
X6477000Y39497000D01*
X7670155Y39497000D01*
X7791476Y39726890D01*
X7746825Y39874099D01*
X7621641Y40136920D01*
X7447588Y40370269D01*
X7231355Y40565178D01*
X6981252Y40714157D01*
X6754082Y40794741D01*
X6911308Y40859866D01*
X7105394Y40989550D01*
X7270450Y41154606D01*
X7400134Y41348692D01*
X7489461Y41564348D01*
X7535000Y41793288D01*
X7535000Y42026712D01*
X7489461Y42255652D01*
X7400134Y42471308D01*
X7270450Y42665394D01*
X7105394Y42830450D01*
X6911308Y42960134D01*
X6695652Y43049461D01*
X6466712Y43095000D01*
X6233288Y43095000D01*
X6004348Y43049461D01*
X5788692Y42960134D01*
X5594606Y42830450D01*
X5429550Y42665394D01*
X5299866Y42471308D01*
X5210539Y42255652D01*
X5165000Y42026712D01*
X5165000Y41793288D01*
X5193248Y41651274D01*
X4889048Y41347073D01*
X4889048Y43027500D01*
X2730953Y43027500D01*
X2730953Y40607500D01*
X4149475Y40607500D01*
X2113050Y38571074D01*
X2088815Y38551185D01*
X2009463Y38454493D01*
X1950498Y38344179D01*
X1914188Y38224481D01*
X1905000Y38131191D01*
X1905000Y38131181D01*
X1901929Y38100000D01*
X1905000Y38068819D01*
X1905001Y30511202D01*
X1901928Y30480000D01*
X127000Y30480000D01*
X127000Y46431486D01*
X11365000Y46431486D01*
X11365000Y46168514D01*
X11416304Y45910595D01*
X11516939Y45667641D01*
X11663038Y45448987D01*
X11848987Y45263038D01*
X11965000Y45185521D01*
X11965001Y40506620D01*
X11900000Y40506620D01*
X11834329Y40500152D01*
X11771181Y40480996D01*
X11712984Y40449889D01*
X11661974Y40408026D01*
X11620111Y40357016D01*
X11589004Y40298819D01*
X11569848Y40235671D01*
X11563380Y40170000D01*
X11563380Y38570000D01*
X11569848Y38504329D01*
X11589004Y38441181D01*
X11620111Y38382984D01*
X11661974Y38331974D01*
X11712984Y38290111D01*
X11771181Y38259004D01*
X11834329Y38239848D01*
X11900000Y38233380D01*
X13500000Y38233380D01*
X13565671Y38239848D01*
X13628819Y38259004D01*
X13687016Y38290111D01*
X13738026Y38331974D01*
X13779889Y38382984D01*
X13810996Y38441181D01*
X13830152Y38504329D01*
X13836620Y38570000D01*
X13836620Y40170000D01*
X13830152Y40235671D01*
X13810996Y40298819D01*
X13779889Y40357016D01*
X13738026Y40408026D01*
X13687016Y40449889D01*
X13628819Y40480996D01*
X13607379Y40487500D01*
X14303810Y40487500D01*
X14303810Y38067500D01*
X16176191Y38067500D01*
X16176191Y39481788D01*
X19185000Y39481788D01*
X19185000Y39258212D01*
X19228617Y39038933D01*
X19314176Y38832376D01*
X19438388Y38646480D01*
X19596480Y38488388D01*
X19782376Y38364176D01*
X19988933Y38278617D01*
X20208212Y38235000D01*
X20431788Y38235000D01*
X20651067Y38278617D01*
X20857624Y38364176D01*
X21043520Y38488388D01*
X21201612Y38646480D01*
X21325824Y38832376D01*
X21411383Y39038933D01*
X21455000Y39258212D01*
X21455000Y39481788D01*
X21411383Y39701067D01*
X21325824Y39907624D01*
X21201612Y40093520D01*
X21043520Y40251612D01*
X20857624Y40375824D01*
X20651067Y40461383D01*
X20431788Y40505000D01*
X20208212Y40505000D01*
X19988933Y40461383D01*
X19782376Y40375824D01*
X19596480Y40251612D01*
X19438388Y40093520D01*
X19314176Y39907624D01*
X19228617Y39701067D01*
X19185000Y39481788D01*
X16176191Y39481788D01*
X16176191Y40487500D01*
X14303810Y40487500D01*
X13607379Y40487500D01*
X13565671Y40500152D01*
X13500000Y40506620D01*
X13435000Y40506620D01*
X13435000Y41757500D01*
X25710000Y41757500D01*
X25710000Y39337500D01*
X27630000Y39337500D01*
X27630000Y41757500D01*
X25710000Y41757500D01*
X13435000Y41757500D01*
X13435000Y45185521D01*
X13551013Y45263038D01*
X13736962Y45448987D01*
X13883061Y45667641D01*
X13902678Y45715000D01*
X17997322Y45715000D01*
X18016939Y45667641D01*
X18163038Y45448987D01*
X18348987Y45263038D01*
X18567641Y45116939D01*
X18810595Y45016304D01*
X19068514Y44965000D01*
X19331486Y44965000D01*
X19589405Y45016304D01*
X19832359Y45116939D01*
X20051013Y45263038D01*
X20236962Y45448987D01*
X20381296Y45665000D01*
X21825000Y45665000D01*
X21825000Y45618061D01*
X21864774Y45418102D01*
X21942795Y45229744D01*
X22056063Y45060226D01*
X22200226Y44916063D01*
X22369744Y44802795D01*
X22558102Y44724774D01*
X22758061Y44685000D01*
X22961939Y44685000D01*
X23161898Y44724774D01*
X23350256Y44802795D01*
X23519774Y44916063D01*
X23663937Y45060226D01*
X23777205Y45229744D01*
X23855226Y45418102D01*
X23895000Y45618061D01*
X23895000Y45821939D01*
X23855226Y46021898D01*
X23777205Y46210256D01*
X23663937Y46379774D01*
X23519774Y46523937D01*
X23350256Y46637205D01*
X23161898Y46715226D01*
X22961939Y46755000D01*
X22758061Y46755000D01*
X22732265Y46749869D01*
X22731185Y46751185D01*
X22634494Y46830537D01*
X22621468Y46837500D01*
X33210953Y46837500D01*
X33210953Y44417500D01*
X35369048Y44417500D01*
X35369048Y46837500D01*
X33210953Y46837500D01*
X22621468Y46837500D01*
X22524180Y46889502D01*
X22404482Y46925812D01*
X22311192Y46935000D01*
X22311181Y46935000D01*
X22280000Y46938071D01*
X22248819Y46935000D01*
X20381296Y46935000D01*
X20236962Y47151013D01*
X20051013Y47336962D01*
X19832359Y47483061D01*
X19589405Y47583696D01*
X19331486Y47635000D01*
X19068514Y47635000D01*
X18810595Y47583696D01*
X18567641Y47483061D01*
X18348987Y47336962D01*
X18163038Y47151013D01*
X18016939Y46932359D01*
X17997322Y46885000D01*
X13902678Y46885000D01*
X13883061Y46932359D01*
X13736962Y47151013D01*
X13551013Y47336962D01*
X13332359Y47483061D01*
X13089405Y47583696D01*
X12831486Y47635000D01*
X12568514Y47635000D01*
X12310595Y47583696D01*
X12067641Y47483061D01*
X11848987Y47336962D01*
X11663038Y47151013D01*
X11516939Y46932359D01*
X11416304Y46689405D01*
X11365000Y46431486D01*
X127000Y46431486D01*
X127000Y49664587D01*
X11744192Y49664587D01*
X11839956Y49400186D01*
X12129571Y49259296D01*
X12441108Y49177616D01*
X12762595Y49158282D01*
X13081675Y49202039D01*
X13386088Y49307205D01*
X13560044Y49400186D01*
X13655808Y49664587D01*
X18244192Y49664587D01*
X18339956Y49400186D01*
X18629571Y49259296D01*
X18941108Y49177616D01*
X19262595Y49158282D01*
X19581675Y49202039D01*
X19886088Y49307205D01*
X20060044Y49400186D01*
X20155808Y49664587D01*
X19200000Y50620395D01*
X18244192Y49664587D01*
X13655808Y49664587D01*
X12700000Y50620395D01*
X11744192Y49664587D01*
X127000Y49664587D01*
X127000Y50737405D01*
X11058282Y50737405D01*
X11102039Y50418325D01*
X11207205Y50113912D01*
X11300186Y49939956D01*
X11564587Y49844192D01*
X12520395Y50800000D01*
X12879605Y50800000D01*
X13835413Y49844192D01*
X14099814Y49939956D01*
X14240704Y50229571D01*
X14322384Y50541108D01*
X14334189Y50737405D01*
X17558282Y50737405D01*
X17602039Y50418325D01*
X17707205Y50113912D01*
X17800186Y49939956D01*
X18064587Y49844192D01*
X19020395Y50800000D01*
X19379605Y50800000D01*
X20335413Y49844192D01*
X20599814Y49939956D01*
X20740704Y50229571D01*
X20802867Y50466671D01*
X27917284Y50466671D01*
X27949953Y50358956D01*
X28060208Y50121608D01*
X28214649Y49910330D01*
X28407340Y49733241D01*
X28630877Y49597147D01*
X28876670Y49507278D01*
X29083000Y49629799D01*
X29083000Y50673000D01*
X29337000Y50673000D01*
X29337000Y49629799D01*
X29543330Y49507278D01*
X29789123Y49597147D01*
X30012660Y49733241D01*
X30205351Y49910330D01*
X30359792Y50121608D01*
X30470047Y50358956D01*
X30502716Y50466671D01*
X30379374Y50673000D01*
X29337000Y50673000D01*
X29083000Y50673000D01*
X28040626Y50673000D01*
X27917284Y50466671D01*
X20802867Y50466671D01*
X20822384Y50541108D01*
X20841718Y50862595D01*
X20804591Y51133329D01*
X27917284Y51133329D01*
X28040626Y50927000D01*
X29083000Y50927000D01*
X29083000Y51970201D01*
X29337000Y51970201D01*
X29337000Y50927000D01*
X30379374Y50927000D01*
X30502716Y51133329D01*
X30470047Y51241044D01*
X30359792Y51478392D01*
X30205351Y51689670D01*
X30012660Y51866759D01*
X29789123Y52002853D01*
X29543330Y52092722D01*
X29337000Y51970201D01*
X29083000Y51970201D01*
X28876670Y52092722D01*
X28630877Y52002853D01*
X28407340Y51866759D01*
X28214649Y51689670D01*
X28060208Y51478392D01*
X27949953Y51241044D01*
X27917284Y51133329D01*
X20804591Y51133329D01*
X20797961Y51181675D01*
X20692795Y51486088D01*
X20599814Y51660044D01*
X20335413Y51755808D01*
X19379605Y50800000D01*
X19020395Y50800000D01*
X18064587Y51755808D01*
X17800186Y51660044D01*
X17659296Y51370429D01*
X17577616Y51058892D01*
X17558282Y50737405D01*
X14334189Y50737405D01*
X14341718Y50862595D01*
X14297961Y51181675D01*
X14192795Y51486088D01*
X14099814Y51660044D01*
X13835413Y51755808D01*
X12879605Y50800000D01*
X12520395Y50800000D01*
X11564587Y51755808D01*
X11300186Y51660044D01*
X11159296Y51370429D01*
X11077616Y51058892D01*
X11058282Y50737405D01*
X127000Y50737405D01*
X127000Y51935413D01*
X11744192Y51935413D01*
X12700000Y50979605D01*
X13655808Y51935413D01*
X18244192Y51935413D01*
X19200000Y50979605D01*
X20155808Y51935413D01*
X20060044Y52199814D01*
X19770429Y52340704D01*
X19458892Y52422384D01*
X19137405Y52441718D01*
X18818325Y52397961D01*
X18513912Y52292795D01*
X18339956Y52199814D01*
X18244192Y51935413D01*
X13655808Y51935413D01*
X13560044Y52199814D01*
X13270429Y52340704D01*
X12958892Y52422384D01*
X12637405Y52441718D01*
X12318325Y52397961D01*
X12013912Y52292795D01*
X11839956Y52199814D01*
X11744192Y51935413D01*
X127000Y51935413D01*
X127000Y57023000D01*
X59563000Y57023000D01*
X59563000Y127000D01*
G37*
X59563000Y127000D02*
X127000Y127000D01*
X127000Y3657500D01*
X38656191Y3657500D01*
X38656191Y1237500D01*
X42623810Y1237500D01*
X42623810Y3657500D01*
X38656191Y3657500D01*
X127000Y3657500D01*
X127000Y6461788D01*
X11565000Y6461788D01*
X11565000Y6238212D01*
X11608617Y6018933D01*
X11694176Y5812376D01*
X11818388Y5626480D01*
X11976480Y5468388D01*
X12162376Y5344176D01*
X12368933Y5258617D01*
X12588212Y5215000D01*
X12811788Y5215000D01*
X13031067Y5258617D01*
X13237624Y5344176D01*
X13423520Y5468388D01*
X13581612Y5626480D01*
X13705824Y5812376D01*
X13791383Y6018933D01*
X13835000Y6238212D01*
X13835000Y6461788D01*
X19185000Y6461788D01*
X19185000Y6238212D01*
X19228617Y6018933D01*
X19314176Y5812376D01*
X19438388Y5626480D01*
X19596480Y5468388D01*
X19782376Y5344176D01*
X19988933Y5258617D01*
X20208212Y5215000D01*
X20431788Y5215000D01*
X20651067Y5258617D01*
X20857624Y5344176D01*
X21043520Y5468388D01*
X21201612Y5626480D01*
X21260759Y5715000D01*
X26592846Y5715000D01*
X26733551Y5543551D01*
X26906377Y5401716D01*
X27103553Y5296324D01*
X27317501Y5231423D01*
X27484248Y5215000D01*
X28395752Y5215000D01*
X28562499Y5231423D01*
X28776447Y5296324D01*
X28973623Y5401716D01*
X29146449Y5543551D01*
X29151741Y5550000D01*
X38801928Y5550000D01*
X38814188Y5425518D01*
X38850498Y5305820D01*
X38909463Y5195506D01*
X38988815Y5098815D01*
X39085506Y5019463D01*
X39195820Y4960498D01*
X39315518Y4924188D01*
X39440000Y4911928D01*
X40354250Y4915000D01*
X40513000Y5073750D01*
X40513000Y6223000D01*
X40767000Y6223000D01*
X40767000Y5073750D01*
X40925750Y4915000D01*
X41840000Y4911928D01*
X41964482Y4924188D01*
X42084180Y4960498D01*
X42194494Y5019463D01*
X42291185Y5098815D01*
X42370537Y5195506D01*
X42429502Y5305820D01*
X42465812Y5425518D01*
X42478072Y5550000D01*
X42475000Y6064250D01*
X42316250Y6223000D01*
X40767000Y6223000D01*
X40513000Y6223000D01*
X38963750Y6223000D01*
X38805000Y6064250D01*
X38801928Y5550000D01*
X29151741Y5550000D01*
X29288284Y5716377D01*
X29393676Y5913553D01*
X29458577Y6127501D01*
X29480491Y6350000D01*
X29458577Y6572499D01*
X29393676Y6786447D01*
X29288284Y6983623D01*
X29146449Y7156449D01*
X28973623Y7298284D01*
X28776447Y7403676D01*
X28562499Y7468577D01*
X28395752Y7485000D01*
X27484248Y7485000D01*
X27317501Y7468577D01*
X27103553Y7403676D01*
X26906377Y7298284D01*
X26733551Y7156449D01*
X26592846Y6985000D01*
X21260759Y6985000D01*
X21201612Y7073520D01*
X21043520Y7231612D01*
X20857624Y7355824D01*
X20651067Y7441383D01*
X20431788Y7485000D01*
X20208212Y7485000D01*
X19988933Y7441383D01*
X19782376Y7355824D01*
X19596480Y7231612D01*
X19438388Y7073520D01*
X19314176Y6887624D01*
X19228617Y6681067D01*
X19185000Y6461788D01*
X13835000Y6461788D01*
X13791383Y6681067D01*
X13705824Y6887624D01*
X13581612Y7073520D01*
X13423520Y7231612D01*
X13237624Y7355824D01*
X13031067Y7441383D01*
X12811788Y7485000D01*
X12588212Y7485000D01*
X12368933Y7441383D01*
X12162376Y7355824D01*
X11976480Y7231612D01*
X11818388Y7073520D01*
X11694176Y6887624D01*
X11608617Y6681067D01*
X11565000Y6461788D01*
X127000Y6461788D01*
X127000Y9001788D01*
X11565000Y9001788D01*
X11565000Y8778212D01*
X11608617Y8558933D01*
X11694176Y8352376D01*
X11818388Y8166480D01*
X11976480Y8008388D01*
X12162376Y7884176D01*
X12368933Y7798617D01*
X12588212Y7755000D01*
X12811788Y7755000D01*
X13031067Y7798617D01*
X13237624Y7884176D01*
X13423520Y8008388D01*
X13581612Y8166480D01*
X13705824Y8352376D01*
X13791383Y8558933D01*
X13835000Y8778212D01*
X13835000Y9001788D01*
X19185000Y9001788D01*
X19185000Y8778212D01*
X19228617Y8558933D01*
X19314176Y8352376D01*
X19438388Y8166480D01*
X19596480Y8008388D01*
X19782376Y7884176D01*
X19988933Y7798617D01*
X20208212Y7755000D01*
X20431788Y7755000D01*
X20651067Y7798617D01*
X20857624Y7884176D01*
X21043520Y8008388D01*
X21201612Y8166480D01*
X21260759Y8255000D01*
X26592846Y8255000D01*
X26733551Y8083551D01*
X26906377Y7941716D01*
X27103553Y7836324D01*
X27317501Y7771423D01*
X27484248Y7755000D01*
X28395752Y7755000D01*
X28562499Y7771423D01*
X28776447Y7836324D01*
X28973623Y7941716D01*
X29146449Y8083551D01*
X29288284Y8256377D01*
X29393676Y8453553D01*
X29458577Y8667501D01*
X29480491Y8890000D01*
X29458577Y9112499D01*
X29393676Y9326447D01*
X29288284Y9523623D01*
X29146449Y9696449D01*
X28973623Y9838284D01*
X28776447Y9943676D01*
X28562499Y10008577D01*
X28547043Y10010099D01*
X28744514Y10047350D01*
X29006483Y10152834D01*
X29242839Y10307399D01*
X29444500Y10505105D01*
X29603715Y10738354D01*
X29714367Y10998182D01*
X29731904Y11080961D01*
X29609915Y11303000D01*
X28067000Y11303000D01*
X28067000Y11283000D01*
X27813000Y11283000D01*
X27813000Y11303000D01*
X26270085Y11303000D01*
X26148096Y11080961D01*
X26165633Y10998182D01*
X26276285Y10738354D01*
X26435500Y10505105D01*
X26637161Y10307399D01*
X26873517Y10152834D01*
X27135486Y10047350D01*
X27332957Y10010099D01*
X27317501Y10008577D01*
X27103553Y9943676D01*
X26906377Y9838284D01*
X26733551Y9696449D01*
X26592846Y9525000D01*
X21260759Y9525000D01*
X21201612Y9613520D01*
X21043520Y9771612D01*
X20857624Y9895824D01*
X20651067Y9981383D01*
X20431788Y10025000D01*
X20208212Y10025000D01*
X19988933Y9981383D01*
X19782376Y9895824D01*
X19596480Y9771612D01*
X19438388Y9613520D01*
X19314176Y9427624D01*
X19228617Y9221067D01*
X19185000Y9001788D01*
X13835000Y9001788D01*
X13791383Y9221067D01*
X13705824Y9427624D01*
X13581612Y9613520D01*
X13423520Y9771612D01*
X13237624Y9895824D01*
X13031067Y9981383D01*
X12811788Y10025000D01*
X12588212Y10025000D01*
X12368933Y9981383D01*
X12162376Y9895824D01*
X11976480Y9771612D01*
X11818388Y9613520D01*
X11694176Y9427624D01*
X11608617Y9221067D01*
X11565000Y9001788D01*
X127000Y9001788D01*
X127000Y11541788D01*
X3985000Y11541788D01*
X3985000Y11318212D01*
X4028617Y11098933D01*
X4114176Y10892376D01*
X4238388Y10706480D01*
X4396480Y10548388D01*
X4582376Y10424176D01*
X4788933Y10338617D01*
X5008212Y10295000D01*
X5231788Y10295000D01*
X5451067Y10338617D01*
X5657624Y10424176D01*
X5677262Y10437298D01*
X6806903Y10437298D01*
X6878486Y10193329D01*
X7133996Y10072429D01*
X7408184Y10003700D01*
X7690512Y9989783D01*
X7970130Y10031213D01*
X8236292Y10126397D01*
X8361514Y10193329D01*
X8433097Y10437298D01*
X7620000Y11250395D01*
X6806903Y10437298D01*
X5677262Y10437298D01*
X5843520Y10548388D01*
X6001612Y10706480D01*
X6125824Y10892376D01*
X6211383Y11098933D01*
X6215398Y11119117D01*
X6221213Y11079870D01*
X6316397Y10813708D01*
X6383329Y10688486D01*
X6627298Y10616903D01*
X7440395Y11430000D01*
X7799605Y11430000D01*
X8612702Y10616903D01*
X8856671Y10688486D01*
X8977571Y10943996D01*
X9046300Y11218184D01*
X9060217Y11500512D01*
X9054102Y11541788D01*
X11565000Y11541788D01*
X11565000Y11318212D01*
X11608617Y11098933D01*
X11694176Y10892376D01*
X11818388Y10706480D01*
X11976480Y10548388D01*
X12162376Y10424176D01*
X12368933Y10338617D01*
X12588212Y10295000D01*
X12811788Y10295000D01*
X13031067Y10338617D01*
X13237624Y10424176D01*
X13423520Y10548388D01*
X13581612Y10706480D01*
X13705824Y10892376D01*
X13791383Y11098933D01*
X13835000Y11318212D01*
X13835000Y11541788D01*
X13791383Y11761067D01*
X13705824Y11967624D01*
X13581612Y12153520D01*
X13423520Y12311612D01*
X13237624Y12435824D01*
X13031067Y12521383D01*
X12811788Y12565000D01*
X12588212Y12565000D01*
X12368933Y12521383D01*
X12162376Y12435824D01*
X11976480Y12311612D01*
X11818388Y12153520D01*
X11694176Y11967624D01*
X11608617Y11761067D01*
X11565000Y11541788D01*
X9054102Y11541788D01*
X9018787Y11780130D01*
X8923603Y12046292D01*
X8856671Y12171514D01*
X8612702Y12243097D01*
X7799605Y11430000D01*
X7440395Y11430000D01*
X6627298Y12243097D01*
X6383329Y12171514D01*
X6262429Y11916004D01*
X6216785Y11733910D01*
X6211383Y11761067D01*
X6125824Y11967624D01*
X6001612Y12153520D01*
X5843520Y12311612D01*
X5755000Y12370759D01*
X5755000Y12422702D01*
X6806903Y12422702D01*
X7620000Y11609605D01*
X8433097Y12422702D01*
X8361514Y12666671D01*
X8106004Y12787571D01*
X7831816Y12856300D01*
X7549488Y12870217D01*
X7269870Y12828787D01*
X7003708Y12733603D01*
X6878486Y12666671D01*
X6806903Y12422702D01*
X5755000Y12422702D01*
X5755000Y14081788D01*
X11565000Y14081788D01*
X11565000Y13858212D01*
X11608617Y13638933D01*
X11694176Y13432376D01*
X11818388Y13246480D01*
X11976480Y13088388D01*
X12162376Y12964176D01*
X12368933Y12878617D01*
X12588212Y12835000D01*
X12811788Y12835000D01*
X13031067Y12878617D01*
X13237624Y12964176D01*
X13423520Y13088388D01*
X13581612Y13246480D01*
X13705824Y13432376D01*
X13791383Y13638933D01*
X13835000Y13858212D01*
X13835000Y14081788D01*
X13791383Y14301067D01*
X13705824Y14507624D01*
X13581612Y14693520D01*
X13423520Y14851612D01*
X13237624Y14975824D01*
X13031067Y15061383D01*
X12811788Y15105000D01*
X12588212Y15105000D01*
X12368933Y15061383D01*
X12162376Y14975824D01*
X11976480Y14851612D01*
X11818388Y14693520D01*
X11694176Y14507624D01*
X11608617Y14301067D01*
X11565000Y14081788D01*
X5755000Y14081788D01*
X5755000Y15096976D01*
X6091273Y15433248D01*
X6233288Y15405000D01*
X6466712Y15405000D01*
X6695652Y15450539D01*
X6911308Y15539866D01*
X7105394Y15669550D01*
X7270450Y15834606D01*
X7297440Y15875000D01*
X11759241Y15875000D01*
X11818388Y15786480D01*
X11976480Y15628388D01*
X12162376Y15504176D01*
X12368933Y15418617D01*
X12588212Y15375000D01*
X12811788Y15375000D01*
X13031067Y15418617D01*
X13237624Y15504176D01*
X13423520Y15628388D01*
X13581612Y15786480D01*
X13705824Y15972376D01*
X13791383Y16178933D01*
X13835000Y16398212D01*
X13835000Y16621788D01*
X19185000Y16621788D01*
X19185000Y16398212D01*
X19228617Y16178933D01*
X19314176Y15972376D01*
X19438388Y15786480D01*
X19596480Y15628388D01*
X19782376Y15504176D01*
X19988933Y15418617D01*
X20208212Y15375000D01*
X20431788Y15375000D01*
X20651067Y15418617D01*
X20857624Y15504176D01*
X21043520Y15628388D01*
X21201612Y15786480D01*
X21325824Y15972376D01*
X21411383Y16178933D01*
X21455000Y16398212D01*
X21455000Y16621788D01*
X21434230Y16726206D01*
X26410596Y21702571D01*
X26399509Y21590000D01*
X26421423Y21367501D01*
X26486324Y21153553D01*
X26527846Y21075871D01*
X20536206Y15084230D01*
X20431788Y15105000D01*
X20208212Y15105000D01*
X19988933Y15061383D01*
X19782376Y14975824D01*
X19596480Y14851612D01*
X19438388Y14693520D01*
X19314176Y14507624D01*
X19228617Y14301067D01*
X19185000Y14081788D01*
X19185000Y13858212D01*
X19228617Y13638933D01*
X19314176Y13432376D01*
X19438388Y13246480D01*
X19596480Y13088388D01*
X19782376Y12964176D01*
X19988933Y12878617D01*
X20208212Y12835000D01*
X20431788Y12835000D01*
X20651067Y12878617D01*
X20857624Y12964176D01*
X21043520Y13088388D01*
X21201612Y13246480D01*
X21325824Y13432376D01*
X21411383Y13638933D01*
X21455000Y13858212D01*
X21455000Y14081788D01*
X21434230Y14186206D01*
X26410596Y19162571D01*
X26399509Y19050000D01*
X26421423Y18827501D01*
X26486324Y18613553D01*
X26527846Y18535871D01*
X20536206Y12544230D01*
X20431788Y12565000D01*
X20208212Y12565000D01*
X19988933Y12521383D01*
X19782376Y12435824D01*
X19596480Y12311612D01*
X19438388Y12153520D01*
X19314176Y11967624D01*
X19228617Y11761067D01*
X19185000Y11541788D01*
X19185000Y11318212D01*
X19228617Y11098933D01*
X19314176Y10892376D01*
X19438388Y10706480D01*
X19596480Y10548388D01*
X19782376Y10424176D01*
X19988933Y10338617D01*
X20208212Y10295000D01*
X20431788Y10295000D01*
X20651067Y10338617D01*
X20857624Y10424176D01*
X21043520Y10548388D01*
X21201612Y10706480D01*
X21325824Y10892376D01*
X21411383Y11098933D01*
X21455000Y11318212D01*
X21455000Y11541788D01*
X21434230Y11646206D01*
X23408985Y13620961D01*
X26148096Y13620961D01*
X26165633Y13538182D01*
X26276285Y13278354D01*
X26435500Y13045105D01*
X26637161Y12847399D01*
X26862559Y12700000D01*
X26637161Y12552601D01*
X26435500Y12354895D01*
X26276285Y12121646D01*
X26165633Y11861818D01*
X26148096Y11779039D01*
X26270085Y11557000D01*
X27813000Y11557000D01*
X27813000Y13843000D01*
X28067000Y13843000D01*
X28067000Y11557000D01*
X29609915Y11557000D01*
X29731904Y11779039D01*
X29714367Y11861818D01*
X29603715Y12121646D01*
X29444500Y12354895D01*
X29242839Y12552601D01*
X29017441Y12700000D01*
X29242839Y12847399D01*
X29444500Y13045105D01*
X29603715Y13278354D01*
X29714367Y13538182D01*
X29731904Y13620961D01*
X29609915Y13843000D01*
X28067000Y13843000D01*
X27813000Y13843000D01*
X26270085Y13843000D01*
X26148096Y13620961D01*
X23408985Y13620961D01*
X26171023Y16382998D01*
X26270084Y16382998D01*
X26148096Y16160961D01*
X26165633Y16078182D01*
X26276285Y15818354D01*
X26435500Y15585105D01*
X26637161Y15387399D01*
X26862559Y15240000D01*
X26637161Y15092601D01*
X26435500Y14894895D01*
X26276285Y14661646D01*
X26165633Y14401818D01*
X26148096Y14319039D01*
X26270085Y14097000D01*
X27813000Y14097000D01*
X27813000Y16383000D01*
X28067000Y16383000D01*
X28067000Y14097000D01*
X29609915Y14097000D01*
X29731904Y14319039D01*
X29714367Y14401818D01*
X29603715Y14661646D01*
X29444500Y14894895D01*
X29242839Y15092601D01*
X29017441Y15240000D01*
X29242839Y15387399D01*
X29444500Y15585105D01*
X29603715Y15818354D01*
X29714367Y16078182D01*
X29731904Y16160961D01*
X29609915Y16383000D01*
X28067000Y16383000D01*
X27813000Y16383000D01*
X27793000Y16383000D01*
X27793000Y16637000D01*
X27813000Y16637000D01*
X27813000Y16657000D01*
X28067000Y16657000D01*
X28067000Y16637000D01*
X29609915Y16637000D01*
X29731904Y16859039D01*
X29714367Y16941818D01*
X29603715Y17201646D01*
X29444500Y17434895D01*
X29242839Y17632601D01*
X29006483Y17787166D01*
X28744514Y17892650D01*
X28547043Y17929901D01*
X28562499Y17931423D01*
X28776447Y17996324D01*
X28973623Y18101716D01*
X29146449Y18243551D01*
X29288284Y18416377D01*
X29393676Y18613553D01*
X29458577Y18827501D01*
X29480491Y19050000D01*
X29458577Y19272499D01*
X29393676Y19486447D01*
X29288284Y19683623D01*
X29146449Y19856449D01*
X28973623Y19998284D01*
X28776447Y20103676D01*
X28562499Y20168577D01*
X28395752Y20185000D01*
X27484248Y20185000D01*
X27427429Y20179404D01*
X27703025Y20455000D01*
X28395752Y20455000D01*
X28562499Y20471423D01*
X28776447Y20536324D01*
X28973623Y20641716D01*
X29146449Y20783551D01*
X29288284Y20956377D01*
X29393676Y21153553D01*
X29458577Y21367501D01*
X29480491Y21590000D01*
X29458577Y21812499D01*
X29393676Y22026447D01*
X29288284Y22223623D01*
X29146449Y22396449D01*
X28973623Y22538284D01*
X28776447Y22643676D01*
X28562499Y22708577D01*
X28395752Y22725000D01*
X27484248Y22725000D01*
X27427429Y22719404D01*
X27703025Y22995000D01*
X28395752Y22995000D01*
X28562499Y23011423D01*
X28776447Y23076324D01*
X28973623Y23181716D01*
X29115238Y23297937D01*
X29115238Y22827500D01*
X31844762Y22827500D01*
X31844762Y25247500D01*
X29115238Y25247500D01*
X29115238Y24962063D01*
X28973623Y25078284D01*
X28776447Y25183676D01*
X28562499Y25248577D01*
X28395752Y25265000D01*
X27484248Y25265000D01*
X27317501Y25248577D01*
X27103553Y25183676D01*
X26906377Y25078284D01*
X26733551Y24936449D01*
X26591716Y24763623D01*
X26486324Y24566447D01*
X26421423Y24352499D01*
X26399509Y24130000D01*
X26421423Y23907501D01*
X26486324Y23693553D01*
X26527846Y23615871D01*
X20536206Y17624230D01*
X20431788Y17645000D01*
X20208212Y17645000D01*
X19988933Y17601383D01*
X19782376Y17515824D01*
X19596480Y17391612D01*
X19438388Y17233520D01*
X19314176Y17047624D01*
X19228617Y16841067D01*
X19185000Y16621788D01*
X13835000Y16621788D01*
X13791383Y16841067D01*
X13705824Y17047624D01*
X13581612Y17233520D01*
X13423520Y17391612D01*
X13237624Y17515824D01*
X13031067Y17601383D01*
X12811788Y17645000D01*
X12588212Y17645000D01*
X12368933Y17601383D01*
X12162376Y17515824D01*
X11976480Y17391612D01*
X11818388Y17233520D01*
X11759241Y17145000D01*
X7402747Y17145000D01*
X7400134Y17151308D01*
X7270450Y17345394D01*
X7105394Y17510450D01*
X6911308Y17640134D01*
X6695652Y17729461D01*
X6466712Y17775000D01*
X6233288Y17775000D01*
X6004348Y17729461D01*
X5788692Y17640134D01*
X5594606Y17510450D01*
X5429550Y17345394D01*
X5299866Y17151308D01*
X5210539Y16935652D01*
X5165000Y16706712D01*
X5165000Y16473288D01*
X5193248Y16331273D01*
X4693046Y15831070D01*
X4668816Y15811185D01*
X4648932Y15786956D01*
X4589463Y15714493D01*
X4530498Y15604179D01*
X4494189Y15484481D01*
X4481929Y15360000D01*
X4485001Y15328809D01*
X4485000Y12370759D01*
X4396480Y12311612D01*
X4238388Y12153520D01*
X4114176Y11967624D01*
X4028617Y11761067D01*
X3985000Y11541788D01*
X127000Y11541788D01*
X127000Y26781788D01*
X3945000Y26781788D01*
X3945000Y26558212D01*
X3988617Y26338933D01*
X4074176Y26132376D01*
X4198388Y25946480D01*
X4356480Y25788388D01*
X4445000Y25729241D01*
X4445001Y22891191D01*
X4441929Y22860000D01*
X4445001Y22828809D01*
X4445001Y22828808D01*
X4454189Y22735518D01*
X4465203Y22699209D01*
X4490498Y22615821D01*
X4544445Y22514895D01*
X4549464Y22505506D01*
X4628816Y22408815D01*
X4653044Y22388932D01*
X5193249Y21848727D01*
X5165000Y21706712D01*
X5165000Y21473288D01*
X5210539Y21244348D01*
X5299866Y21028692D01*
X5429550Y20834606D01*
X5594606Y20669550D01*
X5788692Y20539866D01*
X6004348Y20450539D01*
X6233288Y20405000D01*
X6466712Y20405000D01*
X6695652Y20450539D01*
X6911308Y20539866D01*
X7105394Y20669550D01*
X7270450Y20834606D01*
X7350895Y20955000D01*
X9896976Y20955000D01*
X11585770Y19266205D01*
X11565000Y19161788D01*
X11565000Y18938212D01*
X11608617Y18718933D01*
X11694176Y18512376D01*
X11818388Y18326480D01*
X11976480Y18168388D01*
X12162376Y18044176D01*
X12368933Y17958617D01*
X12588212Y17915000D01*
X12811788Y17915000D01*
X13031067Y17958617D01*
X13237624Y18044176D01*
X13423520Y18168388D01*
X13581612Y18326480D01*
X13705824Y18512376D01*
X13791383Y18718933D01*
X13835000Y18938212D01*
X13835000Y19161788D01*
X13791383Y19381067D01*
X13705824Y19587624D01*
X13581612Y19773520D01*
X13423520Y19931612D01*
X13237624Y20055824D01*
X13031067Y20141383D01*
X12827002Y20181974D01*
X12827002Y20319375D01*
X13049040Y20198091D01*
X13313881Y20292930D01*
X13555131Y20437615D01*
X13763519Y20626586D01*
X13931037Y20852580D01*
X14051246Y21106913D01*
X14091904Y21240961D01*
X13969915Y21463000D01*
X12827000Y21463000D01*
X12827000Y21443000D01*
X12573000Y21443000D01*
X12573000Y21463000D01*
X11430085Y21463000D01*
X11343189Y21304836D01*
X10631074Y22016950D01*
X10611185Y22041185D01*
X10514494Y22120537D01*
X10404180Y22179502D01*
X10284482Y22215812D01*
X10191192Y22225000D01*
X10191181Y22225000D01*
X10160000Y22228071D01*
X10128819Y22225000D01*
X7350895Y22225000D01*
X7270450Y22345394D01*
X7105394Y22510450D01*
X6911308Y22640134D01*
X6695652Y22729461D01*
X6466712Y22775000D01*
X6233288Y22775000D01*
X6091273Y22746751D01*
X5715000Y23123024D01*
X5715000Y25677298D01*
X6766903Y25677298D01*
X6838486Y25433329D01*
X7093996Y25312429D01*
X7368184Y25243700D01*
X7650512Y25229783D01*
X7930130Y25271213D01*
X8196292Y25366397D01*
X8321514Y25433329D01*
X8393097Y25677298D01*
X7580000Y26490395D01*
X6766903Y25677298D01*
X5715000Y25677298D01*
X5715000Y25729241D01*
X5803520Y25788388D01*
X5961612Y25946480D01*
X6085824Y26132376D01*
X6171383Y26338933D01*
X6175398Y26359117D01*
X6181213Y26319870D01*
X6276397Y26053708D01*
X6343329Y25928486D01*
X6587298Y25856903D01*
X7400395Y26670000D01*
X7759605Y26670000D01*
X8572702Y25856903D01*
X8816671Y25928486D01*
X8937571Y26183996D01*
X9006300Y26458184D01*
X9020217Y26740512D01*
X8978787Y27020130D01*
X8883603Y27286292D01*
X8816671Y27411514D01*
X8572702Y27483097D01*
X7759605Y26670000D01*
X7400395Y26670000D01*
X6587298Y27483097D01*
X6343329Y27411514D01*
X6222429Y27156004D01*
X6176785Y26973910D01*
X6171383Y27001067D01*
X6085824Y27207624D01*
X5961612Y27393520D01*
X5803520Y27551612D01*
X5637263Y27662702D01*
X6766903Y27662702D01*
X7580000Y26849605D01*
X8393097Y27662702D01*
X8321514Y27906671D01*
X8066004Y28027571D01*
X7791816Y28096300D01*
X7509488Y28110217D01*
X7229870Y28068787D01*
X6963708Y27973603D01*
X6838486Y27906671D01*
X6766903Y27662702D01*
X5637263Y27662702D01*
X5617624Y27675824D01*
X5411067Y27761383D01*
X5191788Y27805000D01*
X4968212Y27805000D01*
X4748933Y27761383D01*
X4542376Y27675824D01*
X4356480Y27551612D01*
X4198388Y27393520D01*
X4074176Y27207624D01*
X3988617Y27001067D01*
X3945000Y26781788D01*
X127000Y26781788D01*
X127000Y30480000D01*
X1901928Y30480000D01*
X1914188Y30355518D01*
X1950498Y30235820D01*
X2009463Y30125506D01*
X2088815Y30028815D01*
X2185506Y29949463D01*
X2295820Y29890498D01*
X2415518Y29854188D01*
X2508808Y29845000D01*
X2508809Y29845000D01*
X2540000Y29841928D01*
X2571192Y29845000D01*
X7356976Y29845000D01*
X9525000Y27676974D01*
X9525001Y25431192D01*
X9521929Y25400000D01*
X9525001Y25368809D01*
X9525001Y25368808D01*
X9534189Y25275518D01*
X9542688Y25247500D01*
X9570498Y25155821D01*
X9629463Y25045507D01*
X9629464Y25045506D01*
X9708816Y24948815D01*
X9733044Y24928932D01*
X10958930Y23703045D01*
X10978815Y23678815D01*
X11003043Y23658932D01*
X11075505Y23599463D01*
X11185820Y23540498D01*
X11305518Y23504188D01*
X11398808Y23495000D01*
X11398818Y23495000D01*
X11429999Y23491929D01*
X11461180Y23495000D01*
X11759241Y23495000D01*
X11818388Y23406480D01*
X11976480Y23248388D01*
X12162376Y23124176D01*
X12368933Y23038617D01*
X12572998Y22998026D01*
X12572998Y22860625D01*
X12350960Y22981909D01*
X12086119Y22887070D01*
X11844869Y22742385D01*
X11636481Y22553414D01*
X11468963Y22327420D01*
X11348754Y22073087D01*
X11308096Y21939039D01*
X11430085Y21717000D01*
X12573000Y21717000D01*
X12573000Y21737000D01*
X12827000Y21737000D01*
X12827000Y21717000D01*
X13969915Y21717000D01*
X14091904Y21939039D01*
X14051246Y22073087D01*
X13931037Y22327420D01*
X13763519Y22553414D01*
X13555131Y22742385D01*
X13313881Y22887070D01*
X13049040Y22981909D01*
X12827002Y22860625D01*
X12827002Y22998026D01*
X13031067Y23038617D01*
X13237624Y23124176D01*
X13423520Y23248388D01*
X13581612Y23406480D01*
X13640759Y23495000D01*
X17516976Y23495000D01*
X19205770Y21806205D01*
X19185000Y21701788D01*
X19185000Y21478212D01*
X19228617Y21258933D01*
X19314176Y21052376D01*
X19438388Y20866480D01*
X19596480Y20708388D01*
X19685000Y20649240D01*
X19685001Y19990760D01*
X19596480Y19931612D01*
X19438388Y19773520D01*
X19314176Y19587624D01*
X19228617Y19381067D01*
X19185000Y19161788D01*
X19185000Y18938212D01*
X19228617Y18718933D01*
X19314176Y18512376D01*
X19438388Y18326480D01*
X19596480Y18168388D01*
X19782376Y18044176D01*
X19988933Y17958617D01*
X20208212Y17915000D01*
X20431788Y17915000D01*
X20651067Y17958617D01*
X20857624Y18044176D01*
X21043520Y18168388D01*
X21201612Y18326480D01*
X21325824Y18512376D01*
X21411383Y18718933D01*
X21455000Y18938212D01*
X21455000Y19161788D01*
X21411383Y19381067D01*
X21325824Y19587624D01*
X21201612Y19773520D01*
X21043520Y19931612D01*
X20955000Y19990759D01*
X20955000Y20649241D01*
X21043520Y20708388D01*
X21201612Y20866480D01*
X21260759Y20955000D01*
X21558819Y20955000D01*
X21590000Y20951929D01*
X21621181Y20955000D01*
X21621192Y20955000D01*
X21714482Y20964188D01*
X21834180Y21000498D01*
X21944494Y21059463D01*
X22041185Y21138815D01*
X22061074Y21163050D01*
X23286957Y22388932D01*
X23311185Y22408815D01*
X23362721Y22471612D01*
X23390537Y22505505D01*
X23449502Y22615820D01*
X23449502Y22615821D01*
X23485812Y22735518D01*
X23495000Y22828808D01*
X23495000Y22828818D01*
X23498071Y22859999D01*
X23495000Y22891180D01*
X23495000Y25136976D01*
X26933026Y28575000D01*
X30287686Y28575000D01*
X32385000Y26477685D01*
X32385001Y14001191D01*
X32381929Y13970000D01*
X32394189Y13845519D01*
X32430498Y13725821D01*
X32486548Y13620961D01*
X32489464Y13615506D01*
X32568816Y13518815D01*
X32593044Y13498932D01*
X37628930Y8463045D01*
X37648815Y8438815D01*
X37673043Y8418932D01*
X37745506Y8359462D01*
X37855820Y8300498D01*
X37975518Y8264188D01*
X38068808Y8255000D01*
X38068811Y8255000D01*
X38100000Y8251928D01*
X38131189Y8255000D01*
X39292846Y8255000D01*
X39433551Y8083551D01*
X39606377Y7941716D01*
X39803553Y7836324D01*
X39968471Y7786296D01*
X39440000Y7788072D01*
X39315518Y7775812D01*
X39195820Y7739502D01*
X39085506Y7680537D01*
X38988815Y7601185D01*
X38909463Y7504494D01*
X38850498Y7394180D01*
X38814188Y7274482D01*
X38801928Y7150000D01*
X38805000Y6635750D01*
X38963750Y6477000D01*
X40513000Y6477000D01*
X40513000Y6497000D01*
X40767000Y6497000D01*
X40767000Y6477000D01*
X42316250Y6477000D01*
X42475000Y6635750D01*
X42478072Y7150000D01*
X42465812Y7274482D01*
X42429502Y7394180D01*
X42370537Y7504494D01*
X42291185Y7601185D01*
X42194494Y7680537D01*
X42084180Y7739502D01*
X41964482Y7775812D01*
X41840000Y7788072D01*
X41311529Y7786296D01*
X41476447Y7836324D01*
X41673623Y7941716D01*
X41846449Y8083551D01*
X41988284Y8256377D01*
X42093676Y8453553D01*
X42158577Y8667501D01*
X42180491Y8890000D01*
X42169404Y9002572D01*
X45248930Y5923045D01*
X45268815Y5898815D01*
X45293043Y5878932D01*
X45365506Y5819462D01*
X45475820Y5760498D01*
X45595518Y5724188D01*
X45688808Y5715000D01*
X45688811Y5715000D01*
X45720000Y5711928D01*
X45751189Y5715000D01*
X49799105Y5715000D01*
X49879550Y5594606D01*
X50044606Y5429550D01*
X50238692Y5299866D01*
X50454348Y5210539D01*
X50683288Y5165000D01*
X50916712Y5165000D01*
X51145652Y5210539D01*
X51361308Y5299866D01*
X51555394Y5429550D01*
X51720450Y5594606D01*
X51850134Y5788692D01*
X51939461Y6004348D01*
X51985000Y6233288D01*
X51985000Y6466712D01*
X51939461Y6695652D01*
X51850134Y6911308D01*
X51720450Y7105394D01*
X51555394Y7270450D01*
X51361308Y7400134D01*
X51145652Y7489461D01*
X50916712Y7535000D01*
X50683288Y7535000D01*
X50454348Y7489461D01*
X50238692Y7400134D01*
X50044606Y7270450D01*
X49879550Y7105394D01*
X49799105Y6985000D01*
X45983025Y6985000D01*
X42052154Y10915870D01*
X42093676Y10993553D01*
X42158577Y11207501D01*
X42180491Y11430000D01*
X42169404Y11542572D01*
X45248930Y8463045D01*
X45268815Y8438815D01*
X45293043Y8418932D01*
X45365506Y8359462D01*
X45475820Y8300498D01*
X45595518Y8264188D01*
X45688808Y8255000D01*
X45688811Y8255000D01*
X45720000Y8251928D01*
X45751189Y8255000D01*
X49799105Y8255000D01*
X49879550Y8134606D01*
X50044606Y7969550D01*
X50238692Y7839866D01*
X50454348Y7750539D01*
X50683288Y7705000D01*
X50916712Y7705000D01*
X51145652Y7750539D01*
X51361308Y7839866D01*
X51555394Y7969550D01*
X51720450Y8134606D01*
X51850134Y8328692D01*
X51939461Y8544348D01*
X51985000Y8773288D01*
X51985000Y9006712D01*
X51939461Y9235652D01*
X51850134Y9451308D01*
X51720450Y9645394D01*
X51555394Y9810450D01*
X51361308Y9940134D01*
X51145652Y10029461D01*
X50916712Y10075000D01*
X50683288Y10075000D01*
X50454348Y10029461D01*
X50238692Y9940134D01*
X50044606Y9810450D01*
X49879550Y9645394D01*
X49799105Y9525000D01*
X45983025Y9525000D01*
X42052154Y13455870D01*
X42093676Y13533553D01*
X42158577Y13747501D01*
X42180491Y13970000D01*
X42169404Y14082572D01*
X45248930Y11003045D01*
X45268815Y10978815D01*
X45293043Y10958932D01*
X45365506Y10899462D01*
X45475820Y10840498D01*
X45595518Y10804188D01*
X45688808Y10795000D01*
X45688811Y10795000D01*
X45720000Y10791928D01*
X45751189Y10795000D01*
X49799105Y10795000D01*
X49879550Y10674606D01*
X50044606Y10509550D01*
X50238692Y10379866D01*
X50454348Y10290539D01*
X50683288Y10245000D01*
X50916712Y10245000D01*
X51145652Y10290539D01*
X51361308Y10379866D01*
X51555394Y10509550D01*
X51720450Y10674606D01*
X51850134Y10868692D01*
X51939461Y11084348D01*
X51985000Y11313288D01*
X51985000Y11546712D01*
X51939461Y11775652D01*
X51850134Y11991308D01*
X51720450Y12185394D01*
X51555394Y12350450D01*
X51361308Y12480134D01*
X51253566Y12524762D01*
X54762500Y12524762D01*
X54762500Y7795238D01*
X57182500Y7795238D01*
X57182500Y12524762D01*
X54762500Y12524762D01*
X51253566Y12524762D01*
X51145652Y12569461D01*
X50916712Y12615000D01*
X50683288Y12615000D01*
X50454348Y12569461D01*
X50238692Y12480134D01*
X50044606Y12350450D01*
X49879550Y12185394D01*
X49799105Y12065000D01*
X45983025Y12065000D01*
X42052154Y15995870D01*
X42093676Y16073553D01*
X42158577Y16287501D01*
X42180491Y16510000D01*
X42169404Y16622572D01*
X45248930Y13543045D01*
X45268815Y13518815D01*
X45293043Y13498932D01*
X45365506Y13439462D01*
X45475820Y13380498D01*
X45595518Y13344188D01*
X45688808Y13335000D01*
X45688811Y13335000D01*
X45720000Y13331928D01*
X45751189Y13335000D01*
X49613380Y13335000D01*
X49613380Y13120000D01*
X49619848Y13054329D01*
X49639004Y12991181D01*
X49670111Y12932984D01*
X49711974Y12881974D01*
X49762984Y12840111D01*
X49821181Y12809004D01*
X49884329Y12789848D01*
X49950000Y12783380D01*
X51650000Y12783380D01*
X51715671Y12789848D01*
X51778819Y12809004D01*
X51837016Y12840111D01*
X51888026Y12881974D01*
X51929889Y12932984D01*
X51960996Y12991181D01*
X51980152Y13054329D01*
X51986620Y13120000D01*
X51986620Y14820000D01*
X51980152Y14885671D01*
X51960996Y14948819D01*
X51929889Y15007016D01*
X51888026Y15058026D01*
X51837016Y15099889D01*
X51778819Y15130996D01*
X51715671Y15150152D01*
X51650000Y15156620D01*
X49950000Y15156620D01*
X49884329Y15150152D01*
X49821181Y15130996D01*
X49762984Y15099889D01*
X49711974Y15058026D01*
X49670111Y15007016D01*
X49639004Y14948819D01*
X49619848Y14885671D01*
X49613380Y14820000D01*
X49613380Y14605000D01*
X45983025Y14605000D01*
X42052154Y18535870D01*
X42093676Y18613553D01*
X42158577Y18827501D01*
X42180491Y19050000D01*
X42158577Y19272499D01*
X42093676Y19486447D01*
X41988284Y19683623D01*
X41846449Y19856449D01*
X41673623Y19998284D01*
X41476447Y20103676D01*
X41262499Y20168577D01*
X41247043Y20170099D01*
X41444514Y20207350D01*
X41706483Y20312834D01*
X41942839Y20467399D01*
X42144500Y20665105D01*
X42303715Y20898354D01*
X42414367Y21158182D01*
X42431904Y21240961D01*
X42309915Y21463000D01*
X40767000Y21463000D01*
X40767000Y21443000D01*
X40513000Y21443000D01*
X40513000Y21463000D01*
X38970085Y21463000D01*
X38848096Y21240961D01*
X38865633Y21158182D01*
X38976285Y20898354D01*
X39135500Y20665105D01*
X39337161Y20467399D01*
X39573517Y20312834D01*
X39835486Y20207350D01*
X40032957Y20170099D01*
X40017501Y20168577D01*
X39803553Y20103676D01*
X39606377Y19998284D01*
X39433551Y19856449D01*
X39291716Y19683623D01*
X39186324Y19486447D01*
X39121423Y19272499D01*
X39099509Y19050000D01*
X39121423Y18827501D01*
X39186324Y18613553D01*
X39291716Y18416377D01*
X39433551Y18243551D01*
X39606377Y18101716D01*
X39803553Y17996324D01*
X40017501Y17931423D01*
X40184248Y17915000D01*
X40876976Y17915000D01*
X41152572Y17639404D01*
X41095752Y17645000D01*
X40184248Y17645000D01*
X40017501Y17628577D01*
X39803553Y17563676D01*
X39606377Y17458284D01*
X39433551Y17316449D01*
X39291716Y17143623D01*
X39186324Y16946447D01*
X39121423Y16732499D01*
X39099509Y16510000D01*
X39121423Y16287501D01*
X39186324Y16073553D01*
X39291716Y15876377D01*
X39433551Y15703551D01*
X39606377Y15561716D01*
X39803553Y15456324D01*
X40017501Y15391423D01*
X40184248Y15375000D01*
X40876976Y15375000D01*
X41152572Y15099404D01*
X41095752Y15105000D01*
X40184248Y15105000D01*
X40017501Y15088577D01*
X39803553Y15023676D01*
X39606377Y14918284D01*
X39433551Y14776449D01*
X39291716Y14603623D01*
X39186324Y14406447D01*
X39121423Y14192499D01*
X39099509Y13970000D01*
X39121423Y13747501D01*
X39186324Y13533553D01*
X39291716Y13336377D01*
X39433551Y13163551D01*
X39606377Y13021716D01*
X39803553Y12916324D01*
X40017501Y12851423D01*
X40184248Y12835000D01*
X40876976Y12835000D01*
X41152572Y12559404D01*
X41095752Y12565000D01*
X40184248Y12565000D01*
X40017501Y12548577D01*
X39803553Y12483676D01*
X39606377Y12378284D01*
X39433551Y12236449D01*
X39291716Y12063623D01*
X39186324Y11866447D01*
X39121423Y11652499D01*
X39099509Y11430000D01*
X39121423Y11207501D01*
X39186324Y10993553D01*
X39291716Y10796377D01*
X39433551Y10623551D01*
X39606377Y10481716D01*
X39803553Y10376324D01*
X40017501Y10311423D01*
X40184248Y10295000D01*
X40876976Y10295000D01*
X41152572Y10019404D01*
X41095752Y10025000D01*
X40184248Y10025000D01*
X40017501Y10008577D01*
X39803553Y9943676D01*
X39606377Y9838284D01*
X39433551Y9696449D01*
X39292846Y9525000D01*
X38363025Y9525000D01*
X33655000Y14233024D01*
X33655000Y26701192D01*
X33645812Y26794482D01*
X33609502Y26914180D01*
X33550537Y27024494D01*
X33471185Y27121185D01*
X33374493Y27200537D01*
X33264179Y27259502D01*
X33255041Y27262274D01*
X31072275Y29445039D01*
X31069502Y29454180D01*
X31010537Y29564494D01*
X30931185Y29661185D01*
X30834494Y29740537D01*
X30724180Y29799502D01*
X30604482Y29835812D01*
X30511192Y29845000D01*
X27305000Y29845000D01*
X27305000Y30757298D01*
X33786903Y30757298D01*
X33858486Y30513329D01*
X34113996Y30392429D01*
X34388184Y30323700D01*
X34670512Y30309783D01*
X34950130Y30351213D01*
X35216292Y30446397D01*
X35341514Y30513329D01*
X35413097Y30757298D01*
X34600000Y31570395D01*
X33786903Y30757298D01*
X27305000Y30757298D01*
X27305000Y31679488D01*
X33159783Y31679488D01*
X33201213Y31399870D01*
X33296397Y31133708D01*
X33363329Y31008486D01*
X33607298Y30936903D01*
X34420395Y31750000D01*
X34779605Y31750000D01*
X35592702Y30936903D01*
X35836671Y31008486D01*
X35957571Y31263996D01*
X36026300Y31538184D01*
X36040217Y31820512D01*
X35998787Y32100130D01*
X35903603Y32366292D01*
X35836671Y32491514D01*
X35637340Y32550000D01*
X36963380Y32550000D01*
X36963380Y30950000D01*
X36969848Y30884329D01*
X36989004Y30821181D01*
X37020111Y30762984D01*
X37061974Y30711974D01*
X37112984Y30670111D01*
X37171181Y30639004D01*
X37234329Y30619848D01*
X37300000Y30613380D01*
X37465000Y30613380D01*
X37465001Y29241192D01*
X37461929Y29210000D01*
X37474189Y29085519D01*
X37510498Y28965821D01*
X37569463Y28855507D01*
X37569464Y28855506D01*
X37648816Y28758815D01*
X37673046Y28738930D01*
X40005000Y26406974D01*
X40005001Y25244785D01*
X39803553Y25183676D01*
X39606377Y25078284D01*
X39433551Y24936449D01*
X39291716Y24763623D01*
X39186324Y24566447D01*
X39121423Y24352499D01*
X39099509Y24130000D01*
X39121423Y23907501D01*
X39186324Y23693553D01*
X39291716Y23496377D01*
X39433551Y23323551D01*
X39606377Y23181716D01*
X39803553Y23076324D01*
X40017501Y23011423D01*
X40032957Y23009901D01*
X39835486Y22972650D01*
X39573517Y22867166D01*
X39337161Y22712601D01*
X39135500Y22514895D01*
X38976285Y22281646D01*
X38865633Y22021818D01*
X38848096Y21939039D01*
X38970085Y21717000D01*
X40513000Y21717000D01*
X40513000Y21737000D01*
X40767000Y21737000D01*
X40767000Y21717000D01*
X42309915Y21717000D01*
X42431904Y21939039D01*
X42414367Y22021818D01*
X42303715Y22281646D01*
X42144500Y22514895D01*
X41942839Y22712601D01*
X41706483Y22867166D01*
X41444514Y22972650D01*
X41247043Y23009901D01*
X41262499Y23011423D01*
X41476447Y23076324D01*
X41673623Y23181716D01*
X41846449Y23323551D01*
X41987154Y23495000D01*
X42916976Y23495000D01*
X46518935Y19893039D01*
X46538815Y19868815D01*
X46563039Y19848935D01*
X46563043Y19848931D01*
X46635506Y19789462D01*
X46745820Y19730498D01*
X46865518Y19694188D01*
X46958808Y19685000D01*
X46958811Y19685000D01*
X46990000Y19681928D01*
X47021189Y19685000D01*
X49799105Y19685000D01*
X49879550Y19564606D01*
X50044606Y19399550D01*
X50238692Y19269866D01*
X50454348Y19180539D01*
X50683288Y19135000D01*
X50916712Y19135000D01*
X51145652Y19180539D01*
X51361308Y19269866D01*
X51555394Y19399550D01*
X51720450Y19564606D01*
X51850134Y19758692D01*
X51939461Y19974348D01*
X51985000Y20203288D01*
X51985000Y20436712D01*
X51939461Y20665652D01*
X51850134Y20881308D01*
X51720450Y21075394D01*
X51555394Y21240450D01*
X51361308Y21370134D01*
X51145652Y21459461D01*
X50916712Y21505000D01*
X50683288Y21505000D01*
X50454348Y21459461D01*
X50238692Y21370134D01*
X50044606Y21240450D01*
X49879550Y21075394D01*
X49799105Y20955000D01*
X47253026Y20955000D01*
X43651074Y24556950D01*
X43631185Y24581185D01*
X43534494Y24660537D01*
X43424180Y24719502D01*
X43304482Y24755812D01*
X43211192Y24765000D01*
X43211181Y24765000D01*
X43180000Y24768071D01*
X43148819Y24765000D01*
X41987154Y24765000D01*
X41846449Y24936449D01*
X41673623Y25078284D01*
X41476447Y25183676D01*
X41275000Y25244785D01*
X41275000Y26638820D01*
X41278071Y26670001D01*
X41275000Y26701182D01*
X41275000Y26701192D01*
X41265812Y26794482D01*
X41229502Y26914180D01*
X41170538Y27024493D01*
X41170537Y27024495D01*
X41111068Y27096958D01*
X41111065Y27096961D01*
X41091185Y27121185D01*
X41066962Y27141064D01*
X38735000Y29473024D01*
X38735000Y30613380D01*
X38900000Y30613380D01*
X38965671Y30619848D01*
X39028819Y30639004D01*
X39087016Y30670111D01*
X39138026Y30711974D01*
X39179889Y30762984D01*
X39210996Y30821181D01*
X39230152Y30884329D01*
X39236620Y30950000D01*
X39236620Y30960000D01*
X44903380Y30960000D01*
X44903380Y27460000D01*
X44909848Y27394329D01*
X44929004Y27331181D01*
X44960111Y27272984D01*
X45001974Y27221974D01*
X45052984Y27180111D01*
X45111181Y27149004D01*
X45174329Y27129848D01*
X45240000Y27123380D01*
X46355000Y27123380D01*
X46355000Y25431181D01*
X46351929Y25400000D01*
X46355000Y25368819D01*
X46355000Y25368809D01*
X46364188Y25275519D01*
X46400498Y25155821D01*
X46459463Y25045507D01*
X46538815Y24948815D01*
X46563050Y24928926D01*
X49058935Y22433040D01*
X49078815Y22408815D01*
X49103039Y22388935D01*
X49103042Y22388932D01*
X49175505Y22329463D01*
X49205333Y22313520D01*
X49285820Y22270498D01*
X49405518Y22234188D01*
X49498808Y22225000D01*
X49498818Y22225000D01*
X49529999Y22221929D01*
X49561180Y22225000D01*
X51806976Y22225000D01*
X52705001Y21326974D01*
X52705001Y21320895D01*
X52584606Y21240450D01*
X52419550Y21075394D01*
X52289866Y20881308D01*
X52200539Y20665652D01*
X52155000Y20436712D01*
X52155000Y20203288D01*
X52200539Y19974348D01*
X52289866Y19758692D01*
X52419550Y19564606D01*
X52584606Y19399550D01*
X52778692Y19269866D01*
X52994348Y19180539D01*
X53223288Y19135000D01*
X53456712Y19135000D01*
X53685652Y19180539D01*
X53901308Y19269866D01*
X54095394Y19399550D01*
X54260450Y19564606D01*
X54390134Y19758692D01*
X54479461Y19974348D01*
X54525000Y20203288D01*
X54525000Y20436712D01*
X54479461Y20665652D01*
X54390134Y20881308D01*
X54260450Y21075394D01*
X54165844Y21170000D01*
X54693380Y21170000D01*
X54693380Y19470000D01*
X54699848Y19404329D01*
X54719004Y19341181D01*
X54750111Y19282984D01*
X54791974Y19231974D01*
X54842984Y19190111D01*
X54901181Y19159004D01*
X54964329Y19139848D01*
X55030000Y19133380D01*
X56730000Y19133380D01*
X56795671Y19139848D01*
X56858819Y19159004D01*
X56917016Y19190111D01*
X56968026Y19231974D01*
X57009889Y19282984D01*
X57040996Y19341181D01*
X57060152Y19404329D01*
X57066620Y19470000D01*
X57066620Y21170000D01*
X57060152Y21235671D01*
X57040996Y21298819D01*
X57009889Y21357016D01*
X56968026Y21408026D01*
X56917016Y21449889D01*
X56858819Y21480996D01*
X56795671Y21500152D01*
X56730000Y21506620D01*
X55030000Y21506620D01*
X54964329Y21500152D01*
X54901181Y21480996D01*
X54842984Y21449889D01*
X54791974Y21408026D01*
X54750111Y21357016D01*
X54719004Y21298819D01*
X54699848Y21235671D01*
X54693380Y21170000D01*
X54165844Y21170000D01*
X54095394Y21240450D01*
X53975000Y21320895D01*
X53975000Y21558820D01*
X53978071Y21590001D01*
X53975000Y21621182D01*
X53975000Y21621192D01*
X53965812Y21714482D01*
X53929502Y21834180D01*
X53870537Y21944495D01*
X53811068Y22016957D01*
X53791185Y22041185D01*
X53766955Y22061070D01*
X52541074Y23286950D01*
X52521185Y23311185D01*
X52424494Y23390537D01*
X52314180Y23449502D01*
X52194482Y23485812D01*
X52101192Y23495000D01*
X52101181Y23495000D01*
X52070000Y23498071D01*
X52038819Y23495000D01*
X49793026Y23495000D01*
X47625000Y25663024D01*
X47625000Y27123380D01*
X48740000Y27123380D01*
X48805671Y27129848D01*
X48868819Y27149004D01*
X48927016Y27180111D01*
X48978026Y27221974D01*
X49019889Y27272984D01*
X49050996Y27331181D01*
X49070152Y27394329D01*
X49076620Y27460000D01*
X50851928Y27460000D01*
X50864188Y27335518D01*
X50900498Y27215820D01*
X50959463Y27105506D01*
X51038815Y27008815D01*
X51135506Y26929463D01*
X51245820Y26870498D01*
X51365518Y26834188D01*
X51490000Y26821928D01*
X52704250Y26825000D01*
X52863000Y26983750D01*
X52863000Y29083000D01*
X53117000Y29083000D01*
X53117000Y26983750D01*
X53275750Y26825000D01*
X54490000Y26821928D01*
X54614482Y26834188D01*
X54734180Y26870498D01*
X54844494Y26929463D01*
X54941185Y27008815D01*
X55020537Y27105506D01*
X55079502Y27215820D01*
X55115812Y27335518D01*
X55128072Y27460000D01*
X55125000Y28924250D01*
X54966250Y29083000D01*
X53117000Y29083000D01*
X52863000Y29083000D01*
X51013750Y29083000D01*
X50855000Y28924250D01*
X50851928Y27460000D01*
X49076620Y27460000D01*
X49076620Y30960000D01*
X50851928Y30960000D01*
X50855000Y29495750D01*
X51013750Y29337000D01*
X52863000Y29337000D01*
X52863000Y31436250D01*
X53117000Y31436250D01*
X53117000Y29337000D01*
X54966250Y29337000D01*
X55125000Y29495750D01*
X55128072Y30960000D01*
X55115812Y31084482D01*
X55079502Y31204180D01*
X55020537Y31314494D01*
X54941185Y31411185D01*
X54844494Y31490537D01*
X54734180Y31549502D01*
X54614482Y31585812D01*
X54490000Y31598072D01*
X53275750Y31595000D01*
X53117000Y31436250D01*
X52863000Y31436250D01*
X52704250Y31595000D01*
X51490000Y31598072D01*
X51365518Y31585812D01*
X51245820Y31549502D01*
X51135506Y31490537D01*
X51038815Y31411185D01*
X50959463Y31314494D01*
X50900498Y31204180D01*
X50864188Y31084482D01*
X50851928Y30960000D01*
X49076620Y30960000D01*
X49070152Y31025671D01*
X49050996Y31088819D01*
X49019889Y31147016D01*
X48978026Y31198026D01*
X48927016Y31239889D01*
X48868819Y31270996D01*
X48805671Y31290152D01*
X48740000Y31296620D01*
X45240000Y31296620D01*
X45174329Y31290152D01*
X45111181Y31270996D01*
X45052984Y31239889D01*
X45001974Y31198026D01*
X44960111Y31147016D01*
X44929004Y31088819D01*
X44909848Y31025671D01*
X44903380Y30960000D01*
X39236620Y30960000D01*
X39236620Y32550000D01*
X39230152Y32615671D01*
X39210996Y32678819D01*
X39179889Y32737016D01*
X39138026Y32788026D01*
X39087016Y32829889D01*
X39028819Y32860996D01*
X38965671Y32880152D01*
X38900000Y32886620D01*
X38735000Y32886620D01*
X38735000Y34026976D01*
X39493024Y34785000D01*
X47903380Y34785000D01*
X47903380Y33035000D01*
X47926661Y32798625D01*
X47995609Y32571333D01*
X48107575Y32361860D01*
X48258255Y32178255D01*
X48441860Y32027575D01*
X48651333Y31915609D01*
X48878625Y31846661D01*
X49115000Y31823380D01*
X50865000Y31823380D01*
X51101375Y31846661D01*
X51328667Y31915609D01*
X51538140Y32027575D01*
X51721745Y32178255D01*
X51872425Y32361860D01*
X51984391Y32571333D01*
X52053339Y32798625D01*
X52076620Y33035000D01*
X52076620Y34785000D01*
X52053339Y35021375D01*
X51984391Y35248667D01*
X51872425Y35458140D01*
X51721745Y35641745D01*
X51538140Y35792425D01*
X51328667Y35904391D01*
X51101375Y35973339D01*
X50865000Y35996620D01*
X49115000Y35996620D01*
X48878625Y35973339D01*
X48651333Y35904391D01*
X48441860Y35792425D01*
X48258255Y35641745D01*
X48107575Y35458140D01*
X47995609Y35248667D01*
X47926661Y35021375D01*
X47903380Y34785000D01*
X39493024Y34785000D01*
X43925524Y39217500D01*
X44783810Y39217500D01*
X44783810Y36797500D01*
X46656191Y36797500D01*
X46656191Y39217500D01*
X44783810Y39217500D01*
X43925524Y39217500D01*
X44384469Y39676444D01*
X44389848Y39621829D01*
X44409004Y39558681D01*
X44440111Y39500484D01*
X44481974Y39449474D01*
X44532984Y39407611D01*
X44591181Y39376504D01*
X44654329Y39357348D01*
X44720000Y39350880D01*
X46720000Y39350880D01*
X46785671Y39357348D01*
X46848819Y39376504D01*
X46907016Y39407611D01*
X46958026Y39449474D01*
X46999889Y39500484D01*
X47030996Y39558681D01*
X47050152Y39621829D01*
X47056620Y39687500D01*
X47056620Y40055000D01*
X50557686Y40055000D01*
X51636021Y38976664D01*
X51654341Y38954341D01*
X51743419Y38881237D01*
X51806047Y38847762D01*
X51845047Y38826916D01*
X51955319Y38793465D01*
X52069999Y38782170D01*
X52098732Y38785000D01*
X53473380Y38785000D01*
X53473380Y38570000D01*
X53479848Y38504329D01*
X53499004Y38441181D01*
X53530111Y38382984D01*
X53571974Y38331974D01*
X53622984Y38290111D01*
X53681181Y38259004D01*
X53744329Y38239848D01*
X53810000Y38233380D01*
X55410000Y38233380D01*
X55475671Y38239848D01*
X55538819Y38259004D01*
X55597016Y38290111D01*
X55648026Y38331974D01*
X55689889Y38382984D01*
X55720996Y38441181D01*
X55740152Y38504329D01*
X55746620Y38570000D01*
X55746620Y40170000D01*
X55740152Y40235671D01*
X55720996Y40298819D01*
X55689889Y40357016D01*
X55648026Y40408026D01*
X55597016Y40449889D01*
X55538819Y40480996D01*
X55475671Y40500152D01*
X55410000Y40506620D01*
X55059138Y40506620D01*
X55226292Y40566397D01*
X55351514Y40633329D01*
X55423097Y40877298D01*
X54610000Y41690395D01*
X53796903Y40877298D01*
X53868486Y40633329D01*
X54123996Y40512429D01*
X54147170Y40506620D01*
X53810000Y40506620D01*
X53744329Y40500152D01*
X53681181Y40480996D01*
X53622984Y40449889D01*
X53571974Y40408026D01*
X53530111Y40357016D01*
X53499004Y40298819D01*
X53479848Y40235671D01*
X53473380Y40170000D01*
X53473380Y39955000D01*
X52312315Y39955000D01*
X51233983Y41033331D01*
X51215659Y41055659D01*
X51126581Y41128763D01*
X51024953Y41183084D01*
X50914680Y41216535D01*
X50828733Y41225000D01*
X50800000Y41227830D01*
X50771267Y41225000D01*
X47056620Y41225000D01*
X47056620Y41592500D01*
X47050152Y41658171D01*
X47030996Y41721319D01*
X46999889Y41779516D01*
X46983499Y41799488D01*
X53169783Y41799488D01*
X53211213Y41519870D01*
X53306397Y41253708D01*
X53373329Y41128486D01*
X53617298Y41056903D01*
X54430395Y41870000D01*
X54789605Y41870000D01*
X55602702Y41056903D01*
X55846671Y41128486D01*
X55967571Y41383996D01*
X56036300Y41658184D01*
X56050217Y41940512D01*
X56008787Y42220130D01*
X55913603Y42486292D01*
X55846671Y42611514D01*
X55602702Y42683097D01*
X54789605Y41870000D01*
X54430395Y41870000D01*
X53617298Y42683097D01*
X53373329Y42611514D01*
X53252429Y42356004D01*
X53183700Y42081816D01*
X53169783Y41799488D01*
X46983499Y41799488D01*
X46958026Y41830526D01*
X46907016Y41872389D01*
X46848819Y41903496D01*
X46785671Y41922652D01*
X46731398Y41927997D01*
X46901315Y42070563D01*
X47095969Y42313077D01*
X47239571Y42588906D01*
X47310563Y42807020D01*
X47283406Y42862702D01*
X53796903Y42862702D01*
X54610000Y42049605D01*
X55423097Y42862702D01*
X55351514Y43106671D01*
X55096004Y43227571D01*
X54821816Y43296300D01*
X54539488Y43310217D01*
X54259870Y43268787D01*
X53993708Y43173603D01*
X53868486Y43106671D01*
X53796903Y42862702D01*
X47283406Y42862702D01*
X47190594Y43053000D01*
X45847000Y43053000D01*
X45847000Y43033000D01*
X45593000Y43033000D01*
X45593000Y43053000D01*
X44249406Y43053000D01*
X44129437Y42807020D01*
X44200429Y42588906D01*
X44344031Y42313077D01*
X44538685Y42070563D01*
X44708602Y41927997D01*
X44654329Y41922652D01*
X44591181Y41903496D01*
X44532984Y41872389D01*
X44481974Y41830526D01*
X44440111Y41779516D01*
X44409004Y41721319D01*
X44389848Y41658171D01*
X44383380Y41592500D01*
X44383380Y41271511D01*
X44325518Y41265812D01*
X44205820Y41229502D01*
X44095506Y41170537D01*
X43998815Y41091185D01*
X43978931Y41066956D01*
X37673050Y34761074D01*
X37648815Y34741185D01*
X37569463Y34644493D01*
X37510498Y34534179D01*
X37474188Y34414481D01*
X37465000Y34321191D01*
X37465000Y34321181D01*
X37461929Y34290000D01*
X37465000Y34258819D01*
X37465001Y32886620D01*
X37300000Y32886620D01*
X37234329Y32880152D01*
X37171181Y32860996D01*
X37112984Y32829889D01*
X37061974Y32788026D01*
X37020111Y32737016D01*
X36989004Y32678819D01*
X36969848Y32615671D01*
X36963380Y32550000D01*
X35637340Y32550000D01*
X35592702Y32563097D01*
X34779605Y31750000D01*
X34420395Y31750000D01*
X33607298Y32563097D01*
X33363329Y32491514D01*
X33242429Y32236004D01*
X33173700Y31961816D01*
X33159783Y31679488D01*
X27305000Y31679488D01*
X27305000Y32019105D01*
X27425394Y32099550D01*
X27590450Y32264606D01*
X27720134Y32458692D01*
X27809461Y32674348D01*
X27855000Y32903288D01*
X27855000Y33136712D01*
X27826751Y33278727D01*
X28130953Y33582929D01*
X28130953Y31717500D01*
X30289048Y31717500D01*
X30289048Y32742702D01*
X33786903Y32742702D01*
X34600000Y31929605D01*
X35413097Y32742702D01*
X35341514Y32986671D01*
X35086004Y33107571D01*
X34811816Y33176300D01*
X34529488Y33190217D01*
X34249870Y33148787D01*
X33983708Y33053603D01*
X33858486Y32986671D01*
X33786903Y32742702D01*
X30289048Y32742702D01*
X30289048Y34137500D01*
X28685524Y34137500D01*
X34553025Y40005000D01*
X38068819Y40005000D01*
X38100000Y40001929D01*
X38131181Y40005000D01*
X38131192Y40005000D01*
X38224482Y40014188D01*
X38344180Y40050498D01*
X38454494Y40109463D01*
X38551185Y40188815D01*
X38571074Y40213050D01*
X43443025Y45085000D01*
X44552035Y45085000D01*
X44596804Y45001243D01*
X44757695Y44805195D01*
X44953743Y44644304D01*
X45007279Y44615688D01*
X44776911Y44489316D01*
X44538685Y44289437D01*
X44344031Y44046923D01*
X44200429Y43771094D01*
X44129437Y43552980D01*
X44249406Y43307000D01*
X45593000Y43307000D01*
X45593000Y43327000D01*
X45847000Y43327000D01*
X45847000Y43307000D01*
X47190594Y43307000D01*
X47310563Y43552980D01*
X47239571Y43771094D01*
X47095969Y44046923D01*
X46901315Y44289437D01*
X46663089Y44489316D01*
X46432721Y44615688D01*
X46486257Y44644304D01*
X46636126Y44767298D01*
X53796903Y44767298D01*
X53868486Y44523329D01*
X54123996Y44402429D01*
X54398184Y44333700D01*
X54680512Y44319783D01*
X54960130Y44361213D01*
X55226292Y44456397D01*
X55351514Y44523329D01*
X55423097Y44767298D01*
X54610000Y45580395D01*
X53796903Y44767298D01*
X46636126Y44767298D01*
X46682305Y44805195D01*
X46843196Y45001243D01*
X46887965Y45085000D01*
X48228819Y45085000D01*
X48260000Y45081929D01*
X48291181Y45085000D01*
X48291192Y45085000D01*
X48384482Y45094188D01*
X48504180Y45130498D01*
X48614494Y45189463D01*
X48711185Y45268815D01*
X48731074Y45293050D01*
X49127512Y45689488D01*
X53169783Y45689488D01*
X53211213Y45409870D01*
X53306397Y45143708D01*
X53373329Y45018486D01*
X53617298Y44946903D01*
X54430395Y45760000D01*
X54789605Y45760000D01*
X55602702Y44946903D01*
X55846671Y45018486D01*
X55967571Y45273996D01*
X56036300Y45548184D01*
X56050217Y45830512D01*
X56008787Y46110130D01*
X55913603Y46376292D01*
X55846671Y46501514D01*
X55602702Y46573097D01*
X54789605Y45760000D01*
X54430395Y45760000D01*
X53617298Y46573097D01*
X53373329Y46501514D01*
X53252429Y46246004D01*
X53183700Y45971816D01*
X53169783Y45689488D01*
X49127512Y45689488D01*
X51063026Y47625000D01*
X53473380Y47625000D01*
X53473380Y47460000D01*
X53479848Y47394329D01*
X53499004Y47331181D01*
X53530111Y47272984D01*
X53571974Y47221974D01*
X53622984Y47180111D01*
X53681181Y47149004D01*
X53744329Y47129848D01*
X53810000Y47123380D01*
X54160862Y47123380D01*
X53993708Y47063603D01*
X53868486Y46996671D01*
X53796903Y46752702D01*
X54610000Y45939605D01*
X55423097Y46752702D01*
X55351514Y46996671D01*
X55096004Y47117571D01*
X55072830Y47123380D01*
X55410000Y47123380D01*
X55475671Y47129848D01*
X55538819Y47149004D01*
X55597016Y47180111D01*
X55648026Y47221974D01*
X55689889Y47272984D01*
X55720996Y47331181D01*
X55740152Y47394329D01*
X55746620Y47460000D01*
X55746620Y49060000D01*
X55740152Y49125671D01*
X55720996Y49188819D01*
X55689889Y49247016D01*
X55648026Y49298026D01*
X55597016Y49339889D01*
X55538819Y49370996D01*
X55475671Y49390152D01*
X55410000Y49396620D01*
X53810000Y49396620D01*
X53744329Y49390152D01*
X53681181Y49370996D01*
X53622984Y49339889D01*
X53571974Y49298026D01*
X53530111Y49247016D01*
X53499004Y49188819D01*
X53479848Y49125671D01*
X53473380Y49060000D01*
X53473380Y48895000D01*
X50831180Y48895000D01*
X50799999Y48898071D01*
X50768818Y48895000D01*
X50768808Y48895000D01*
X50675518Y48885812D01*
X50555820Y48849502D01*
X50483931Y48811076D01*
X50445505Y48790537D01*
X50373042Y48731068D01*
X50373039Y48731065D01*
X50348815Y48711185D01*
X50328935Y48686960D01*
X47996976Y46355000D01*
X46887965Y46355000D01*
X46843196Y46438757D01*
X46682305Y46634805D01*
X46486257Y46795696D01*
X46262589Y46915250D01*
X46123308Y46957500D01*
X46656191Y46957500D01*
X46656191Y49377500D01*
X44783810Y49377500D01*
X44783810Y46957500D01*
X45316692Y46957500D01*
X45177411Y46915250D01*
X44953743Y46795696D01*
X44757695Y46634805D01*
X44596804Y46438757D01*
X44552035Y46355000D01*
X43211189Y46355000D01*
X43180000Y46358072D01*
X43148811Y46355000D01*
X43148808Y46355000D01*
X43055518Y46345812D01*
X42935820Y46309502D01*
X42825506Y46250538D01*
X42782312Y46215089D01*
X42728815Y46171185D01*
X42708932Y46146957D01*
X37836976Y41275000D01*
X34925000Y41275000D01*
X34925000Y42118971D01*
X35077267Y42220713D01*
X35249287Y42392733D01*
X35384443Y42595008D01*
X35477540Y42819764D01*
X35525000Y43058363D01*
X35525000Y43301637D01*
X35477540Y43540236D01*
X35384443Y43764992D01*
X35249287Y43967267D01*
X35136554Y44080000D01*
X35593380Y44080000D01*
X35593380Y42280000D01*
X35599848Y42214329D01*
X35619004Y42151181D01*
X35650111Y42092984D01*
X35691974Y42041974D01*
X35742984Y42000111D01*
X35801181Y41969004D01*
X35864329Y41949848D01*
X35930000Y41943380D01*
X37730000Y41943380D01*
X37795671Y41949848D01*
X37858819Y41969004D01*
X37917016Y42000111D01*
X37968026Y42041974D01*
X38009889Y42092984D01*
X38040996Y42151181D01*
X38060152Y42214329D01*
X38066620Y42280000D01*
X38066620Y44080000D01*
X38060152Y44145671D01*
X38040996Y44208819D01*
X38009889Y44267016D01*
X37968026Y44318026D01*
X37917016Y44359889D01*
X37858819Y44390996D01*
X37795671Y44410152D01*
X37730000Y44416620D01*
X37465000Y44416620D01*
X37465000Y49979510D01*
X37489774Y49996063D01*
X37633937Y50140226D01*
X37747205Y50309744D01*
X37825226Y50498102D01*
X37865000Y50698061D01*
X37865000Y50901939D01*
X37825226Y51101898D01*
X37747205Y51290256D01*
X37633937Y51459774D01*
X37489774Y51603937D01*
X37320256Y51717205D01*
X37131898Y51795226D01*
X36931939Y51835000D01*
X36728061Y51835000D01*
X36528102Y51795226D01*
X36339744Y51717205D01*
X36170226Y51603937D01*
X36026063Y51459774D01*
X35912795Y51290256D01*
X35834774Y51101898D01*
X35795000Y50901939D01*
X35795000Y50698061D01*
X35834774Y50498102D01*
X35912795Y50309744D01*
X36026063Y50140226D01*
X36170226Y49996063D01*
X36195000Y49979510D01*
X36195001Y44416620D01*
X35930000Y44416620D01*
X35864329Y44410152D01*
X35801181Y44390996D01*
X35742984Y44359889D01*
X35691974Y44318026D01*
X35650111Y44267016D01*
X35619004Y44208819D01*
X35599848Y44145671D01*
X35593380Y44080000D01*
X35136554Y44080000D01*
X35077267Y44139287D01*
X34874992Y44274443D01*
X34650236Y44367540D01*
X34411637Y44415000D01*
X34168363Y44415000D01*
X33929764Y44367540D01*
X33705008Y44274443D01*
X33502733Y44139287D01*
X33330713Y43967267D01*
X33250623Y43847403D01*
X31509187Y45588837D01*
X31515000Y45618061D01*
X31515000Y45821939D01*
X31475226Y46021898D01*
X31397205Y46210256D01*
X31283937Y46379774D01*
X31139774Y46523937D01*
X30970256Y46637205D01*
X30781898Y46715226D01*
X30581939Y46755000D01*
X30378061Y46755000D01*
X30178102Y46715226D01*
X29989744Y46637205D01*
X29820226Y46523937D01*
X29676063Y46379774D01*
X29562795Y46210256D01*
X29484774Y46021898D01*
X29445000Y45821939D01*
X29445000Y45618061D01*
X29484774Y45418102D01*
X29562795Y45229744D01*
X29676063Y45060226D01*
X29820226Y44916063D01*
X29989744Y44802795D01*
X30178102Y44724774D01*
X30378061Y44685000D01*
X30581939Y44685000D01*
X30611163Y44690813D01*
X32548935Y42753040D01*
X32568815Y42728815D01*
X32593039Y42708935D01*
X32593042Y42708932D01*
X32665505Y42649463D01*
X32703931Y42628924D01*
X32775820Y42590498D01*
X32895518Y42554188D01*
X32988808Y42545000D01*
X32988818Y42545000D01*
X33019999Y42541929D01*
X33051180Y42545000D01*
X33228971Y42545000D01*
X33330713Y42392733D01*
X33502733Y42220713D01*
X33655000Y42118971D01*
X33655001Y40903026D01*
X28057453Y35305477D01*
X27990155Y35433000D01*
X26797000Y35433000D01*
X26797000Y35413000D01*
X26543000Y35413000D01*
X26543000Y35433000D01*
X25349845Y35433000D01*
X25228524Y35203110D01*
X25273175Y35055901D01*
X25398359Y34793080D01*
X25572412Y34559731D01*
X25788645Y34364822D01*
X26038748Y34215843D01*
X26265918Y34135259D01*
X26108692Y34070134D01*
X25914606Y33940450D01*
X25749550Y33775394D01*
X25619866Y33581308D01*
X25530539Y33365652D01*
X25485000Y33136712D01*
X25485000Y32903288D01*
X25530539Y32674348D01*
X25619866Y32458692D01*
X25749550Y32264606D01*
X25914606Y32099550D01*
X26035000Y32019105D01*
X26035001Y29473027D01*
X22433050Y25871074D01*
X22408815Y25851185D01*
X22329463Y25754493D01*
X22270498Y25644179D01*
X22234188Y25524481D01*
X22225000Y25431191D01*
X22225000Y25431181D01*
X22221929Y25400000D01*
X22225000Y25368819D01*
X22225001Y23123026D01*
X21326976Y22225000D01*
X21260759Y22225000D01*
X21201612Y22313520D01*
X21043520Y22471612D01*
X20857624Y22595824D01*
X20651067Y22681383D01*
X20447002Y22721974D01*
X20447002Y22859375D01*
X20669040Y22738091D01*
X20933881Y22832930D01*
X21175131Y22977615D01*
X21383519Y23166586D01*
X21551037Y23392580D01*
X21671246Y23646913D01*
X21711904Y23780961D01*
X21589915Y24003000D01*
X20447000Y24003000D01*
X20447000Y23983000D01*
X20193000Y23983000D01*
X20193000Y24003000D01*
X19050085Y24003000D01*
X18963189Y23844836D01*
X18328986Y24479039D01*
X18928096Y24479039D01*
X19050085Y24257000D01*
X20193000Y24257000D01*
X20193000Y24277000D01*
X20447000Y24277000D01*
X20447000Y24257000D01*
X21589915Y24257000D01*
X21711904Y24479039D01*
X21671246Y24613087D01*
X21551037Y24867420D01*
X21383519Y25093414D01*
X21175131Y25282385D01*
X20933881Y25427070D01*
X20669040Y25521909D01*
X20447002Y25400625D01*
X20447002Y25538026D01*
X20651067Y25578617D01*
X20857624Y25664176D01*
X21043520Y25788388D01*
X21201612Y25946480D01*
X21325824Y26132376D01*
X21411383Y26338933D01*
X21455000Y26558212D01*
X21455000Y26781788D01*
X21411383Y27001067D01*
X21325824Y27207624D01*
X21201612Y27393520D01*
X21043520Y27551612D01*
X20857624Y27675824D01*
X20651067Y27761383D01*
X20431788Y27805000D01*
X20208212Y27805000D01*
X19988933Y27761383D01*
X19782376Y27675824D01*
X19596480Y27551612D01*
X19438388Y27393520D01*
X19314176Y27207624D01*
X19228617Y27001067D01*
X19185000Y26781788D01*
X19185000Y26558212D01*
X19228617Y26338933D01*
X19314176Y26132376D01*
X19438388Y25946480D01*
X19596480Y25788388D01*
X19782376Y25664176D01*
X19988933Y25578617D01*
X20192998Y25538026D01*
X20192998Y25400625D01*
X19970960Y25521909D01*
X19706119Y25427070D01*
X19464869Y25282385D01*
X19256481Y25093414D01*
X19088963Y24867420D01*
X18968754Y24613087D01*
X18928096Y24479039D01*
X18328986Y24479039D01*
X18251074Y24556950D01*
X18231185Y24581185D01*
X18134494Y24660537D01*
X18024180Y24719502D01*
X17904482Y24755812D01*
X17811192Y24765000D01*
X17811181Y24765000D01*
X17780000Y24768071D01*
X17748819Y24765000D01*
X13640759Y24765000D01*
X13581612Y24853520D01*
X13423520Y25011612D01*
X13237624Y25135824D01*
X13031067Y25221383D01*
X12811788Y25265000D01*
X12588212Y25265000D01*
X12368933Y25221383D01*
X12162376Y25135824D01*
X11976480Y25011612D01*
X11818388Y24853520D01*
X11759241Y24765000D01*
X11693025Y24765000D01*
X10795000Y25663024D01*
X10795000Y26781788D01*
X11565000Y26781788D01*
X11565000Y26558212D01*
X11608617Y26338933D01*
X11694176Y26132376D01*
X11818388Y25946480D01*
X11976480Y25788388D01*
X12162376Y25664176D01*
X12368933Y25578617D01*
X12588212Y25535000D01*
X12811788Y25535000D01*
X13031067Y25578617D01*
X13237624Y25664176D01*
X13423520Y25788388D01*
X13581612Y25946480D01*
X13705824Y26132376D01*
X13791383Y26338933D01*
X13835000Y26558212D01*
X13835000Y26781788D01*
X13791383Y27001067D01*
X13705824Y27207624D01*
X13581612Y27393520D01*
X13423520Y27551612D01*
X13237624Y27675824D01*
X13031067Y27761383D01*
X12811788Y27805000D01*
X12588212Y27805000D01*
X12368933Y27761383D01*
X12162376Y27675824D01*
X11976480Y27551612D01*
X11818388Y27393520D01*
X11694176Y27207624D01*
X11608617Y27001067D01*
X11565000Y26781788D01*
X10795000Y26781788D01*
X10795000Y27908820D01*
X10798071Y27940001D01*
X10795000Y27971182D01*
X10795000Y27971192D01*
X10785812Y28064482D01*
X10749502Y28184180D01*
X10690538Y28294493D01*
X10690537Y28294495D01*
X10631068Y28366958D01*
X10631065Y28366961D01*
X10611185Y28391185D01*
X10586962Y28411064D01*
X9676238Y29321788D01*
X11565000Y29321788D01*
X11565000Y29098212D01*
X11608617Y28878933D01*
X11694176Y28672376D01*
X11818388Y28486480D01*
X11976480Y28328388D01*
X12162376Y28204176D01*
X12368933Y28118617D01*
X12588212Y28075000D01*
X12811788Y28075000D01*
X13031067Y28118617D01*
X13237624Y28204176D01*
X13423520Y28328388D01*
X13581612Y28486480D01*
X13705824Y28672376D01*
X13791383Y28878933D01*
X13835000Y29098212D01*
X13835000Y29321788D01*
X19185000Y29321788D01*
X19185000Y29098212D01*
X19228617Y28878933D01*
X19314176Y28672376D01*
X19438388Y28486480D01*
X19596480Y28328388D01*
X19782376Y28204176D01*
X19988933Y28118617D01*
X20208212Y28075000D01*
X20431788Y28075000D01*
X20651067Y28118617D01*
X20857624Y28204176D01*
X21043520Y28328388D01*
X21201612Y28486480D01*
X21325824Y28672376D01*
X21411383Y28878933D01*
X21455000Y29098212D01*
X21455000Y29321788D01*
X21411383Y29541067D01*
X21325824Y29747624D01*
X21201612Y29933520D01*
X21043520Y30091612D01*
X20857624Y30215824D01*
X20651067Y30301383D01*
X20431788Y30345000D01*
X20208212Y30345000D01*
X19988933Y30301383D01*
X19782376Y30215824D01*
X19596480Y30091612D01*
X19438388Y29933520D01*
X19314176Y29747624D01*
X19228617Y29541067D01*
X19185000Y29321788D01*
X13835000Y29321788D01*
X13791383Y29541067D01*
X13705824Y29747624D01*
X13581612Y29933520D01*
X13423520Y30091612D01*
X13237624Y30215824D01*
X13031067Y30301383D01*
X12811788Y30345000D01*
X12588212Y30345000D01*
X12368933Y30301383D01*
X12162376Y30215824D01*
X11976480Y30091612D01*
X11818388Y29933520D01*
X11694176Y29747624D01*
X11608617Y29541067D01*
X11565000Y29321788D01*
X9676238Y29321788D01*
X8091074Y30906950D01*
X8071185Y30931185D01*
X7974494Y31010537D01*
X7864180Y31069502D01*
X7744482Y31105812D01*
X7651192Y31115000D01*
X7651181Y31115000D01*
X7620000Y31118071D01*
X7588819Y31115000D01*
X3175000Y31115000D01*
X3175000Y31861788D01*
X11565000Y31861788D01*
X11565000Y31638212D01*
X11608617Y31418933D01*
X11694176Y31212376D01*
X11818388Y31026480D01*
X11976480Y30868388D01*
X12162376Y30744176D01*
X12368933Y30658617D01*
X12588212Y30615000D01*
X12811788Y30615000D01*
X13031067Y30658617D01*
X13237624Y30744176D01*
X13423520Y30868388D01*
X13581612Y31026480D01*
X13705824Y31212376D01*
X13791383Y31418933D01*
X13835000Y31638212D01*
X13835000Y31861788D01*
X19185000Y31861788D01*
X19185000Y31638212D01*
X19228617Y31418933D01*
X19314176Y31212376D01*
X19438388Y31026480D01*
X19596480Y30868388D01*
X19782376Y30744176D01*
X19988933Y30658617D01*
X20208212Y30615000D01*
X20431788Y30615000D01*
X20651067Y30658617D01*
X20857624Y30744176D01*
X21043520Y30868388D01*
X21201612Y31026480D01*
X21325824Y31212376D01*
X21411383Y31418933D01*
X21455000Y31638212D01*
X21455000Y31861788D01*
X21411383Y32081067D01*
X21325824Y32287624D01*
X21201612Y32473520D01*
X21043520Y32631612D01*
X20857624Y32755824D01*
X20651067Y32841383D01*
X20431788Y32885000D01*
X20208212Y32885000D01*
X19988933Y32841383D01*
X19782376Y32755824D01*
X19596480Y32631612D01*
X19438388Y32473520D01*
X19314176Y32287624D01*
X19228617Y32081067D01*
X19185000Y31861788D01*
X13835000Y31861788D01*
X13791383Y32081067D01*
X13705824Y32287624D01*
X13581612Y32473520D01*
X13423520Y32631612D01*
X13237624Y32755824D01*
X13031067Y32841383D01*
X12811788Y32885000D01*
X12588212Y32885000D01*
X12368933Y32841383D01*
X12162376Y32755824D01*
X11976480Y32631612D01*
X11818388Y32473520D01*
X11694176Y32287624D01*
X11608617Y32081067D01*
X11565000Y31861788D01*
X3175000Y31861788D01*
X3175000Y35140000D01*
X5163380Y35140000D01*
X5163380Y33440000D01*
X5169848Y33374329D01*
X5189004Y33311181D01*
X5220111Y33252984D01*
X5261974Y33201974D01*
X5312984Y33160111D01*
X5371181Y33129004D01*
X5434329Y33109848D01*
X5500000Y33103380D01*
X7200000Y33103380D01*
X7265671Y33109848D01*
X7328819Y33129004D01*
X7387016Y33160111D01*
X7438026Y33201974D01*
X7479889Y33252984D01*
X7510996Y33311181D01*
X7530152Y33374329D01*
X7536620Y33440000D01*
X7536620Y33655000D01*
X11759241Y33655000D01*
X11818388Y33566480D01*
X11976480Y33408388D01*
X12162376Y33284176D01*
X12368933Y33198617D01*
X12588212Y33155000D01*
X12811788Y33155000D01*
X13031067Y33198617D01*
X13237624Y33284176D01*
X13423520Y33408388D01*
X13581612Y33566480D01*
X13705824Y33752376D01*
X13791383Y33958933D01*
X13835000Y34178212D01*
X13835000Y34401788D01*
X19185000Y34401788D01*
X19185000Y34178212D01*
X19228617Y33958933D01*
X19314176Y33752376D01*
X19438388Y33566480D01*
X19596480Y33408388D01*
X19782376Y33284176D01*
X19988933Y33198617D01*
X20208212Y33155000D01*
X20431788Y33155000D01*
X20651067Y33198617D01*
X20857624Y33284176D01*
X21043520Y33408388D01*
X21201612Y33566480D01*
X21325824Y33752376D01*
X21411383Y33958933D01*
X21455000Y34178212D01*
X21455000Y34401788D01*
X21434230Y34506206D01*
X24393026Y37465000D01*
X25483380Y37465000D01*
X25483380Y37250000D01*
X25489848Y37184329D01*
X25509004Y37121181D01*
X25540111Y37062984D01*
X25581974Y37011974D01*
X25632984Y36970111D01*
X25691181Y36939004D01*
X25754329Y36919848D01*
X25820000Y36913380D01*
X26064748Y36913380D01*
X26038748Y36904157D01*
X25788645Y36755178D01*
X25572412Y36560269D01*
X25398359Y36326920D01*
X25273175Y36064099D01*
X25228524Y35916890D01*
X25349845Y35687000D01*
X26543000Y35687000D01*
X26543000Y35707000D01*
X26797000Y35707000D01*
X26797000Y35687000D01*
X27990155Y35687000D01*
X28111476Y35916890D01*
X28066825Y36064099D01*
X27941641Y36326920D01*
X27767588Y36560269D01*
X27551355Y36755178D01*
X27301252Y36904157D01*
X27275252Y36913380D01*
X27520000Y36913380D01*
X27585671Y36919848D01*
X27648819Y36939004D01*
X27707016Y36970111D01*
X27758026Y37011974D01*
X27799889Y37062984D01*
X27830996Y37121181D01*
X27850152Y37184329D01*
X27856620Y37250000D01*
X27856620Y38950000D01*
X27850152Y39015671D01*
X27830996Y39078819D01*
X27799889Y39137016D01*
X27758026Y39188026D01*
X27707016Y39229889D01*
X27648819Y39260996D01*
X27585671Y39280152D01*
X27520000Y39286620D01*
X25820000Y39286620D01*
X25754329Y39280152D01*
X25691181Y39260996D01*
X25632984Y39229889D01*
X25581974Y39188026D01*
X25540111Y39137016D01*
X25509004Y39078819D01*
X25489848Y39015671D01*
X25483380Y38950000D01*
X25483380Y38735000D01*
X24161189Y38735000D01*
X24130000Y38738072D01*
X24098811Y38735000D01*
X24098808Y38735000D01*
X24005518Y38725812D01*
X23885820Y38689502D01*
X23775506Y38630538D01*
X23703043Y38571069D01*
X23703039Y38571065D01*
X23678815Y38551185D01*
X23658935Y38526961D01*
X20536206Y35404230D01*
X20431788Y35425000D01*
X20208212Y35425000D01*
X19988933Y35381383D01*
X19782376Y35295824D01*
X19596480Y35171612D01*
X19438388Y35013520D01*
X19314176Y34827624D01*
X19228617Y34621067D01*
X19185000Y34401788D01*
X13835000Y34401788D01*
X13791383Y34621067D01*
X13705824Y34827624D01*
X13581612Y35013520D01*
X13423520Y35171612D01*
X13237624Y35295824D01*
X13031067Y35381383D01*
X12811788Y35425000D01*
X12588212Y35425000D01*
X12368933Y35381383D01*
X12162376Y35295824D01*
X11976480Y35171612D01*
X11818388Y35013520D01*
X11759241Y34925000D01*
X7536620Y34925000D01*
X7536620Y35140000D01*
X7530152Y35205671D01*
X7510996Y35268819D01*
X7479889Y35327016D01*
X7438026Y35378026D01*
X7387016Y35419889D01*
X7328819Y35450996D01*
X7265671Y35470152D01*
X7200000Y35476620D01*
X5500000Y35476620D01*
X5434329Y35470152D01*
X5371181Y35450996D01*
X5312984Y35419889D01*
X5261974Y35378026D01*
X5220111Y35327016D01*
X5189004Y35268819D01*
X5169848Y35205671D01*
X5163380Y35140000D01*
X3175000Y35140000D01*
X3175000Y37836976D01*
X4351134Y39013110D01*
X4908524Y39013110D01*
X4953175Y38865901D01*
X5078359Y38603080D01*
X5252412Y38369731D01*
X5468645Y38174822D01*
X5718748Y38025843D01*
X5945918Y37945259D01*
X5788692Y37880134D01*
X5594606Y37750450D01*
X5429550Y37585394D01*
X5299866Y37391308D01*
X5210539Y37175652D01*
X5165000Y36946712D01*
X5165000Y36713288D01*
X5210539Y36484348D01*
X5299866Y36268692D01*
X5429550Y36074606D01*
X5594606Y35909550D01*
X5788692Y35779866D01*
X6004348Y35690539D01*
X6233288Y35645000D01*
X6466712Y35645000D01*
X6695652Y35690539D01*
X6911308Y35779866D01*
X7105394Y35909550D01*
X7270450Y36074606D01*
X7350895Y36195000D01*
X11759241Y36195000D01*
X11818388Y36106480D01*
X11976480Y35948388D01*
X12162376Y35824176D01*
X12368933Y35738617D01*
X12588212Y35695000D01*
X12811788Y35695000D01*
X13031067Y35738617D01*
X13237624Y35824176D01*
X13423520Y35948388D01*
X13581612Y36106480D01*
X13705824Y36292376D01*
X13791383Y36498933D01*
X13835000Y36718212D01*
X13835000Y36941788D01*
X19185000Y36941788D01*
X19185000Y36718212D01*
X19228617Y36498933D01*
X19314176Y36292376D01*
X19438388Y36106480D01*
X19596480Y35948388D01*
X19782376Y35824176D01*
X19988933Y35738617D01*
X20208212Y35695000D01*
X20431788Y35695000D01*
X20651067Y35738617D01*
X20857624Y35824176D01*
X21043520Y35948388D01*
X21201612Y36106480D01*
X21325824Y36292376D01*
X21411383Y36498933D01*
X21455000Y36718212D01*
X21455000Y36941788D01*
X21411383Y37161067D01*
X21325824Y37367624D01*
X21201612Y37553520D01*
X21043520Y37711612D01*
X20857624Y37835824D01*
X20651067Y37921383D01*
X20431788Y37965000D01*
X20208212Y37965000D01*
X19988933Y37921383D01*
X19782376Y37835824D01*
X19596480Y37711612D01*
X19438388Y37553520D01*
X19314176Y37367624D01*
X19228617Y37161067D01*
X19185000Y36941788D01*
X13835000Y36941788D01*
X13791383Y37161067D01*
X13705824Y37367624D01*
X13581612Y37553520D01*
X13423520Y37711612D01*
X13237624Y37835824D01*
X13031067Y37921383D01*
X12811788Y37965000D01*
X12588212Y37965000D01*
X12368933Y37921383D01*
X12162376Y37835824D01*
X11976480Y37711612D01*
X11818388Y37553520D01*
X11759241Y37465000D01*
X7350895Y37465000D01*
X7270450Y37585394D01*
X7105394Y37750450D01*
X6911308Y37880134D01*
X6754082Y37945259D01*
X6981252Y38025843D01*
X7231355Y38174822D01*
X7447588Y38369731D01*
X7621641Y38603080D01*
X7746825Y38865901D01*
X7791476Y39013110D01*
X7670155Y39243000D01*
X6477000Y39243000D01*
X6477000Y39223000D01*
X6223000Y39223000D01*
X6223000Y39243000D01*
X5029845Y39243000D01*
X4908524Y39013110D01*
X4351134Y39013110D01*
X4962547Y39624522D01*
X5029845Y39497000D01*
X6223000Y39497000D01*
X6223000Y39517000D01*
X6477000Y39517000D01*
X6477000Y39497000D01*
X7670155Y39497000D01*
X7791476Y39726890D01*
X7746825Y39874099D01*
X7621641Y40136920D01*
X7447588Y40370269D01*
X7231355Y40565178D01*
X6981252Y40714157D01*
X6754082Y40794741D01*
X6911308Y40859866D01*
X7105394Y40989550D01*
X7270450Y41154606D01*
X7400134Y41348692D01*
X7489461Y41564348D01*
X7535000Y41793288D01*
X7535000Y42026712D01*
X7489461Y42255652D01*
X7400134Y42471308D01*
X7270450Y42665394D01*
X7105394Y42830450D01*
X6911308Y42960134D01*
X6695652Y43049461D01*
X6466712Y43095000D01*
X6233288Y43095000D01*
X6004348Y43049461D01*
X5788692Y42960134D01*
X5594606Y42830450D01*
X5429550Y42665394D01*
X5299866Y42471308D01*
X5210539Y42255652D01*
X5165000Y42026712D01*
X5165000Y41793288D01*
X5193248Y41651274D01*
X4889048Y41347073D01*
X4889048Y43027500D01*
X2730953Y43027500D01*
X2730953Y40607500D01*
X4149475Y40607500D01*
X2113050Y38571074D01*
X2088815Y38551185D01*
X2009463Y38454493D01*
X1950498Y38344179D01*
X1914188Y38224481D01*
X1905000Y38131191D01*
X1905000Y38131181D01*
X1901929Y38100000D01*
X1905000Y38068819D01*
X1905001Y30511202D01*
X1901928Y30480000D01*
X127000Y30480000D01*
X127000Y46431486D01*
X11365000Y46431486D01*
X11365000Y46168514D01*
X11416304Y45910595D01*
X11516939Y45667641D01*
X11663038Y45448987D01*
X11848987Y45263038D01*
X11965000Y45185521D01*
X11965001Y40506620D01*
X11900000Y40506620D01*
X11834329Y40500152D01*
X11771181Y40480996D01*
X11712984Y40449889D01*
X11661974Y40408026D01*
X11620111Y40357016D01*
X11589004Y40298819D01*
X11569848Y40235671D01*
X11563380Y40170000D01*
X11563380Y38570000D01*
X11569848Y38504329D01*
X11589004Y38441181D01*
X11620111Y38382984D01*
X11661974Y38331974D01*
X11712984Y38290111D01*
X11771181Y38259004D01*
X11834329Y38239848D01*
X11900000Y38233380D01*
X13500000Y38233380D01*
X13565671Y38239848D01*
X13628819Y38259004D01*
X13687016Y38290111D01*
X13738026Y38331974D01*
X13779889Y38382984D01*
X13810996Y38441181D01*
X13830152Y38504329D01*
X13836620Y38570000D01*
X13836620Y40170000D01*
X13830152Y40235671D01*
X13810996Y40298819D01*
X13779889Y40357016D01*
X13738026Y40408026D01*
X13687016Y40449889D01*
X13628819Y40480996D01*
X13607379Y40487500D01*
X14303810Y40487500D01*
X14303810Y38067500D01*
X16176191Y38067500D01*
X16176191Y39481788D01*
X19185000Y39481788D01*
X19185000Y39258212D01*
X19228617Y39038933D01*
X19314176Y38832376D01*
X19438388Y38646480D01*
X19596480Y38488388D01*
X19782376Y38364176D01*
X19988933Y38278617D01*
X20208212Y38235000D01*
X20431788Y38235000D01*
X20651067Y38278617D01*
X20857624Y38364176D01*
X21043520Y38488388D01*
X21201612Y38646480D01*
X21325824Y38832376D01*
X21411383Y39038933D01*
X21455000Y39258212D01*
X21455000Y39481788D01*
X21411383Y39701067D01*
X21325824Y39907624D01*
X21201612Y40093520D01*
X21043520Y40251612D01*
X20857624Y40375824D01*
X20651067Y40461383D01*
X20431788Y40505000D01*
X20208212Y40505000D01*
X19988933Y40461383D01*
X19782376Y40375824D01*
X19596480Y40251612D01*
X19438388Y40093520D01*
X19314176Y39907624D01*
X19228617Y39701067D01*
X19185000Y39481788D01*
X16176191Y39481788D01*
X16176191Y40487500D01*
X14303810Y40487500D01*
X13607379Y40487500D01*
X13565671Y40500152D01*
X13500000Y40506620D01*
X13435000Y40506620D01*
X13435000Y41757500D01*
X25710000Y41757500D01*
X25710000Y39337500D01*
X27630000Y39337500D01*
X27630000Y41757500D01*
X25710000Y41757500D01*
X13435000Y41757500D01*
X13435000Y45185521D01*
X13551013Y45263038D01*
X13736962Y45448987D01*
X13883061Y45667641D01*
X13902678Y45715000D01*
X17997322Y45715000D01*
X18016939Y45667641D01*
X18163038Y45448987D01*
X18348987Y45263038D01*
X18567641Y45116939D01*
X18810595Y45016304D01*
X19068514Y44965000D01*
X19331486Y44965000D01*
X19589405Y45016304D01*
X19832359Y45116939D01*
X20051013Y45263038D01*
X20236962Y45448987D01*
X20381296Y45665000D01*
X21825000Y45665000D01*
X21825000Y45618061D01*
X21864774Y45418102D01*
X21942795Y45229744D01*
X22056063Y45060226D01*
X22200226Y44916063D01*
X22369744Y44802795D01*
X22558102Y44724774D01*
X22758061Y44685000D01*
X22961939Y44685000D01*
X23161898Y44724774D01*
X23350256Y44802795D01*
X23519774Y44916063D01*
X23663937Y45060226D01*
X23777205Y45229744D01*
X23855226Y45418102D01*
X23895000Y45618061D01*
X23895000Y45821939D01*
X23855226Y46021898D01*
X23777205Y46210256D01*
X23663937Y46379774D01*
X23519774Y46523937D01*
X23350256Y46637205D01*
X23161898Y46715226D01*
X22961939Y46755000D01*
X22758061Y46755000D01*
X22732265Y46749869D01*
X22731185Y46751185D01*
X22634494Y46830537D01*
X22621468Y46837500D01*
X33210953Y46837500D01*
X33210953Y44417500D01*
X35369048Y44417500D01*
X35369048Y46837500D01*
X33210953Y46837500D01*
X22621468Y46837500D01*
X22524180Y46889502D01*
X22404482Y46925812D01*
X22311192Y46935000D01*
X22311181Y46935000D01*
X22280000Y46938071D01*
X22248819Y46935000D01*
X20381296Y46935000D01*
X20236962Y47151013D01*
X20051013Y47336962D01*
X19832359Y47483061D01*
X19589405Y47583696D01*
X19331486Y47635000D01*
X19068514Y47635000D01*
X18810595Y47583696D01*
X18567641Y47483061D01*
X18348987Y47336962D01*
X18163038Y47151013D01*
X18016939Y46932359D01*
X17997322Y46885000D01*
X13902678Y46885000D01*
X13883061Y46932359D01*
X13736962Y47151013D01*
X13551013Y47336962D01*
X13332359Y47483061D01*
X13089405Y47583696D01*
X12831486Y47635000D01*
X12568514Y47635000D01*
X12310595Y47583696D01*
X12067641Y47483061D01*
X11848987Y47336962D01*
X11663038Y47151013D01*
X11516939Y46932359D01*
X11416304Y46689405D01*
X11365000Y46431486D01*
X127000Y46431486D01*
X127000Y49664587D01*
X11744192Y49664587D01*
X11839956Y49400186D01*
X12129571Y49259296D01*
X12441108Y49177616D01*
X12762595Y49158282D01*
X13081675Y49202039D01*
X13386088Y49307205D01*
X13560044Y49400186D01*
X13655808Y49664587D01*
X18244192Y49664587D01*
X18339956Y49400186D01*
X18629571Y49259296D01*
X18941108Y49177616D01*
X19262595Y49158282D01*
X19581675Y49202039D01*
X19886088Y49307205D01*
X20060044Y49400186D01*
X20155808Y49664587D01*
X19200000Y50620395D01*
X18244192Y49664587D01*
X13655808Y49664587D01*
X12700000Y50620395D01*
X11744192Y49664587D01*
X127000Y49664587D01*
X127000Y50737405D01*
X11058282Y50737405D01*
X11102039Y50418325D01*
X11207205Y50113912D01*
X11300186Y49939956D01*
X11564587Y49844192D01*
X12520395Y50800000D01*
X12879605Y50800000D01*
X13835413Y49844192D01*
X14099814Y49939956D01*
X14240704Y50229571D01*
X14322384Y50541108D01*
X14334189Y50737405D01*
X17558282Y50737405D01*
X17602039Y50418325D01*
X17707205Y50113912D01*
X17800186Y49939956D01*
X18064587Y49844192D01*
X19020395Y50800000D01*
X19379605Y50800000D01*
X20335413Y49844192D01*
X20599814Y49939956D01*
X20740704Y50229571D01*
X20802867Y50466671D01*
X27917284Y50466671D01*
X27949953Y50358956D01*
X28060208Y50121608D01*
X28214649Y49910330D01*
X28407340Y49733241D01*
X28630877Y49597147D01*
X28876670Y49507278D01*
X29083000Y49629799D01*
X29083000Y50673000D01*
X29337000Y50673000D01*
X29337000Y49629799D01*
X29543330Y49507278D01*
X29789123Y49597147D01*
X30012660Y49733241D01*
X30205351Y49910330D01*
X30359792Y50121608D01*
X30470047Y50358956D01*
X30502716Y50466671D01*
X30379374Y50673000D01*
X29337000Y50673000D01*
X29083000Y50673000D01*
X28040626Y50673000D01*
X27917284Y50466671D01*
X20802867Y50466671D01*
X20822384Y50541108D01*
X20841718Y50862595D01*
X20804591Y51133329D01*
X27917284Y51133329D01*
X28040626Y50927000D01*
X29083000Y50927000D01*
X29083000Y51970201D01*
X29337000Y51970201D01*
X29337000Y50927000D01*
X30379374Y50927000D01*
X30502716Y51133329D01*
X30470047Y51241044D01*
X30359792Y51478392D01*
X30205351Y51689670D01*
X30012660Y51866759D01*
X29789123Y52002853D01*
X29543330Y52092722D01*
X29337000Y51970201D01*
X29083000Y51970201D01*
X28876670Y52092722D01*
X28630877Y52002853D01*
X28407340Y51866759D01*
X28214649Y51689670D01*
X28060208Y51478392D01*
X27949953Y51241044D01*
X27917284Y51133329D01*
X20804591Y51133329D01*
X20797961Y51181675D01*
X20692795Y51486088D01*
X20599814Y51660044D01*
X20335413Y51755808D01*
X19379605Y50800000D01*
X19020395Y50800000D01*
X18064587Y51755808D01*
X17800186Y51660044D01*
X17659296Y51370429D01*
X17577616Y51058892D01*
X17558282Y50737405D01*
X14334189Y50737405D01*
X14341718Y50862595D01*
X14297961Y51181675D01*
X14192795Y51486088D01*
X14099814Y51660044D01*
X13835413Y51755808D01*
X12879605Y50800000D01*
X12520395Y50800000D01*
X11564587Y51755808D01*
X11300186Y51660044D01*
X11159296Y51370429D01*
X11077616Y51058892D01*
X11058282Y50737405D01*
X127000Y50737405D01*
X127000Y51935413D01*
X11744192Y51935413D01*
X12700000Y50979605D01*
X13655808Y51935413D01*
X18244192Y51935413D01*
X19200000Y50979605D01*
X20155808Y51935413D01*
X20060044Y52199814D01*
X19770429Y52340704D01*
X19458892Y52422384D01*
X19137405Y52441718D01*
X18818325Y52397961D01*
X18513912Y52292795D01*
X18339956Y52199814D01*
X18244192Y51935413D01*
X13655808Y51935413D01*
X13560044Y52199814D01*
X13270429Y52340704D01*
X12958892Y52422384D01*
X12637405Y52441718D01*
X12318325Y52397961D01*
X12013912Y52292795D01*
X11839956Y52199814D01*
X11744192Y51935413D01*
X127000Y51935413D01*
X127000Y57023000D01*
X59563000Y57023000D01*
X59563000Y127000D01*
M02*
