M48
METRIC
T1C0.700
T2C0.800
T3C0.900
T4C1.000
T5C1.100
%
G90
G05
T1
X22.86Y45.72
X30.48Y45.72
X29.21Y50.8
X36.83Y50.8
T2
X12.7Y39.37
X12.7Y36.83
X12.7Y34.29
X12.7Y31.75
X12.7Y29.21
X12.7Y26.67
X12.7Y24.13
X12.7Y21.59
X12.7Y19.05
X12.7Y16.51
X12.7Y13.97
X12.7Y11.43
X12.7Y8.89
X12.7Y6.35
X20.32Y39.37
X20.32Y36.83
X20.32Y34.29
X20.32Y31.75
X20.32Y29.21
X20.32Y26.67
X20.32Y24.13
X20.32Y21.59
X20.32Y19.05
X20.32Y16.51
X20.32Y13.97
X20.32Y11.43
X20.32Y8.89
X20.32Y6.35
X34.6Y31.75
X38.1Y31.75
X5.12Y11.43
X7.62Y11.43
X54.61Y41.87
X54.61Y39.37
X27.94Y24.13
X27.94Y21.59
X27.94Y19.05
X27.94Y16.51
X27.94Y13.97
X27.94Y11.43
X27.94Y8.89
X27.94Y6.35
X40.64Y24.13
X40.64Y21.59
X40.64Y19.05
X40.64Y16.51
X40.64Y13.97
X40.64Y11.43
X40.64Y8.89
X40.64Y6.35
X54.61Y48.26
X54.61Y45.76
X5.08Y26.67
X7.58Y26.67
T3
X34.29Y43.18
X36.83Y43.18
T4
X6.35Y41.91
X6.35Y39.37
X6.35Y36.83
X6.35Y34.29
X50.8Y20.32
X53.34Y20.32
X55.88Y20.32
X50.8Y13.97
X50.8Y11.43
X50.8Y8.89
X50.8Y6.35
X26.67Y38.1
X26.67Y35.56
X26.67Y33.02
X6.35Y21.59
X6.35Y16.59
T5
X45.72Y45.72
X45.72Y43.18
X45.72Y40.64
X12.7Y50.8
X12.7Y46.3
X19.2Y50.8
X19.2Y46.3
T4
G00X46.99Y28.21
M15
G01X46.99Y30.21
M16
G05
G00X50.99Y33.91
M15
G01X48.99Y33.91
M16
G05
G00X52.99Y28.21
M15
G01X52.99Y30.21
M16
G05
T0
M30
